%TF.GenerationSoftware,KiCad,Pcbnew,8.0.2-1*%
%TF.CreationDate,2024-07-15T21:16:38-07:00*%
%TF.ProjectId,TEMP_LOGGER,54454d50-5f4c-44f4-9747-45522e6b6963,rev?*%
%TF.SameCoordinates,Original*%
%TF.FileFunction,Copper,L2,Bot*%
%TF.FilePolarity,Positive*%
%FSLAX46Y46*%
G04 Gerber Fmt 4.6, Leading zero omitted, Abs format (unit mm)*
G04 Created by KiCad (PCBNEW 8.0.2-1) date 2024-07-15 21:16:38*
%MOMM*%
%LPD*%
G01*
G04 APERTURE LIST*
%TA.AperFunction,ComponentPad*%
%ADD10R,1.700000X1.700000*%
%TD*%
%TA.AperFunction,ComponentPad*%
%ADD11O,1.700000X1.700000*%
%TD*%
%TA.AperFunction,ComponentPad*%
%ADD12O,1.000000X1.600000*%
%TD*%
%TA.AperFunction,ComponentPad*%
%ADD13O,1.000000X2.100000*%
%TD*%
%TA.AperFunction,ComponentPad*%
%ADD14R,1.000000X1.000000*%
%TD*%
%TA.AperFunction,ComponentPad*%
%ADD15O,1.000000X1.000000*%
%TD*%
%TA.AperFunction,ViaPad*%
%ADD16C,0.600000*%
%TD*%
%TA.AperFunction,Conductor*%
%ADD17C,0.250000*%
%TD*%
%TA.AperFunction,Conductor*%
%ADD18C,0.200000*%
%TD*%
%TA.AperFunction,Conductor*%
%ADD19C,0.500000*%
%TD*%
G04 APERTURE END LIST*
D10*
%TO.P,J3,1,Pin_1*%
%TO.N,GND*%
X170675000Y-105250000D03*
D11*
%TO.P,J3,2,Pin_2*%
%TO.N,USART1_TX*%
X170675000Y-102710000D03*
%TO.P,J3,3,Pin_3*%
%TO.N,USART1_RX*%
X170675000Y-100170000D03*
%TD*%
D12*
%TO.P,J6,NC1,NC*%
%TO.N,unconnected-(J6-NC-PadNC1)*%
X151318000Y-68211250D03*
D13*
%TO.P,J6,NC2,NC*%
%TO.N,unconnected-(J6-NC-PadNC2)*%
X151318000Y-72391250D03*
%TO.P,J6,NC3,NC*%
%TO.N,unconnected-(J6-NC-PadNC3)*%
X142682000Y-72391250D03*
D12*
%TO.P,J6,S,SHIELD*%
%TO.N,GND*%
X142682000Y-68211250D03*
%TD*%
D14*
%TO.P,J1,1,Pin_1*%
%TO.N,+3V3*%
X171325000Y-81750000D03*
D15*
%TO.P,J1,2,Pin_2*%
%TO.N,SWDIO*%
X170055000Y-81750000D03*
%TO.P,J1,3,Pin_3*%
%TO.N,GND*%
X171325000Y-80480000D03*
%TO.P,J1,4,Pin_4*%
%TO.N,SWDCLK*%
X170055000Y-80480000D03*
%TO.P,J1,5,Pin_5*%
%TO.N,GND*%
X171325000Y-79210000D03*
%TO.P,J1,6,Pin_6*%
%TO.N,unconnected-(J1-Pin_6-Pad6)*%
X170055000Y-79210000D03*
%TO.P,J1,7,Pin_7*%
%TO.N,unconnected-(J1-Pin_7-Pad7)*%
X171325000Y-77940000D03*
%TO.P,J1,8,Pin_8*%
%TO.N,unconnected-(J1-Pin_8-Pad8)*%
X170055000Y-77940000D03*
%TO.P,J1,9,Pin_9*%
%TO.N,GND*%
X171325000Y-76670000D03*
%TO.P,J1,10,Pin_10*%
%TO.N,NRST*%
X170055000Y-76670000D03*
%TD*%
D10*
%TO.P,J2,1,Pin_1*%
%TO.N,Net-(J2-Pin_1)*%
X145725000Y-114750000D03*
D11*
%TO.P,J2,2,Pin_2*%
%TO.N,Net-(J2-Pin_2)*%
X148265000Y-114750000D03*
%TD*%
D10*
%TO.P,J5,1,Pin_1*%
%TO.N,BOOT0*%
X170725000Y-89400000D03*
D11*
%TO.P,J5,2,Pin_2*%
%TO.N,+3V3*%
X170725000Y-91940000D03*
%TD*%
D16*
%TO.N,GND*%
X142400000Y-94500000D03*
%TO.N,NRST*%
X149400000Y-86900000D03*
X159000000Y-77300000D03*
%TO.N,GND*%
X141500000Y-80300000D03*
X147000000Y-77000000D03*
X124400000Y-90900000D03*
X131700000Y-68200000D03*
X154200000Y-80900000D03*
X153100000Y-97400000D03*
X124400000Y-84700000D03*
X152150000Y-75850000D03*
X131700000Y-72300000D03*
X141400000Y-90200000D03*
X133100000Y-79600000D03*
X164500000Y-91600000D03*
X143800000Y-74200000D03*
X130600000Y-93500000D03*
X150200000Y-74200000D03*
X154200000Y-70900000D03*
X132400000Y-106100000D03*
X130600000Y-89500000D03*
X151500000Y-115400000D03*
X141900000Y-77750000D03*
X162400000Y-72300000D03*
X144200000Y-83900000D03*
X144900000Y-100000000D03*
X140000000Y-114500000D03*
X162400000Y-68200000D03*
%TO.N,BTN_1*%
X139500000Y-73900000D03*
X136500000Y-73900000D03*
%TO.N,LED1*%
X128600000Y-95400000D03*
X141300000Y-92500000D03*
%TO.N,TEMP_EN*%
X144500000Y-104400000D03*
X147000000Y-112200000D03*
X159700000Y-113500000D03*
X136300000Y-116700000D03*
X147300000Y-98300000D03*
%TO.N,FLASH_SCK*%
X126800000Y-101400000D03*
X135300000Y-103100000D03*
%TO.N,THERM_OUT*%
X147875000Y-95600000D03*
X137500000Y-107200000D03*
%TO.N,FLASH_MISO*%
X135400000Y-101900000D03*
X141500000Y-100300000D03*
%TO.N,FLASH_MOSI*%
X126800000Y-103800000D03*
X135200000Y-104400000D03*
X139700000Y-103000000D03*
X142400000Y-100300000D03*
%TO.N,Net-(Q1-D)*%
X141500000Y-110900000D03*
X144600000Y-107800000D03*
%TO.N,LED0*%
X128600000Y-89400000D03*
X141300000Y-91700000D03*
%TO.N,BOOT0*%
X146300000Y-88400000D03*
X165900000Y-88400000D03*
%TD*%
D17*
%TO.N,NRST*%
X149400000Y-86900000D02*
X159000000Y-77300000D01*
D18*
%TO.N,BTN_1*%
X139500000Y-73900000D02*
X136500000Y-73900000D01*
%TO.N,LED1*%
X138400000Y-95400000D02*
X128600000Y-95400000D01*
X141300000Y-92500000D02*
X138400000Y-95400000D01*
D19*
%TO.N,TEMP_EN*%
X139400000Y-116700000D02*
X143900000Y-112200000D01*
X144500000Y-104400000D02*
X147300000Y-101600000D01*
X159700000Y-113500000D02*
X159700000Y-112700000D01*
X159200000Y-112200000D02*
X147000000Y-112200000D01*
X159700000Y-112700000D02*
X159200000Y-112200000D01*
X147300000Y-101600000D02*
X147300000Y-98300000D01*
X136300000Y-116700000D02*
X139400000Y-116700000D01*
X143900000Y-112200000D02*
X147000000Y-112200000D01*
%TO.N,FLASH_SCK*%
X128500000Y-103100000D02*
X126800000Y-101400000D01*
X135300000Y-103100000D02*
X128500000Y-103100000D01*
D18*
%TO.N,THERM_OUT*%
X147875000Y-95600000D02*
X147875000Y-95673529D01*
X147875000Y-95673529D02*
X137500000Y-106048529D01*
X137500000Y-106048529D02*
X137500000Y-107200000D01*
D17*
%TO.N,FLASH_MISO*%
X139900000Y-101900000D02*
X135400000Y-101900000D01*
X141500000Y-100300000D02*
X139900000Y-101900000D01*
D19*
%TO.N,FLASH_MOSI*%
X127400000Y-104400000D02*
X126800000Y-103800000D01*
D17*
X139700000Y-103000000D02*
X142400000Y-100300000D01*
D19*
X135200000Y-104400000D02*
X127400000Y-104400000D01*
%TO.N,Net-(Q1-D)*%
X141500000Y-110900000D02*
X144600000Y-107800000D01*
D18*
%TO.N,LED0*%
X130800000Y-91700000D02*
X128600000Y-89500000D01*
X141300000Y-91700000D02*
X130800000Y-91700000D01*
%TO.N,BOOT0*%
X146300000Y-88400000D02*
X165900000Y-88400000D01*
%TD*%
%TA.AperFunction,Conductor*%
%TO.N,GND*%
G36*
X174942539Y-65770185D02*
G01*
X174988294Y-65822989D01*
X174999500Y-65874500D01*
X174999500Y-119125500D01*
X174979815Y-119192539D01*
X174927011Y-119238294D01*
X174875500Y-119249500D01*
X119124500Y-119249500D01*
X119057461Y-119229815D01*
X119011706Y-119177011D01*
X119000500Y-119125500D01*
X119000500Y-114750000D01*
X119994696Y-114750000D01*
X120013898Y-115116404D01*
X120071295Y-115478794D01*
X120133492Y-115710917D01*
X120166260Y-115833206D01*
X120297746Y-116175739D01*
X120464320Y-116502656D01*
X120664147Y-116810364D01*
X120664149Y-116810366D01*
X120895051Y-117095506D01*
X121154494Y-117354949D01*
X121236870Y-117421656D01*
X121439635Y-117585852D01*
X121747343Y-117785679D01*
X121747348Y-117785682D01*
X122074264Y-117952255D01*
X122416801Y-118083742D01*
X122771206Y-118178705D01*
X123133596Y-118236102D01*
X123479734Y-118254241D01*
X123499999Y-118255304D01*
X123500000Y-118255304D01*
X123500001Y-118255304D01*
X123519203Y-118254297D01*
X123866404Y-118236102D01*
X124228794Y-118178705D01*
X124583199Y-118083742D01*
X124925736Y-117952255D01*
X125252652Y-117785682D01*
X125560366Y-117585851D01*
X125845506Y-117354949D01*
X126104949Y-117095506D01*
X126335851Y-116810366D01*
X126407526Y-116699996D01*
X135494435Y-116699996D01*
X135494435Y-116700003D01*
X135514630Y-116879249D01*
X135514631Y-116879254D01*
X135574211Y-117049523D01*
X135622998Y-117127166D01*
X135670184Y-117202262D01*
X135797738Y-117329816D01*
X135888080Y-117386582D01*
X135943903Y-117421658D01*
X135950478Y-117425789D01*
X136021098Y-117450500D01*
X136120745Y-117485368D01*
X136120750Y-117485369D01*
X136299996Y-117505565D01*
X136300000Y-117505565D01*
X136300004Y-117505565D01*
X136479249Y-117485369D01*
X136479252Y-117485368D01*
X136479255Y-117485368D01*
X136559017Y-117457457D01*
X136599972Y-117450500D01*
X139473920Y-117450500D01*
X139571462Y-117431096D01*
X139618913Y-117421658D01*
X139755495Y-117365084D01*
X139808277Y-117329816D01*
X139878416Y-117282952D01*
X143309233Y-113852135D01*
X144374500Y-113852135D01*
X144374500Y-115647870D01*
X144374501Y-115647876D01*
X144380908Y-115707483D01*
X144431202Y-115842328D01*
X144431206Y-115842335D01*
X144517452Y-115957544D01*
X144517455Y-115957547D01*
X144632664Y-116043793D01*
X144632671Y-116043797D01*
X144767517Y-116094091D01*
X144767516Y-116094091D01*
X144774444Y-116094835D01*
X144827127Y-116100500D01*
X146622872Y-116100499D01*
X146682483Y-116094091D01*
X146817331Y-116043796D01*
X146932546Y-115957546D01*
X147018796Y-115842331D01*
X147067810Y-115710916D01*
X147109681Y-115654984D01*
X147175145Y-115630566D01*
X147243418Y-115645417D01*
X147271673Y-115666569D01*
X147393599Y-115788495D01*
X147490384Y-115856265D01*
X147587165Y-115924032D01*
X147587167Y-115924033D01*
X147587170Y-115924035D01*
X147801337Y-116023903D01*
X148029592Y-116085063D01*
X148206034Y-116100500D01*
X148264999Y-116105659D01*
X148265000Y-116105659D01*
X148265001Y-116105659D01*
X148323966Y-116100500D01*
X148500408Y-116085063D01*
X148728663Y-116023903D01*
X148942830Y-115924035D01*
X149136401Y-115788495D01*
X149303495Y-115621401D01*
X149439035Y-115427830D01*
X149538903Y-115213663D01*
X149600063Y-114985408D01*
X149620659Y-114750000D01*
X167194696Y-114750000D01*
X167213898Y-115116404D01*
X167271295Y-115478794D01*
X167333492Y-115710917D01*
X167366260Y-115833206D01*
X167497746Y-116175739D01*
X167664320Y-116502656D01*
X167864147Y-116810364D01*
X167864149Y-116810366D01*
X168095051Y-117095506D01*
X168354494Y-117354949D01*
X168436870Y-117421656D01*
X168639635Y-117585852D01*
X168947343Y-117785679D01*
X168947348Y-117785682D01*
X169274264Y-117952255D01*
X169616801Y-118083742D01*
X169971206Y-118178705D01*
X170333596Y-118236102D01*
X170679734Y-118254241D01*
X170699999Y-118255304D01*
X170700000Y-118255304D01*
X170700001Y-118255304D01*
X170719203Y-118254297D01*
X171066404Y-118236102D01*
X171428794Y-118178705D01*
X171783199Y-118083742D01*
X172125736Y-117952255D01*
X172452652Y-117785682D01*
X172760366Y-117585851D01*
X173045506Y-117354949D01*
X173304949Y-117095506D01*
X173535851Y-116810366D01*
X173735682Y-116502652D01*
X173902255Y-116175736D01*
X174033742Y-115833199D01*
X174128705Y-115478794D01*
X174186102Y-115116404D01*
X174205304Y-114750000D01*
X174186102Y-114383596D01*
X174128705Y-114021206D01*
X174033742Y-113666801D01*
X173902255Y-113324264D01*
X173735682Y-112997348D01*
X173735679Y-112997343D01*
X173535852Y-112689635D01*
X173304952Y-112404498D01*
X173304949Y-112404494D01*
X173045506Y-112145051D01*
X172760366Y-111914149D01*
X172760364Y-111914147D01*
X172452656Y-111714320D01*
X172125739Y-111547746D01*
X171783206Y-111416260D01*
X171783199Y-111416258D01*
X171428794Y-111321295D01*
X171428790Y-111321294D01*
X171428789Y-111321294D01*
X171066405Y-111263898D01*
X170700001Y-111244696D01*
X170699999Y-111244696D01*
X170333594Y-111263898D01*
X169971211Y-111321294D01*
X169971209Y-111321294D01*
X169616793Y-111416260D01*
X169274260Y-111547746D01*
X168947343Y-111714320D01*
X168639635Y-111914147D01*
X168354498Y-112145047D01*
X168354490Y-112145054D01*
X168095054Y-112404490D01*
X168095047Y-112404498D01*
X167864147Y-112689635D01*
X167664320Y-112997343D01*
X167497746Y-113324260D01*
X167366260Y-113666793D01*
X167271294Y-114021209D01*
X167271294Y-114021211D01*
X167229303Y-114286335D01*
X167213898Y-114383596D01*
X167194696Y-114750000D01*
X149620659Y-114750000D01*
X149600063Y-114514592D01*
X149538903Y-114286337D01*
X149439035Y-114072171D01*
X149403352Y-114021209D01*
X149303494Y-113878597D01*
X149136402Y-113711506D01*
X149136395Y-113711501D01*
X148942834Y-113575967D01*
X148942830Y-113575965D01*
X148878263Y-113545857D01*
X148728663Y-113476097D01*
X148728659Y-113476096D01*
X148728655Y-113476094D01*
X148500413Y-113414938D01*
X148500403Y-113414936D01*
X148265001Y-113394341D01*
X148264999Y-113394341D01*
X148029596Y-113414936D01*
X148029586Y-113414938D01*
X147801344Y-113476094D01*
X147801335Y-113476098D01*
X147587171Y-113575964D01*
X147587169Y-113575965D01*
X147393600Y-113711503D01*
X147271673Y-113833430D01*
X147210350Y-113866914D01*
X147140658Y-113861930D01*
X147084725Y-113820058D01*
X147067810Y-113789081D01*
X147018797Y-113657671D01*
X147018793Y-113657664D01*
X146932547Y-113542455D01*
X146932544Y-113542452D01*
X146817335Y-113456206D01*
X146817328Y-113456202D01*
X146682482Y-113405908D01*
X146682483Y-113405908D01*
X146622883Y-113399501D01*
X146622881Y-113399500D01*
X146622873Y-113399500D01*
X146622864Y-113399500D01*
X144827129Y-113399500D01*
X144827123Y-113399501D01*
X144767516Y-113405908D01*
X144632671Y-113456202D01*
X144632664Y-113456206D01*
X144517455Y-113542452D01*
X144517452Y-113542455D01*
X144431206Y-113657664D01*
X144431202Y-113657671D01*
X144380908Y-113792517D01*
X144374501Y-113852116D01*
X144374500Y-113852135D01*
X143309233Y-113852135D01*
X144174549Y-112986819D01*
X144235872Y-112953334D01*
X144262230Y-112950500D01*
X146700028Y-112950500D01*
X146740982Y-112957457D01*
X146820745Y-112985368D01*
X146820750Y-112985369D01*
X146999996Y-113005565D01*
X147000000Y-113005565D01*
X147000004Y-113005565D01*
X147179249Y-112985369D01*
X147179252Y-112985368D01*
X147179255Y-112985368D01*
X147259017Y-112957457D01*
X147299972Y-112950500D01*
X158825500Y-112950500D01*
X158892539Y-112970185D01*
X158938294Y-113022989D01*
X158949500Y-113074500D01*
X158949500Y-113200028D01*
X158942542Y-113240982D01*
X158914631Y-113320747D01*
X158894435Y-113499996D01*
X158894435Y-113500003D01*
X158914630Y-113679249D01*
X158914631Y-113679254D01*
X158974211Y-113849523D01*
X158982007Y-113861930D01*
X159070184Y-114002262D01*
X159197738Y-114129816D01*
X159350478Y-114225789D01*
X159520745Y-114285368D01*
X159520750Y-114285369D01*
X159699996Y-114305565D01*
X159700000Y-114305565D01*
X159700004Y-114305565D01*
X159879249Y-114285369D01*
X159879252Y-114285368D01*
X159879255Y-114285368D01*
X160049522Y-114225789D01*
X160202262Y-114129816D01*
X160329816Y-114002262D01*
X160425789Y-113849522D01*
X160485368Y-113679255D01*
X160485369Y-113679249D01*
X160505565Y-113500003D01*
X160505565Y-113499996D01*
X160485368Y-113320747D01*
X160485368Y-113320745D01*
X160457458Y-113240982D01*
X160450500Y-113200028D01*
X160450500Y-112626079D01*
X160421659Y-112481092D01*
X160421658Y-112481091D01*
X160421658Y-112481087D01*
X160389934Y-112404498D01*
X160365087Y-112344511D01*
X160365083Y-112344504D01*
X160331854Y-112294773D01*
X160305568Y-112255432D01*
X160282956Y-112221589D01*
X160282952Y-112221584D01*
X159678421Y-111617052D01*
X159678414Y-111617046D01*
X159578818Y-111550499D01*
X159578817Y-111550499D01*
X159555495Y-111534916D01*
X159555488Y-111534912D01*
X159418917Y-111478343D01*
X159418907Y-111478340D01*
X159273920Y-111449500D01*
X159273918Y-111449500D01*
X147299972Y-111449500D01*
X147259017Y-111442542D01*
X147179254Y-111414631D01*
X147179249Y-111414630D01*
X147000004Y-111394435D01*
X146999996Y-111394435D01*
X146820750Y-111414630D01*
X146820745Y-111414631D01*
X146740983Y-111442542D01*
X146700028Y-111449500D01*
X143826080Y-111449500D01*
X143681092Y-111478340D01*
X143681082Y-111478343D01*
X143544511Y-111534912D01*
X143544504Y-111534916D01*
X143528992Y-111545281D01*
X143521183Y-111550499D01*
X143521182Y-111550499D01*
X143421585Y-111617046D01*
X143421578Y-111617052D01*
X139125451Y-115913181D01*
X139064128Y-115946666D01*
X139037770Y-115949500D01*
X136599972Y-115949500D01*
X136559017Y-115942542D01*
X136479254Y-115914631D01*
X136479249Y-115914630D01*
X136300004Y-115894435D01*
X136299996Y-115894435D01*
X136120750Y-115914630D01*
X136120745Y-115914631D01*
X135950476Y-115974211D01*
X135797737Y-116070184D01*
X135670184Y-116197737D01*
X135574211Y-116350476D01*
X135514631Y-116520745D01*
X135514630Y-116520750D01*
X135494435Y-116699996D01*
X126407526Y-116699996D01*
X126535682Y-116502652D01*
X126702255Y-116175736D01*
X126833742Y-115833199D01*
X126928705Y-115478794D01*
X126986102Y-115116404D01*
X127005304Y-114750000D01*
X126986102Y-114383596D01*
X126928705Y-114021206D01*
X126833742Y-113666801D01*
X126702255Y-113324264D01*
X126535682Y-112997348D01*
X126535679Y-112997343D01*
X126335852Y-112689635D01*
X126104952Y-112404498D01*
X126104949Y-112404494D01*
X125845506Y-112145051D01*
X125560366Y-111914149D01*
X125560364Y-111914147D01*
X125252656Y-111714320D01*
X124925739Y-111547746D01*
X124583206Y-111416260D01*
X124583199Y-111416258D01*
X124228794Y-111321295D01*
X124228790Y-111321294D01*
X124228789Y-111321294D01*
X123866405Y-111263898D01*
X123500001Y-111244696D01*
X123499999Y-111244696D01*
X123133594Y-111263898D01*
X122771211Y-111321294D01*
X122771209Y-111321294D01*
X122416793Y-111416260D01*
X122074260Y-111547746D01*
X121747343Y-111714320D01*
X121439635Y-111914147D01*
X121154498Y-112145047D01*
X121154490Y-112145054D01*
X120895054Y-112404490D01*
X120895047Y-112404498D01*
X120664147Y-112689635D01*
X120464320Y-112997343D01*
X120297746Y-113324260D01*
X120166260Y-113666793D01*
X120071294Y-114021209D01*
X120071294Y-114021211D01*
X120029303Y-114286335D01*
X120013898Y-114383596D01*
X119994696Y-114750000D01*
X119000500Y-114750000D01*
X119000500Y-110899996D01*
X140694435Y-110899996D01*
X140694435Y-110900003D01*
X140714630Y-111079249D01*
X140714631Y-111079254D01*
X140774211Y-111249523D01*
X140819308Y-111321294D01*
X140870184Y-111402262D01*
X140997738Y-111529816D01*
X141088080Y-111586582D01*
X141136566Y-111617048D01*
X141150478Y-111625789D01*
X141320745Y-111685368D01*
X141320750Y-111685369D01*
X141499996Y-111705565D01*
X141500000Y-111705565D01*
X141500004Y-111705565D01*
X141679249Y-111685369D01*
X141679252Y-111685368D01*
X141679255Y-111685368D01*
X141849522Y-111625789D01*
X142002262Y-111529816D01*
X142129816Y-111402262D01*
X142225789Y-111249522D01*
X142225790Y-111249518D01*
X142228811Y-111243246D01*
X142230655Y-111244134D01*
X142253305Y-111208061D01*
X144908061Y-108553305D01*
X144944134Y-108530655D01*
X144943246Y-108528811D01*
X144949518Y-108525790D01*
X144949522Y-108525789D01*
X145102262Y-108429816D01*
X145229816Y-108302262D01*
X145325789Y-108149522D01*
X145385368Y-107979255D01*
X145391392Y-107925789D01*
X145405565Y-107800003D01*
X145405565Y-107799996D01*
X145385369Y-107620750D01*
X145385368Y-107620745D01*
X145340296Y-107491937D01*
X145325789Y-107450478D01*
X145229816Y-107297738D01*
X145102262Y-107170184D01*
X144949523Y-107074211D01*
X144779254Y-107014631D01*
X144779249Y-107014630D01*
X144600004Y-106994435D01*
X144599996Y-106994435D01*
X144420750Y-107014630D01*
X144420745Y-107014631D01*
X144250476Y-107074211D01*
X144097737Y-107170184D01*
X143970184Y-107297737D01*
X143874211Y-107450478D01*
X143871188Y-107456756D01*
X143869362Y-107455876D01*
X143846693Y-107491937D01*
X141191937Y-110146693D01*
X141155876Y-110169362D01*
X141156756Y-110171188D01*
X141150478Y-110174211D01*
X140997737Y-110270184D01*
X140870184Y-110397737D01*
X140774211Y-110550476D01*
X140714631Y-110720745D01*
X140714630Y-110720750D01*
X140694435Y-110899996D01*
X119000500Y-110899996D01*
X119000500Y-101399996D01*
X125994435Y-101399996D01*
X125994435Y-101400003D01*
X126014630Y-101579249D01*
X126014631Y-101579254D01*
X126074211Y-101749523D01*
X126130182Y-101838599D01*
X126170184Y-101902262D01*
X126297738Y-102029816D01*
X126450478Y-102125789D01*
X126450480Y-102125789D01*
X126450484Y-102125792D01*
X126456756Y-102128813D01*
X126455869Y-102130653D01*
X126491939Y-102153307D01*
X127170421Y-102831789D01*
X127203906Y-102893112D01*
X127198922Y-102962804D01*
X127157050Y-103018737D01*
X127091586Y-103043154D01*
X127041786Y-103036512D01*
X126979257Y-103014632D01*
X126979249Y-103014630D01*
X126800004Y-102994435D01*
X126799996Y-102994435D01*
X126620750Y-103014630D01*
X126620745Y-103014631D01*
X126450476Y-103074211D01*
X126297737Y-103170184D01*
X126170184Y-103297737D01*
X126074211Y-103450476D01*
X126014631Y-103620745D01*
X126014630Y-103620750D01*
X125994435Y-103799996D01*
X125994435Y-103800003D01*
X126014630Y-103979249D01*
X126014631Y-103979254D01*
X126074211Y-104149523D01*
X126164130Y-104292627D01*
X126170184Y-104302262D01*
X126297738Y-104429816D01*
X126450478Y-104525789D01*
X126450483Y-104525792D01*
X126456753Y-104528812D01*
X126455870Y-104530643D01*
X126491940Y-104553308D01*
X126666707Y-104728074D01*
X126817049Y-104878416D01*
X126881626Y-104942993D01*
X126921585Y-104982952D01*
X127044498Y-105065080D01*
X127044511Y-105065087D01*
X127181082Y-105121656D01*
X127181087Y-105121658D01*
X127181091Y-105121658D01*
X127181092Y-105121659D01*
X127326079Y-105150500D01*
X127326082Y-105150500D01*
X134900028Y-105150500D01*
X134940983Y-105157458D01*
X135020745Y-105185368D01*
X135020750Y-105185369D01*
X135199996Y-105205565D01*
X135200000Y-105205565D01*
X135200004Y-105205565D01*
X135379249Y-105185369D01*
X135379252Y-105185368D01*
X135379255Y-105185368D01*
X135549522Y-105125789D01*
X135702262Y-105029816D01*
X135829816Y-104902262D01*
X135925789Y-104749522D01*
X135985368Y-104579255D01*
X135985369Y-104579249D01*
X136005565Y-104400003D01*
X136005565Y-104399996D01*
X135985369Y-104220750D01*
X135985368Y-104220745D01*
X135925788Y-104050476D01*
X135829815Y-103897737D01*
X135819759Y-103887681D01*
X135786274Y-103826358D01*
X135791258Y-103756666D01*
X135819759Y-103712319D01*
X135865372Y-103666706D01*
X135929816Y-103602262D01*
X136025789Y-103449522D01*
X136085368Y-103279255D01*
X136085369Y-103279249D01*
X136105565Y-103100003D01*
X136105565Y-103099996D01*
X136085369Y-102920750D01*
X136085368Y-102920745D01*
X136025788Y-102750475D01*
X136003794Y-102715473D01*
X135984793Y-102648236D01*
X136005160Y-102581401D01*
X136058428Y-102536187D01*
X136108787Y-102525500D01*
X138843180Y-102525500D01*
X138910219Y-102545185D01*
X138955974Y-102597989D01*
X138965918Y-102667147D01*
X138960222Y-102690454D01*
X138914632Y-102820742D01*
X138914630Y-102820750D01*
X138894435Y-102999996D01*
X138894435Y-103000003D01*
X138914630Y-103179249D01*
X138914631Y-103179254D01*
X138974211Y-103349523D01*
X139066520Y-103496431D01*
X139085520Y-103563668D01*
X139065152Y-103630503D01*
X139049207Y-103650084D01*
X137131286Y-105568007D01*
X137019481Y-105679811D01*
X137019479Y-105679814D01*
X136969361Y-105766623D01*
X136969359Y-105766625D01*
X136940425Y-105816738D01*
X136940424Y-105816739D01*
X136940423Y-105816744D01*
X136899499Y-105969472D01*
X136899499Y-105969474D01*
X136899499Y-106137575D01*
X136899500Y-106137588D01*
X136899500Y-106617587D01*
X136879815Y-106684626D01*
X136872450Y-106694896D01*
X136870186Y-106697734D01*
X136774211Y-106850476D01*
X136714631Y-107020745D01*
X136714630Y-107020750D01*
X136694435Y-107199996D01*
X136694435Y-107200003D01*
X136714630Y-107379249D01*
X136714631Y-107379254D01*
X136774211Y-107549523D01*
X136870184Y-107702262D01*
X136997738Y-107829816D01*
X137150478Y-107925789D01*
X137303258Y-107979249D01*
X137320745Y-107985368D01*
X137320750Y-107985369D01*
X137499996Y-108005565D01*
X137500000Y-108005565D01*
X137500004Y-108005565D01*
X137679249Y-107985369D01*
X137679252Y-107985368D01*
X137679255Y-107985368D01*
X137849522Y-107925789D01*
X138002262Y-107829816D01*
X138129816Y-107702262D01*
X138225789Y-107549522D01*
X138285368Y-107379255D01*
X138305565Y-107200000D01*
X138291392Y-107074211D01*
X138285369Y-107020750D01*
X138285368Y-107020745D01*
X138225788Y-106850476D01*
X138129813Y-106697734D01*
X138127550Y-106694896D01*
X138126659Y-106692715D01*
X138126111Y-106691842D01*
X138126264Y-106691745D01*
X138101144Y-106630209D01*
X138100500Y-106617587D01*
X138100500Y-106348626D01*
X138120185Y-106281587D01*
X138136819Y-106260945D01*
X142213219Y-102184545D01*
X146294227Y-98103536D01*
X146355548Y-98070053D01*
X146425240Y-98075037D01*
X146481173Y-98116909D01*
X146505590Y-98182373D01*
X146505126Y-98205101D01*
X146494435Y-98299994D01*
X146494435Y-98300003D01*
X146514630Y-98479249D01*
X146514631Y-98479254D01*
X146542542Y-98559017D01*
X146549500Y-98599972D01*
X146549500Y-101237769D01*
X146529815Y-101304808D01*
X146513181Y-101325450D01*
X144191937Y-103646693D01*
X144155876Y-103669362D01*
X144156756Y-103671188D01*
X144150478Y-103674211D01*
X143997737Y-103770184D01*
X143870184Y-103897737D01*
X143774211Y-104050476D01*
X143714631Y-104220745D01*
X143714630Y-104220750D01*
X143694435Y-104399996D01*
X143694435Y-104400003D01*
X143714630Y-104579249D01*
X143714631Y-104579254D01*
X143774211Y-104749523D01*
X143870184Y-104902262D01*
X143997738Y-105029816D01*
X144088080Y-105086582D01*
X144143903Y-105121658D01*
X144150478Y-105125789D01*
X144221098Y-105150500D01*
X144320745Y-105185368D01*
X144320750Y-105185369D01*
X144499996Y-105205565D01*
X144500000Y-105205565D01*
X144500004Y-105205565D01*
X144679249Y-105185369D01*
X144679252Y-105185368D01*
X144679255Y-105185368D01*
X144849522Y-105125789D01*
X145002262Y-105029816D01*
X145129816Y-104902262D01*
X145225789Y-104749522D01*
X145225790Y-104749518D01*
X145228811Y-104743246D01*
X145230655Y-104744134D01*
X145253305Y-104708061D01*
X147882952Y-102078416D01*
X147921843Y-102020210D01*
X147961000Y-101961608D01*
X147962635Y-101959159D01*
X147965084Y-101955495D01*
X148021658Y-101818913D01*
X148035461Y-101749522D01*
X148050500Y-101673920D01*
X148050500Y-100169999D01*
X169319341Y-100169999D01*
X169319341Y-100170000D01*
X169339936Y-100405403D01*
X169339938Y-100405413D01*
X169401094Y-100633655D01*
X169401096Y-100633659D01*
X169401097Y-100633663D01*
X169420005Y-100674211D01*
X169500965Y-100847830D01*
X169500967Y-100847834D01*
X169636501Y-101041395D01*
X169636506Y-101041402D01*
X169803597Y-101208493D01*
X169803603Y-101208498D01*
X169989158Y-101338425D01*
X170032783Y-101393002D01*
X170039977Y-101462500D01*
X170008454Y-101524855D01*
X169989158Y-101541575D01*
X169803597Y-101671505D01*
X169636505Y-101838597D01*
X169500965Y-102032169D01*
X169500964Y-102032171D01*
X169401098Y-102246335D01*
X169401094Y-102246344D01*
X169339938Y-102474586D01*
X169339936Y-102474596D01*
X169319341Y-102709999D01*
X169319341Y-102710000D01*
X169339936Y-102945403D01*
X169339938Y-102945413D01*
X169401094Y-103173655D01*
X169401096Y-103173659D01*
X169401097Y-103173663D01*
X169483102Y-103349522D01*
X169500965Y-103387830D01*
X169500967Y-103387834D01*
X169577008Y-103496431D01*
X169636501Y-103581396D01*
X169636506Y-103581402D01*
X169758818Y-103703714D01*
X169792303Y-103765037D01*
X169787319Y-103834729D01*
X169745447Y-103890662D01*
X169714471Y-103907577D01*
X169582912Y-103956646D01*
X169582906Y-103956649D01*
X169467812Y-104042809D01*
X169467809Y-104042812D01*
X169381649Y-104157906D01*
X169381645Y-104157913D01*
X169331403Y-104292620D01*
X169331401Y-104292627D01*
X169325000Y-104352155D01*
X169325000Y-105000000D01*
X170241988Y-105000000D01*
X170209075Y-105057007D01*
X170175000Y-105184174D01*
X170175000Y-105315826D01*
X170209075Y-105442993D01*
X170241988Y-105500000D01*
X169325000Y-105500000D01*
X169325000Y-106147844D01*
X169331401Y-106207372D01*
X169331403Y-106207379D01*
X169381645Y-106342086D01*
X169381649Y-106342093D01*
X169467809Y-106457187D01*
X169467812Y-106457190D01*
X169582906Y-106543350D01*
X169582913Y-106543354D01*
X169717620Y-106593596D01*
X169717627Y-106593598D01*
X169777155Y-106599999D01*
X169777172Y-106600000D01*
X170425000Y-106600000D01*
X170425000Y-105683012D01*
X170482007Y-105715925D01*
X170609174Y-105750000D01*
X170740826Y-105750000D01*
X170867993Y-105715925D01*
X170925000Y-105683012D01*
X170925000Y-106600000D01*
X171572828Y-106600000D01*
X171572844Y-106599999D01*
X171632372Y-106593598D01*
X171632379Y-106593596D01*
X171767086Y-106543354D01*
X171767093Y-106543350D01*
X171882187Y-106457190D01*
X171882190Y-106457187D01*
X171968350Y-106342093D01*
X171968354Y-106342086D01*
X172018596Y-106207379D01*
X172018598Y-106207372D01*
X172024999Y-106147844D01*
X172025000Y-106147827D01*
X172025000Y-105500000D01*
X171108012Y-105500000D01*
X171140925Y-105442993D01*
X171175000Y-105315826D01*
X171175000Y-105184174D01*
X171140925Y-105057007D01*
X171108012Y-105000000D01*
X172025000Y-105000000D01*
X172025000Y-104352172D01*
X172024999Y-104352155D01*
X172018598Y-104292627D01*
X172018596Y-104292620D01*
X171968354Y-104157913D01*
X171968350Y-104157906D01*
X171882190Y-104042812D01*
X171882187Y-104042809D01*
X171767093Y-103956649D01*
X171767088Y-103956646D01*
X171635528Y-103907577D01*
X171579595Y-103865705D01*
X171555178Y-103800241D01*
X171570030Y-103731968D01*
X171591175Y-103703720D01*
X171713495Y-103581401D01*
X171849035Y-103387830D01*
X171948903Y-103173663D01*
X172010063Y-102945408D01*
X172030659Y-102710000D01*
X172010063Y-102474592D01*
X171951043Y-102254324D01*
X171948905Y-102246344D01*
X171948904Y-102246343D01*
X171948903Y-102246337D01*
X171849035Y-102032171D01*
X171847386Y-102029815D01*
X171713494Y-101838597D01*
X171546402Y-101671506D01*
X171546396Y-101671501D01*
X171360842Y-101541575D01*
X171317217Y-101486998D01*
X171310023Y-101417500D01*
X171341546Y-101355145D01*
X171360842Y-101338425D01*
X171408852Y-101304808D01*
X171546401Y-101208495D01*
X171713495Y-101041401D01*
X171849035Y-100847830D01*
X171948903Y-100633663D01*
X172010063Y-100405408D01*
X172030659Y-100170000D01*
X172010063Y-99934592D01*
X171948903Y-99706337D01*
X171849035Y-99492171D01*
X171713495Y-99298599D01*
X171713494Y-99298597D01*
X171546402Y-99131506D01*
X171546395Y-99131501D01*
X171352834Y-98995967D01*
X171352830Y-98995965D01*
X171352828Y-98995964D01*
X171138663Y-98896097D01*
X171138659Y-98896096D01*
X171138655Y-98896094D01*
X170910413Y-98834938D01*
X170910403Y-98834936D01*
X170675001Y-98814341D01*
X170674999Y-98814341D01*
X170439596Y-98834936D01*
X170439586Y-98834938D01*
X170211344Y-98896094D01*
X170211335Y-98896098D01*
X169997171Y-98995964D01*
X169997169Y-98995965D01*
X169803597Y-99131505D01*
X169636505Y-99298597D01*
X169500965Y-99492169D01*
X169500964Y-99492171D01*
X169401098Y-99706335D01*
X169401094Y-99706344D01*
X169339938Y-99934586D01*
X169339936Y-99934596D01*
X169319341Y-100169999D01*
X148050500Y-100169999D01*
X148050500Y-98599972D01*
X148057458Y-98559017D01*
X148085368Y-98479254D01*
X148085369Y-98479249D01*
X148105565Y-98300003D01*
X148105565Y-98299996D01*
X148085369Y-98120750D01*
X148085368Y-98120745D01*
X148025788Y-97950476D01*
X147929815Y-97797737D01*
X147802262Y-97670184D01*
X147649523Y-97574211D01*
X147479254Y-97514631D01*
X147479249Y-97514630D01*
X147300004Y-97494435D01*
X147299995Y-97494435D01*
X147205101Y-97505126D01*
X147136280Y-97493071D01*
X147084901Y-97445721D01*
X147067277Y-97378111D01*
X147089004Y-97311705D01*
X147103533Y-97294230D01*
X147976401Y-96421362D01*
X148037722Y-96387879D01*
X148050205Y-96385824D01*
X148054255Y-96385368D01*
X148224522Y-96325789D01*
X148377262Y-96229816D01*
X148504816Y-96102262D01*
X148600789Y-95949522D01*
X148660368Y-95779255D01*
X148660369Y-95779249D01*
X148680565Y-95600003D01*
X148680565Y-95599996D01*
X148660369Y-95420750D01*
X148660368Y-95420745D01*
X148600788Y-95250476D01*
X148504815Y-95097737D01*
X148377262Y-94970184D01*
X148224523Y-94874211D01*
X148054254Y-94814631D01*
X148054249Y-94814630D01*
X147875004Y-94794435D01*
X147874996Y-94794435D01*
X147695750Y-94814630D01*
X147695745Y-94814631D01*
X147525476Y-94874211D01*
X147372737Y-94970184D01*
X147245184Y-95097737D01*
X147149211Y-95250476D01*
X147089631Y-95420745D01*
X147089630Y-95420749D01*
X147070501Y-95590532D01*
X147043434Y-95654946D01*
X147034962Y-95664329D01*
X143050084Y-99649207D01*
X142988761Y-99682692D01*
X142919069Y-99677708D01*
X142896431Y-99666520D01*
X142749523Y-99574211D01*
X142579254Y-99514631D01*
X142579249Y-99514630D01*
X142400004Y-99494435D01*
X142399996Y-99494435D01*
X142220750Y-99514630D01*
X142220737Y-99514633D01*
X142050480Y-99574209D01*
X142015970Y-99595893D01*
X141948733Y-99614892D01*
X141884030Y-99595893D01*
X141849519Y-99574209D01*
X141679262Y-99514633D01*
X141679249Y-99514630D01*
X141500004Y-99494435D01*
X141499996Y-99494435D01*
X141320750Y-99514630D01*
X141320745Y-99514631D01*
X141150476Y-99574211D01*
X140997737Y-99670184D01*
X140870184Y-99797737D01*
X140774210Y-99950478D01*
X140714630Y-100120750D01*
X140709326Y-100167825D01*
X140682258Y-100232238D01*
X140673787Y-100241620D01*
X139677229Y-101238181D01*
X139615906Y-101271666D01*
X139589548Y-101274500D01*
X135944855Y-101274500D01*
X135878883Y-101255494D01*
X135749523Y-101174211D01*
X135579254Y-101114631D01*
X135579249Y-101114630D01*
X135400004Y-101094435D01*
X135399996Y-101094435D01*
X135220750Y-101114630D01*
X135220745Y-101114631D01*
X135050476Y-101174211D01*
X134897737Y-101270184D01*
X134770184Y-101397737D01*
X134674211Y-101550476D01*
X134614631Y-101720745D01*
X134614630Y-101720750D01*
X134594435Y-101899996D01*
X134594435Y-101900003D01*
X134614630Y-102079249D01*
X134614633Y-102079262D01*
X134651474Y-102184545D01*
X134655036Y-102254324D01*
X134620308Y-102314951D01*
X134558314Y-102347179D01*
X134534433Y-102349500D01*
X128862230Y-102349500D01*
X128795191Y-102329815D01*
X128774549Y-102313181D01*
X127553307Y-101091939D01*
X127530653Y-101055869D01*
X127528813Y-101056756D01*
X127525792Y-101050484D01*
X127525789Y-101050480D01*
X127525789Y-101050478D01*
X127429816Y-100897738D01*
X127302262Y-100770184D01*
X127149523Y-100674211D01*
X126979254Y-100614631D01*
X126979249Y-100614630D01*
X126800004Y-100594435D01*
X126799996Y-100594435D01*
X126620750Y-100614630D01*
X126620745Y-100614631D01*
X126450476Y-100674211D01*
X126297737Y-100770184D01*
X126170184Y-100897737D01*
X126074211Y-101050476D01*
X126014631Y-101220745D01*
X126014630Y-101220750D01*
X125994435Y-101399996D01*
X119000500Y-101399996D01*
X119000500Y-89399996D01*
X127794435Y-89399996D01*
X127794435Y-89400003D01*
X127814630Y-89579249D01*
X127814631Y-89579254D01*
X127874211Y-89749523D01*
X127970184Y-89902262D01*
X128097738Y-90029816D01*
X128250478Y-90125789D01*
X128417704Y-90184303D01*
X128464428Y-90213663D01*
X130315139Y-92064374D01*
X130315149Y-92064385D01*
X130319479Y-92068715D01*
X130319480Y-92068716D01*
X130431284Y-92180520D01*
X130518095Y-92230639D01*
X130518097Y-92230641D01*
X130556151Y-92252611D01*
X130568215Y-92259577D01*
X130720943Y-92300501D01*
X130720946Y-92300501D01*
X130886653Y-92300501D01*
X130886669Y-92300500D01*
X140350902Y-92300500D01*
X140417941Y-92320185D01*
X140463696Y-92372989D01*
X140473640Y-92442147D01*
X140444615Y-92505703D01*
X140438583Y-92512181D01*
X138187584Y-94763181D01*
X138126261Y-94796666D01*
X138099903Y-94799500D01*
X129182412Y-94799500D01*
X129115373Y-94779815D01*
X129105097Y-94772445D01*
X129102263Y-94770185D01*
X129102262Y-94770184D01*
X129045496Y-94734515D01*
X128949523Y-94674211D01*
X128779254Y-94614631D01*
X128779249Y-94614630D01*
X128600004Y-94594435D01*
X128599996Y-94594435D01*
X128420750Y-94614630D01*
X128420745Y-94614631D01*
X128250476Y-94674211D01*
X128097737Y-94770184D01*
X127970184Y-94897737D01*
X127874211Y-95050476D01*
X127814631Y-95220745D01*
X127814630Y-95220750D01*
X127794435Y-95399996D01*
X127794435Y-95400003D01*
X127814630Y-95579249D01*
X127814631Y-95579254D01*
X127874211Y-95749523D01*
X127970184Y-95902262D01*
X128097738Y-96029816D01*
X128250478Y-96125789D01*
X128420745Y-96185368D01*
X128420750Y-96185369D01*
X128599996Y-96205565D01*
X128600000Y-96205565D01*
X128600004Y-96205565D01*
X128779249Y-96185369D01*
X128779252Y-96185368D01*
X128779255Y-96185368D01*
X128949522Y-96125789D01*
X129102262Y-96029816D01*
X129102267Y-96029810D01*
X129105097Y-96027555D01*
X129107275Y-96026665D01*
X129108158Y-96026111D01*
X129108255Y-96026265D01*
X129169783Y-96001145D01*
X129182412Y-96000500D01*
X138313331Y-96000500D01*
X138313347Y-96000501D01*
X138320943Y-96000501D01*
X138479054Y-96000501D01*
X138479057Y-96000501D01*
X138631785Y-95959577D01*
X138681904Y-95930639D01*
X138768716Y-95880520D01*
X138880520Y-95768716D01*
X138880520Y-95768714D01*
X138890728Y-95758507D01*
X138890730Y-95758504D01*
X141318535Y-93330698D01*
X141379856Y-93297215D01*
X141392311Y-93295163D01*
X141479255Y-93285368D01*
X141649522Y-93225789D01*
X141802262Y-93129816D01*
X141929816Y-93002262D01*
X142025789Y-92849522D01*
X142085368Y-92679255D01*
X142085369Y-92679249D01*
X142105565Y-92500003D01*
X142105565Y-92499996D01*
X142085369Y-92320750D01*
X142085366Y-92320737D01*
X142023489Y-92143905D01*
X142025637Y-92143153D01*
X142016035Y-92084872D01*
X142024392Y-92056411D01*
X142023489Y-92056095D01*
X142064113Y-91939999D01*
X169369341Y-91939999D01*
X169369341Y-91940000D01*
X169389936Y-92175403D01*
X169389938Y-92175413D01*
X169451094Y-92403655D01*
X169451096Y-92403659D01*
X169451097Y-92403663D01*
X169498679Y-92505703D01*
X169550965Y-92617830D01*
X169550967Y-92617834D01*
X169593975Y-92679255D01*
X169686505Y-92811401D01*
X169853599Y-92978495D01*
X169887542Y-93002262D01*
X170047165Y-93114032D01*
X170047167Y-93114033D01*
X170047170Y-93114035D01*
X170261337Y-93213903D01*
X170489592Y-93275063D01*
X170677918Y-93291539D01*
X170724999Y-93295659D01*
X170725000Y-93295659D01*
X170725001Y-93295659D01*
X170764234Y-93292226D01*
X170960408Y-93275063D01*
X171188663Y-93213903D01*
X171402830Y-93114035D01*
X171596401Y-92978495D01*
X171763495Y-92811401D01*
X171899035Y-92617830D01*
X171998903Y-92403663D01*
X172060063Y-92175408D01*
X172080659Y-91940000D01*
X172060063Y-91704592D01*
X171998903Y-91476337D01*
X171899035Y-91262171D01*
X171784680Y-91098855D01*
X171763496Y-91068600D01*
X171758077Y-91063181D01*
X171641567Y-90946671D01*
X171608084Y-90885351D01*
X171613068Y-90815659D01*
X171654939Y-90759725D01*
X171685915Y-90742810D01*
X171817331Y-90693796D01*
X171932546Y-90607546D01*
X172018796Y-90492331D01*
X172069091Y-90357483D01*
X172075500Y-90297873D01*
X172075499Y-88502128D01*
X172069091Y-88442517D01*
X172053234Y-88400003D01*
X172018797Y-88307671D01*
X172018793Y-88307664D01*
X171932547Y-88192455D01*
X171932544Y-88192452D01*
X171817335Y-88106206D01*
X171817328Y-88106202D01*
X171682482Y-88055908D01*
X171682483Y-88055908D01*
X171622883Y-88049501D01*
X171622881Y-88049500D01*
X171622873Y-88049500D01*
X171622864Y-88049500D01*
X169827129Y-88049500D01*
X169827123Y-88049501D01*
X169767516Y-88055908D01*
X169632671Y-88106202D01*
X169632664Y-88106206D01*
X169517455Y-88192452D01*
X169517452Y-88192455D01*
X169431206Y-88307664D01*
X169431202Y-88307671D01*
X169380908Y-88442517D01*
X169374501Y-88502116D01*
X169374501Y-88502123D01*
X169374500Y-88502135D01*
X169374500Y-90297870D01*
X169374501Y-90297876D01*
X169380908Y-90357483D01*
X169431202Y-90492328D01*
X169431206Y-90492335D01*
X169517452Y-90607544D01*
X169517455Y-90607547D01*
X169632664Y-90693793D01*
X169632671Y-90693797D01*
X169764081Y-90742810D01*
X169820015Y-90784681D01*
X169844432Y-90850145D01*
X169829580Y-90918418D01*
X169808430Y-90946673D01*
X169686503Y-91068600D01*
X169550965Y-91262169D01*
X169550964Y-91262171D01*
X169451098Y-91476335D01*
X169451094Y-91476344D01*
X169389938Y-91704586D01*
X169389936Y-91704596D01*
X169369341Y-91939999D01*
X142064113Y-91939999D01*
X142085366Y-91879262D01*
X142085369Y-91879249D01*
X142105565Y-91700003D01*
X142105565Y-91699996D01*
X142085369Y-91520750D01*
X142085368Y-91520745D01*
X142025788Y-91350476D01*
X141929815Y-91197737D01*
X141802262Y-91070184D01*
X141649523Y-90974211D01*
X141479254Y-90914631D01*
X141479249Y-90914630D01*
X141300004Y-90894435D01*
X141299996Y-90894435D01*
X141120750Y-90914630D01*
X141120745Y-90914631D01*
X140950476Y-90974211D01*
X140797736Y-91070185D01*
X140794903Y-91072445D01*
X140792724Y-91073334D01*
X140791842Y-91073889D01*
X140791744Y-91073734D01*
X140730217Y-91098855D01*
X140717588Y-91099500D01*
X131100097Y-91099500D01*
X131033058Y-91079815D01*
X131012416Y-91063181D01*
X129441884Y-89492649D01*
X129408399Y-89431326D01*
X129405565Y-89404968D01*
X129405565Y-89399997D01*
X129385369Y-89220750D01*
X129385368Y-89220745D01*
X129325788Y-89050476D01*
X129286582Y-88988080D01*
X129229816Y-88897738D01*
X129102262Y-88770184D01*
X129069379Y-88749522D01*
X128949523Y-88674211D01*
X128779254Y-88614631D01*
X128779249Y-88614630D01*
X128600004Y-88594435D01*
X128599996Y-88594435D01*
X128420750Y-88614630D01*
X128420745Y-88614631D01*
X128250476Y-88674211D01*
X128097737Y-88770184D01*
X127970184Y-88897737D01*
X127874211Y-89050476D01*
X127814631Y-89220745D01*
X127814630Y-89220750D01*
X127794435Y-89399996D01*
X119000500Y-89399996D01*
X119000500Y-88399996D01*
X145494435Y-88399996D01*
X145494435Y-88400003D01*
X145514630Y-88579249D01*
X145514631Y-88579254D01*
X145574211Y-88749523D01*
X145667341Y-88897737D01*
X145670184Y-88902262D01*
X145797738Y-89029816D01*
X145950478Y-89125789D01*
X146120745Y-89185368D01*
X146120750Y-89185369D01*
X146299996Y-89205565D01*
X146300000Y-89205565D01*
X146300004Y-89205565D01*
X146479249Y-89185369D01*
X146479252Y-89185368D01*
X146479255Y-89185368D01*
X146649522Y-89125789D01*
X146802262Y-89029816D01*
X146802267Y-89029810D01*
X146805097Y-89027555D01*
X146807275Y-89026665D01*
X146808158Y-89026111D01*
X146808255Y-89026265D01*
X146869783Y-89001145D01*
X146882412Y-89000500D01*
X165317588Y-89000500D01*
X165384627Y-89020185D01*
X165394903Y-89027555D01*
X165397736Y-89029814D01*
X165397738Y-89029816D01*
X165550478Y-89125789D01*
X165720745Y-89185368D01*
X165720750Y-89185369D01*
X165899996Y-89205565D01*
X165900000Y-89205565D01*
X165900004Y-89205565D01*
X166079249Y-89185369D01*
X166079252Y-89185368D01*
X166079255Y-89185368D01*
X166249522Y-89125789D01*
X166402262Y-89029816D01*
X166529816Y-88902262D01*
X166625789Y-88749522D01*
X166685368Y-88579255D01*
X166685369Y-88579249D01*
X166705565Y-88400003D01*
X166705565Y-88399996D01*
X166685369Y-88220750D01*
X166685368Y-88220745D01*
X166645288Y-88106204D01*
X166625789Y-88050478D01*
X166625174Y-88049500D01*
X166529815Y-87897737D01*
X166402262Y-87770184D01*
X166249523Y-87674211D01*
X166079254Y-87614631D01*
X166079249Y-87614630D01*
X165900004Y-87594435D01*
X165899996Y-87594435D01*
X165720750Y-87614630D01*
X165720745Y-87614631D01*
X165550476Y-87674211D01*
X165397736Y-87770185D01*
X165394903Y-87772445D01*
X165392724Y-87773334D01*
X165391842Y-87773889D01*
X165391744Y-87773734D01*
X165330217Y-87798855D01*
X165317588Y-87799500D01*
X149903476Y-87799500D01*
X149836437Y-87779815D01*
X149790682Y-87727011D01*
X149780738Y-87657853D01*
X149809763Y-87594297D01*
X149837504Y-87570506D01*
X149902262Y-87529816D01*
X150029816Y-87402262D01*
X150125789Y-87249522D01*
X150185368Y-87079255D01*
X150190672Y-87032173D01*
X150217737Y-86967763D01*
X150226201Y-86958387D01*
X159058379Y-78126209D01*
X159119700Y-78092726D01*
X159132156Y-78090674D01*
X159179255Y-78085368D01*
X159349522Y-78025789D01*
X159502262Y-77929816D01*
X159629816Y-77802262D01*
X159725789Y-77649522D01*
X159785368Y-77479255D01*
X159796386Y-77381467D01*
X159805565Y-77300003D01*
X159805565Y-77299996D01*
X159785369Y-77120750D01*
X159785368Y-77120745D01*
X159762202Y-77054541D01*
X159725789Y-76950478D01*
X159706638Y-76920000D01*
X159629815Y-76797737D01*
X159502262Y-76670184D01*
X159501969Y-76670000D01*
X169049659Y-76670000D01*
X169068975Y-76866129D01*
X169068976Y-76866132D01*
X169107226Y-76992226D01*
X169126188Y-77054733D01*
X169219086Y-77228532D01*
X169222473Y-77233601D01*
X169220836Y-77234694D01*
X169244596Y-77290663D01*
X169232795Y-77359529D01*
X169222109Y-77376156D01*
X169222473Y-77376399D01*
X169219086Y-77381467D01*
X169126188Y-77555266D01*
X169068975Y-77743870D01*
X169049659Y-77940000D01*
X169068975Y-78136129D01*
X169126188Y-78324733D01*
X169219086Y-78498532D01*
X169222473Y-78503601D01*
X169220836Y-78504694D01*
X169244596Y-78560663D01*
X169232795Y-78629529D01*
X169222109Y-78646156D01*
X169222473Y-78646399D01*
X169219086Y-78651467D01*
X169126188Y-78825266D01*
X169068975Y-79013870D01*
X169049659Y-79210000D01*
X169068975Y-79406129D01*
X169126188Y-79594733D01*
X169219086Y-79768532D01*
X169222473Y-79773601D01*
X169220836Y-79774694D01*
X169244596Y-79830663D01*
X169232795Y-79899529D01*
X169222109Y-79916156D01*
X169222473Y-79916399D01*
X169219086Y-79921467D01*
X169126188Y-80095266D01*
X169068975Y-80283870D01*
X169049659Y-80480000D01*
X169068975Y-80676129D01*
X169126188Y-80864733D01*
X169219086Y-81038532D01*
X169222473Y-81043601D01*
X169220836Y-81044694D01*
X169244596Y-81100663D01*
X169232795Y-81169529D01*
X169222109Y-81186156D01*
X169222473Y-81186399D01*
X169219086Y-81191467D01*
X169126188Y-81365266D01*
X169068975Y-81553870D01*
X169049659Y-81750000D01*
X169068975Y-81946129D01*
X169126188Y-82134733D01*
X169219086Y-82308532D01*
X169219090Y-82308539D01*
X169344116Y-82460883D01*
X169496460Y-82585909D01*
X169496467Y-82585913D01*
X169670266Y-82678811D01*
X169670269Y-82678811D01*
X169670273Y-82678814D01*
X169858868Y-82736024D01*
X170055000Y-82755341D01*
X170251132Y-82736024D01*
X170439727Y-82678814D01*
X170441853Y-82677677D01*
X170443095Y-82677418D01*
X170445355Y-82676483D01*
X170445532Y-82676911D01*
X170510254Y-82663435D01*
X170574615Y-82687767D01*
X170582669Y-82693796D01*
X170582672Y-82693797D01*
X170717517Y-82744091D01*
X170717516Y-82744091D01*
X170724444Y-82744835D01*
X170777127Y-82750500D01*
X171872872Y-82750499D01*
X171932483Y-82744091D01*
X172067331Y-82693796D01*
X172182546Y-82607546D01*
X172268796Y-82492331D01*
X172319091Y-82357483D01*
X172325500Y-82297873D01*
X172325499Y-81202128D01*
X172319091Y-81142517D01*
X172303480Y-81100663D01*
X172268797Y-81007671D01*
X172268793Y-81007664D01*
X172262439Y-80999176D01*
X172238021Y-80933712D01*
X172251505Y-80870369D01*
X172251018Y-80870167D01*
X172252110Y-80867530D01*
X172252349Y-80866408D01*
X172253347Y-80864539D01*
X172294160Y-80730000D01*
X171534618Y-80730000D01*
X171585064Y-80679554D01*
X171627851Y-80605445D01*
X171650000Y-80522787D01*
X171650000Y-80437213D01*
X171627851Y-80354555D01*
X171585064Y-80280446D01*
X171534618Y-80230000D01*
X171575000Y-80230000D01*
X172294160Y-80230000D01*
X172294160Y-80229999D01*
X172253347Y-80095458D01*
X172160497Y-79921747D01*
X172157111Y-79916680D01*
X172158665Y-79915641D01*
X172134759Y-79859361D01*
X172146547Y-79790493D01*
X172157441Y-79773540D01*
X172157111Y-79773320D01*
X172160497Y-79768252D01*
X172253347Y-79594541D01*
X172294160Y-79460000D01*
X171575000Y-79460000D01*
X171575000Y-80230000D01*
X171534618Y-80230000D01*
X171524554Y-80219936D01*
X171450445Y-80177149D01*
X171367787Y-80155000D01*
X171282213Y-80155000D01*
X171199555Y-80177149D01*
X171125446Y-80219936D01*
X171075000Y-80270382D01*
X171075000Y-79419618D01*
X171125446Y-79470064D01*
X171199555Y-79512851D01*
X171282213Y-79535000D01*
X171367787Y-79535000D01*
X171450445Y-79512851D01*
X171524554Y-79470064D01*
X171585064Y-79409554D01*
X171627851Y-79335445D01*
X171650000Y-79252787D01*
X171650000Y-79167213D01*
X171627851Y-79084555D01*
X171585064Y-79010446D01*
X171534618Y-78960000D01*
X172294160Y-78960000D01*
X172294160Y-78959999D01*
X172253347Y-78825458D01*
X172160496Y-78651746D01*
X172157110Y-78646678D01*
X172158784Y-78645559D01*
X172135081Y-78589746D01*
X172146874Y-78520879D01*
X172157839Y-78503818D01*
X172157523Y-78503607D01*
X172160904Y-78498544D01*
X172160910Y-78498538D01*
X172253814Y-78324727D01*
X172311024Y-78136132D01*
X172330341Y-77940000D01*
X172311024Y-77743868D01*
X172253814Y-77555273D01*
X172160910Y-77381462D01*
X172160906Y-77381457D01*
X172157526Y-77376399D01*
X172159044Y-77375384D01*
X172135081Y-77318962D01*
X172146872Y-77250094D01*
X172157492Y-77233574D01*
X172157111Y-77233320D01*
X172160497Y-77228252D01*
X172253347Y-77054541D01*
X172294160Y-76920000D01*
X171534618Y-76920000D01*
X171585064Y-76869554D01*
X171627851Y-76795445D01*
X171650000Y-76712787D01*
X171650000Y-76627213D01*
X171627851Y-76544555D01*
X171585064Y-76470446D01*
X171534618Y-76420000D01*
X171575000Y-76420000D01*
X172294160Y-76420000D01*
X172294160Y-76419999D01*
X172253347Y-76285458D01*
X172160496Y-76111746D01*
X172160492Y-76111739D01*
X172035528Y-75959471D01*
X171883260Y-75834507D01*
X171883253Y-75834503D01*
X171709541Y-75741652D01*
X171575000Y-75700839D01*
X171575000Y-76420000D01*
X171534618Y-76420000D01*
X171524554Y-76409936D01*
X171450445Y-76367149D01*
X171367787Y-76345000D01*
X171282213Y-76345000D01*
X171199555Y-76367149D01*
X171125446Y-76409936D01*
X171075000Y-76460382D01*
X171075000Y-75700839D01*
X171074999Y-75700839D01*
X170940458Y-75741652D01*
X170766742Y-75834505D01*
X170761673Y-75837893D01*
X170760556Y-75836221D01*
X170704715Y-75859921D01*
X170635851Y-75848111D01*
X170618811Y-75837158D01*
X170618601Y-75837473D01*
X170613532Y-75834086D01*
X170439733Y-75741188D01*
X170439727Y-75741186D01*
X170251132Y-75683976D01*
X170251129Y-75683975D01*
X170055000Y-75664659D01*
X169858870Y-75683975D01*
X169670266Y-75741188D01*
X169496467Y-75834086D01*
X169496460Y-75834090D01*
X169344116Y-75959116D01*
X169219090Y-76111460D01*
X169219086Y-76111467D01*
X169126188Y-76285266D01*
X169068975Y-76473870D01*
X169049659Y-76670000D01*
X159501969Y-76670000D01*
X159349523Y-76574211D01*
X159179254Y-76514631D01*
X159179249Y-76514630D01*
X159000004Y-76494435D01*
X158999996Y-76494435D01*
X158820750Y-76514630D01*
X158820745Y-76514631D01*
X158650476Y-76574211D01*
X158497737Y-76670184D01*
X158370184Y-76797737D01*
X158274210Y-76950478D01*
X158214630Y-77120750D01*
X158209326Y-77167825D01*
X158182258Y-77232239D01*
X158173787Y-77241621D01*
X149341621Y-86073787D01*
X149280298Y-86107272D01*
X149267825Y-86109326D01*
X149220750Y-86114630D01*
X149050478Y-86174210D01*
X148897737Y-86270184D01*
X148770184Y-86397737D01*
X148674211Y-86550476D01*
X148614631Y-86720745D01*
X148614630Y-86720750D01*
X148594435Y-86899996D01*
X148594435Y-86900003D01*
X148614630Y-87079249D01*
X148614631Y-87079254D01*
X148674211Y-87249523D01*
X148770184Y-87402262D01*
X148897738Y-87529816D01*
X148962496Y-87570506D01*
X149008787Y-87622841D01*
X149019435Y-87691894D01*
X148991060Y-87755743D01*
X148932670Y-87794115D01*
X148896524Y-87799500D01*
X146882412Y-87799500D01*
X146815373Y-87779815D01*
X146805097Y-87772445D01*
X146802263Y-87770185D01*
X146802262Y-87770184D01*
X146699422Y-87705565D01*
X146649523Y-87674211D01*
X146479254Y-87614631D01*
X146479249Y-87614630D01*
X146300004Y-87594435D01*
X146299996Y-87594435D01*
X146120750Y-87614630D01*
X146120745Y-87614631D01*
X145950476Y-87674211D01*
X145797737Y-87770184D01*
X145670184Y-87897737D01*
X145574211Y-88050476D01*
X145514631Y-88220745D01*
X145514630Y-88220750D01*
X145494435Y-88399996D01*
X119000500Y-88399996D01*
X119000500Y-73899996D01*
X135694435Y-73899996D01*
X135694435Y-73900003D01*
X135714630Y-74079249D01*
X135714631Y-74079254D01*
X135774211Y-74249523D01*
X135870184Y-74402262D01*
X135997738Y-74529816D01*
X136150478Y-74625789D01*
X136320745Y-74685368D01*
X136320750Y-74685369D01*
X136499996Y-74705565D01*
X136500000Y-74705565D01*
X136500004Y-74705565D01*
X136679249Y-74685369D01*
X136679252Y-74685368D01*
X136679255Y-74685368D01*
X136849522Y-74625789D01*
X137002262Y-74529816D01*
X137002267Y-74529810D01*
X137005097Y-74527555D01*
X137007275Y-74526665D01*
X137008158Y-74526111D01*
X137008255Y-74526265D01*
X137069783Y-74501145D01*
X137082412Y-74500500D01*
X138917588Y-74500500D01*
X138984627Y-74520185D01*
X138994903Y-74527555D01*
X138997736Y-74529814D01*
X138997738Y-74529816D01*
X139150478Y-74625789D01*
X139320745Y-74685368D01*
X139320750Y-74685369D01*
X139499996Y-74705565D01*
X139500000Y-74705565D01*
X139500004Y-74705565D01*
X139679249Y-74685369D01*
X139679252Y-74685368D01*
X139679255Y-74685368D01*
X139849522Y-74625789D01*
X140002262Y-74529816D01*
X140129816Y-74402262D01*
X140225789Y-74249522D01*
X140285368Y-74079255D01*
X140305193Y-73903301D01*
X140305565Y-73900003D01*
X140305565Y-73899996D01*
X140285369Y-73720750D01*
X140285368Y-73720745D01*
X140284543Y-73718386D01*
X140225789Y-73550478D01*
X140129816Y-73397738D01*
X140002262Y-73270184D01*
X139943226Y-73233089D01*
X139849523Y-73174211D01*
X139679254Y-73114631D01*
X139679249Y-73114630D01*
X139500004Y-73094435D01*
X139499996Y-73094435D01*
X139320750Y-73114630D01*
X139320745Y-73114631D01*
X139150476Y-73174211D01*
X138997736Y-73270185D01*
X138994903Y-73272445D01*
X138992724Y-73273334D01*
X138991842Y-73273889D01*
X138991744Y-73273734D01*
X138930217Y-73298855D01*
X138917588Y-73299500D01*
X137082412Y-73299500D01*
X137015373Y-73279815D01*
X137005097Y-73272445D01*
X137002263Y-73270185D01*
X137002262Y-73270184D01*
X136943210Y-73233079D01*
X136849523Y-73174211D01*
X136679254Y-73114631D01*
X136679249Y-73114630D01*
X136500004Y-73094435D01*
X136499996Y-73094435D01*
X136320750Y-73114630D01*
X136320745Y-73114631D01*
X136150476Y-73174211D01*
X135997737Y-73270184D01*
X135870184Y-73397737D01*
X135774211Y-73550476D01*
X135714631Y-73720745D01*
X135714630Y-73720750D01*
X135694435Y-73899996D01*
X119000500Y-73899996D01*
X119000500Y-70250000D01*
X119994696Y-70250000D01*
X120013898Y-70616404D01*
X120071295Y-70978794D01*
X120131495Y-71203464D01*
X120166260Y-71333206D01*
X120297746Y-71675739D01*
X120464320Y-72002656D01*
X120664147Y-72310364D01*
X120766492Y-72436749D01*
X120895051Y-72595506D01*
X121154494Y-72854949D01*
X121154498Y-72854952D01*
X121439635Y-73085852D01*
X121747343Y-73285679D01*
X121747348Y-73285682D01*
X122074264Y-73452255D01*
X122416801Y-73583742D01*
X122771206Y-73678705D01*
X123133596Y-73736102D01*
X123479734Y-73754241D01*
X123499999Y-73755304D01*
X123500000Y-73755304D01*
X123500001Y-73755304D01*
X123519203Y-73754297D01*
X123866404Y-73736102D01*
X124228794Y-73678705D01*
X124583199Y-73583742D01*
X124925736Y-73452255D01*
X125252652Y-73285682D01*
X125560366Y-73085851D01*
X125617243Y-73039793D01*
X141681499Y-73039793D01*
X141719947Y-73233079D01*
X141719950Y-73233089D01*
X141795364Y-73415157D01*
X141795371Y-73415170D01*
X141904860Y-73579031D01*
X141904863Y-73579035D01*
X142044214Y-73718386D01*
X142044218Y-73718389D01*
X142208079Y-73827878D01*
X142208092Y-73827885D01*
X142382203Y-73900003D01*
X142390165Y-73903301D01*
X142390169Y-73903301D01*
X142390170Y-73903302D01*
X142583456Y-73941750D01*
X142583459Y-73941750D01*
X142780543Y-73941750D01*
X142910582Y-73915882D01*
X142973835Y-73903301D01*
X143155914Y-73827882D01*
X143319782Y-73718389D01*
X143459139Y-73579032D01*
X143568632Y-73415164D01*
X143575851Y-73397737D01*
X143624695Y-73279815D01*
X143644051Y-73233085D01*
X143667613Y-73114631D01*
X143682500Y-73039793D01*
X143682500Y-72493738D01*
X143702185Y-72426699D01*
X143754989Y-72380944D01*
X143824147Y-72371000D01*
X143868500Y-72386350D01*
X143887865Y-72397531D01*
X144034234Y-72436750D01*
X144034236Y-72436750D01*
X144185764Y-72436750D01*
X144185766Y-72436750D01*
X144332135Y-72397531D01*
X144463365Y-72321765D01*
X144570515Y-72214615D01*
X144646281Y-72083385D01*
X144685500Y-71937016D01*
X144685500Y-71785484D01*
X149314500Y-71785484D01*
X149314500Y-71937015D01*
X149353719Y-72083386D01*
X149391602Y-72149000D01*
X149429485Y-72214615D01*
X149536635Y-72321765D01*
X149667865Y-72397531D01*
X149814234Y-72436750D01*
X149814236Y-72436750D01*
X149965764Y-72436750D01*
X149965766Y-72436750D01*
X150112135Y-72397531D01*
X150131499Y-72386350D01*
X150199399Y-72369878D01*
X150265426Y-72392730D01*
X150308617Y-72447651D01*
X150317500Y-72493738D01*
X150317500Y-73039791D01*
X150317500Y-73039793D01*
X150317499Y-73039793D01*
X150355947Y-73233079D01*
X150355950Y-73233089D01*
X150431364Y-73415157D01*
X150431371Y-73415170D01*
X150540860Y-73579031D01*
X150540863Y-73579035D01*
X150680214Y-73718386D01*
X150680218Y-73718389D01*
X150844079Y-73827878D01*
X150844092Y-73827885D01*
X151018203Y-73900003D01*
X151026165Y-73903301D01*
X151026169Y-73903301D01*
X151026170Y-73903302D01*
X151219456Y-73941750D01*
X151219459Y-73941750D01*
X151416543Y-73941750D01*
X151546582Y-73915882D01*
X151609835Y-73903301D01*
X151791914Y-73827882D01*
X151955782Y-73718389D01*
X152095139Y-73579032D01*
X152204632Y-73415164D01*
X152211851Y-73397737D01*
X152260695Y-73279815D01*
X152280051Y-73233085D01*
X152303613Y-73114631D01*
X152318500Y-73039793D01*
X152318500Y-71742706D01*
X152280052Y-71549420D01*
X152280051Y-71549419D01*
X152280051Y-71549415D01*
X152280049Y-71549410D01*
X152204635Y-71367342D01*
X152204628Y-71367329D01*
X152095139Y-71203468D01*
X152095136Y-71203464D01*
X151955785Y-71064113D01*
X151955781Y-71064110D01*
X151791920Y-70954621D01*
X151791907Y-70954614D01*
X151609839Y-70879200D01*
X151609829Y-70879197D01*
X151416543Y-70840750D01*
X151416541Y-70840750D01*
X151219459Y-70840750D01*
X151219457Y-70840750D01*
X151026170Y-70879197D01*
X151026160Y-70879200D01*
X150844092Y-70954614D01*
X150844079Y-70954621D01*
X150680218Y-71064110D01*
X150680214Y-71064113D01*
X150540863Y-71203464D01*
X150540860Y-71203468D01*
X150427983Y-71372401D01*
X150426238Y-71371235D01*
X150383944Y-71414281D01*
X150315804Y-71429732D01*
X150250128Y-71405891D01*
X150248074Y-71404349D01*
X150243365Y-71400735D01*
X150112136Y-71324969D01*
X150038950Y-71305359D01*
X149965766Y-71285750D01*
X149814234Y-71285750D01*
X149667863Y-71324969D01*
X149536635Y-71400735D01*
X149536632Y-71400737D01*
X149429487Y-71507882D01*
X149429485Y-71507885D01*
X149353719Y-71639113D01*
X149314500Y-71785484D01*
X144685500Y-71785484D01*
X144646281Y-71639115D01*
X144570515Y-71507885D01*
X144463365Y-71400735D01*
X144397750Y-71362852D01*
X144332136Y-71324969D01*
X144258950Y-71305359D01*
X144185766Y-71285750D01*
X144034234Y-71285750D01*
X143887863Y-71324969D01*
X143756627Y-71400739D01*
X143751920Y-71404352D01*
X143686751Y-71429545D01*
X143618306Y-71415505D01*
X143573293Y-71371549D01*
X143572017Y-71372402D01*
X143459139Y-71203467D01*
X143319785Y-71064113D01*
X143319781Y-71064110D01*
X143155920Y-70954621D01*
X143155907Y-70954614D01*
X142973839Y-70879200D01*
X142973829Y-70879197D01*
X142780543Y-70840750D01*
X142780541Y-70840750D01*
X142583459Y-70840750D01*
X142583457Y-70840750D01*
X142390170Y-70879197D01*
X142390160Y-70879200D01*
X142208092Y-70954614D01*
X142208079Y-70954621D01*
X142044218Y-71064110D01*
X142044214Y-71064113D01*
X141904863Y-71203464D01*
X141904860Y-71203468D01*
X141795371Y-71367329D01*
X141795364Y-71367342D01*
X141719950Y-71549410D01*
X141719947Y-71549420D01*
X141681500Y-71742706D01*
X141681500Y-71742709D01*
X141681500Y-73039791D01*
X141681500Y-73039793D01*
X141681499Y-73039793D01*
X125617243Y-73039793D01*
X125845506Y-72854949D01*
X126104949Y-72595506D01*
X126335851Y-72310366D01*
X126535682Y-72002652D01*
X126702255Y-71675736D01*
X126833742Y-71333199D01*
X126928705Y-70978794D01*
X126986102Y-70616404D01*
X127005304Y-70250000D01*
X166994696Y-70250000D01*
X167013898Y-70616404D01*
X167071295Y-70978794D01*
X167131495Y-71203464D01*
X167166260Y-71333206D01*
X167297746Y-71675739D01*
X167464320Y-72002656D01*
X167664147Y-72310364D01*
X167766492Y-72436749D01*
X167895051Y-72595506D01*
X168154494Y-72854949D01*
X168154498Y-72854952D01*
X168439635Y-73085852D01*
X168747343Y-73285679D01*
X168747348Y-73285682D01*
X169074264Y-73452255D01*
X169416801Y-73583742D01*
X169771206Y-73678705D01*
X170133596Y-73736102D01*
X170479734Y-73754241D01*
X170499999Y-73755304D01*
X170500000Y-73755304D01*
X170500001Y-73755304D01*
X170519203Y-73754297D01*
X170866404Y-73736102D01*
X171228794Y-73678705D01*
X171583199Y-73583742D01*
X171925736Y-73452255D01*
X172252652Y-73285682D01*
X172560366Y-73085851D01*
X172845506Y-72854949D01*
X173104949Y-72595506D01*
X173335851Y-72310366D01*
X173535682Y-72002652D01*
X173702255Y-71675736D01*
X173833742Y-71333199D01*
X173928705Y-70978794D01*
X173986102Y-70616404D01*
X174005304Y-70250000D01*
X173986102Y-69883596D01*
X173928705Y-69521206D01*
X173833742Y-69166801D01*
X173702255Y-68824264D01*
X173535682Y-68497348D01*
X173335851Y-68189634D01*
X173104949Y-67904494D01*
X172845506Y-67645051D01*
X172803765Y-67611250D01*
X172560364Y-67414147D01*
X172252656Y-67214320D01*
X171925739Y-67047746D01*
X171583206Y-66916260D01*
X171583199Y-66916258D01*
X171228794Y-66821295D01*
X171228790Y-66821294D01*
X171228789Y-66821294D01*
X170866405Y-66763898D01*
X170500001Y-66744696D01*
X170499999Y-66744696D01*
X170133594Y-66763898D01*
X169771211Y-66821294D01*
X169771209Y-66821294D01*
X169416793Y-66916260D01*
X169074260Y-67047746D01*
X168747343Y-67214320D01*
X168439635Y-67414147D01*
X168154498Y-67645047D01*
X168154490Y-67645054D01*
X167895054Y-67904490D01*
X167895047Y-67904498D01*
X167664147Y-68189635D01*
X167464320Y-68497343D01*
X167297746Y-68824260D01*
X167166260Y-69166793D01*
X167071294Y-69521209D01*
X167071294Y-69521211D01*
X167013898Y-69883596D01*
X166994696Y-70250000D01*
X127005304Y-70250000D01*
X126986102Y-69883596D01*
X126928705Y-69521206D01*
X126833742Y-69166801D01*
X126702255Y-68824264D01*
X126535682Y-68497348D01*
X126335851Y-68189634D01*
X126104949Y-67904494D01*
X126013209Y-67812754D01*
X141682000Y-67812754D01*
X141682000Y-67961250D01*
X142382000Y-67961250D01*
X142382000Y-68461250D01*
X141682000Y-68461250D01*
X141682000Y-68609745D01*
X141720427Y-68802931D01*
X141720430Y-68802943D01*
X141795807Y-68984921D01*
X141795814Y-68984934D01*
X141905248Y-69148712D01*
X141905251Y-69148716D01*
X142044533Y-69287998D01*
X142044537Y-69288001D01*
X142208315Y-69397435D01*
X142208328Y-69397442D01*
X142390308Y-69472819D01*
X142432000Y-69481112D01*
X142432000Y-68678238D01*
X142441940Y-68695455D01*
X142497795Y-68751310D01*
X142566204Y-68790806D01*
X142642504Y-68811250D01*
X142721496Y-68811250D01*
X142797796Y-68790806D01*
X142866205Y-68751310D01*
X142922060Y-68695455D01*
X142932000Y-68678238D01*
X142932000Y-69481112D01*
X142973690Y-69472819D01*
X142973692Y-69472819D01*
X143155671Y-69397442D01*
X143155684Y-69397435D01*
X143319462Y-69288001D01*
X143319466Y-69287998D01*
X143458748Y-69148716D01*
X143458751Y-69148712D01*
X143568185Y-68984934D01*
X143568192Y-68984921D01*
X143643569Y-68802943D01*
X143643572Y-68802931D01*
X143681989Y-68609793D01*
X150317499Y-68609793D01*
X150355947Y-68803079D01*
X150355950Y-68803089D01*
X150431364Y-68985157D01*
X150431371Y-68985170D01*
X150540860Y-69149031D01*
X150540863Y-69149035D01*
X150680214Y-69288386D01*
X150680218Y-69288389D01*
X150844079Y-69397878D01*
X150844092Y-69397885D01*
X151025001Y-69472819D01*
X151026165Y-69473301D01*
X151026169Y-69473301D01*
X151026170Y-69473302D01*
X151219456Y-69511750D01*
X151219459Y-69511750D01*
X151416543Y-69511750D01*
X151570567Y-69481112D01*
X151609835Y-69473301D01*
X151791914Y-69397882D01*
X151955782Y-69288389D01*
X152095139Y-69149032D01*
X152204632Y-68985164D01*
X152280051Y-68803085D01*
X152318500Y-68609791D01*
X152318500Y-67812709D01*
X152318500Y-67812706D01*
X152280052Y-67619420D01*
X152280051Y-67619419D01*
X152280051Y-67619415D01*
X152276669Y-67611250D01*
X152204635Y-67437342D01*
X152204628Y-67437329D01*
X152095139Y-67273468D01*
X152095136Y-67273464D01*
X151955785Y-67134113D01*
X151955781Y-67134110D01*
X151791920Y-67024621D01*
X151791907Y-67024614D01*
X151609839Y-66949200D01*
X151609829Y-66949197D01*
X151416543Y-66910750D01*
X151416541Y-66910750D01*
X151219459Y-66910750D01*
X151219457Y-66910750D01*
X151026170Y-66949197D01*
X151026160Y-66949200D01*
X150844092Y-67024614D01*
X150844079Y-67024621D01*
X150680218Y-67134110D01*
X150680214Y-67134113D01*
X150540863Y-67273464D01*
X150540860Y-67273468D01*
X150431371Y-67437329D01*
X150431364Y-67437342D01*
X150355950Y-67619410D01*
X150355947Y-67619420D01*
X150317500Y-67812706D01*
X150317500Y-67812709D01*
X150317500Y-68609791D01*
X150317500Y-68609793D01*
X150317499Y-68609793D01*
X143681989Y-68609793D01*
X143681999Y-68609745D01*
X143682000Y-68609742D01*
X143682000Y-68461250D01*
X142982000Y-68461250D01*
X142982000Y-67961250D01*
X143682000Y-67961250D01*
X143682000Y-67812758D01*
X143681999Y-67812754D01*
X143643572Y-67619568D01*
X143643569Y-67619556D01*
X143568192Y-67437578D01*
X143568185Y-67437565D01*
X143458751Y-67273787D01*
X143458748Y-67273783D01*
X143319466Y-67134501D01*
X143319462Y-67134498D01*
X143155684Y-67025064D01*
X143155671Y-67025057D01*
X142973691Y-66949679D01*
X142973683Y-66949677D01*
X142932000Y-66941385D01*
X142932000Y-67744261D01*
X142922060Y-67727045D01*
X142866205Y-67671190D01*
X142797796Y-67631694D01*
X142721496Y-67611250D01*
X142642504Y-67611250D01*
X142566204Y-67631694D01*
X142497795Y-67671190D01*
X142441940Y-67727045D01*
X142432000Y-67744261D01*
X142432000Y-66941386D01*
X142431999Y-66941385D01*
X142390316Y-66949677D01*
X142390308Y-66949679D01*
X142208328Y-67025057D01*
X142208315Y-67025064D01*
X142044537Y-67134498D01*
X142044533Y-67134501D01*
X141905251Y-67273783D01*
X141905248Y-67273787D01*
X141795814Y-67437565D01*
X141795807Y-67437578D01*
X141720430Y-67619556D01*
X141720427Y-67619568D01*
X141682000Y-67812754D01*
X126013209Y-67812754D01*
X125845506Y-67645051D01*
X125803765Y-67611250D01*
X125560364Y-67414147D01*
X125252656Y-67214320D01*
X124925739Y-67047746D01*
X124583206Y-66916260D01*
X124583199Y-66916258D01*
X124228794Y-66821295D01*
X124228790Y-66821294D01*
X124228789Y-66821294D01*
X123866405Y-66763898D01*
X123500001Y-66744696D01*
X123499999Y-66744696D01*
X123133594Y-66763898D01*
X122771211Y-66821294D01*
X122771209Y-66821294D01*
X122416793Y-66916260D01*
X122074260Y-67047746D01*
X121747343Y-67214320D01*
X121439635Y-67414147D01*
X121154498Y-67645047D01*
X121154490Y-67645054D01*
X120895054Y-67904490D01*
X120895047Y-67904498D01*
X120664147Y-68189635D01*
X120464320Y-68497343D01*
X120297746Y-68824260D01*
X120166260Y-69166793D01*
X120071294Y-69521209D01*
X120071294Y-69521211D01*
X120013898Y-69883596D01*
X119994696Y-70250000D01*
X119000500Y-70250000D01*
X119000500Y-65874500D01*
X119020185Y-65807461D01*
X119072989Y-65761706D01*
X119124500Y-65750500D01*
X174875500Y-65750500D01*
X174942539Y-65770185D01*
G37*
%TD.AperFunction*%
%TD*%
M02*
