%TF.GenerationSoftware,KiCad,Pcbnew,8.0.2-1*%
%TF.CreationDate,2024-07-15T21:16:38-07:00*%
%TF.ProjectId,TEMP_LOGGER,54454d50-5f4c-44f4-9747-45522e6b6963,rev?*%
%TF.SameCoordinates,Original*%
%TF.FileFunction,Copper,L1,Top*%
%TF.FilePolarity,Positive*%
%FSLAX46Y46*%
G04 Gerber Fmt 4.6, Leading zero omitted, Abs format (unit mm)*
G04 Created by KiCad (PCBNEW 8.0.2-1) date 2024-07-15 21:16:38*
%MOMM*%
%LPD*%
G01*
G04 APERTURE LIST*
G04 Aperture macros list*
%AMRoundRect*
0 Rectangle with rounded corners*
0 $1 Rounding radius*
0 $2 $3 $4 $5 $6 $7 $8 $9 X,Y pos of 4 corners*
0 Add a 4 corners polygon primitive as box body*
4,1,4,$2,$3,$4,$5,$6,$7,$8,$9,$2,$3,0*
0 Add four circle primitives for the rounded corners*
1,1,$1+$1,$2,$3*
1,1,$1+$1,$4,$5*
1,1,$1+$1,$6,$7*
1,1,$1+$1,$8,$9*
0 Add four rect primitives between the rounded corners*
20,1,$1+$1,$2,$3,$4,$5,0*
20,1,$1+$1,$4,$5,$6,$7,0*
20,1,$1+$1,$6,$7,$8,$9,0*
20,1,$1+$1,$8,$9,$2,$3,0*%
G04 Aperture macros list end*
%TA.AperFunction,SMDPad,CuDef*%
%ADD10R,2.400000X2.000000*%
%TD*%
%TA.AperFunction,SMDPad,CuDef*%
%ADD11C,1.000000*%
%TD*%
%TA.AperFunction,SMDPad,CuDef*%
%ADD12RoundRect,0.150000X-0.512500X-0.150000X0.512500X-0.150000X0.512500X0.150000X-0.512500X0.150000X0*%
%TD*%
%TA.AperFunction,SMDPad,CuDef*%
%ADD13RoundRect,0.075000X-0.662500X-0.075000X0.662500X-0.075000X0.662500X0.075000X-0.662500X0.075000X0*%
%TD*%
%TA.AperFunction,SMDPad,CuDef*%
%ADD14RoundRect,0.075000X-0.075000X-0.662500X0.075000X-0.662500X0.075000X0.662500X-0.075000X0.662500X0*%
%TD*%
%TA.AperFunction,SMDPad,CuDef*%
%ADD15RoundRect,0.250000X-0.450000X0.262500X-0.450000X-0.262500X0.450000X-0.262500X0.450000X0.262500X0*%
%TD*%
%TA.AperFunction,SMDPad,CuDef*%
%ADD16RoundRect,0.150000X0.512500X0.150000X-0.512500X0.150000X-0.512500X-0.150000X0.512500X-0.150000X0*%
%TD*%
%TA.AperFunction,SMDPad,CuDef*%
%ADD17RoundRect,0.250000X-0.475000X0.250000X-0.475000X-0.250000X0.475000X-0.250000X0.475000X0.250000X0*%
%TD*%
%TA.AperFunction,ComponentPad*%
%ADD18R,1.700000X1.700000*%
%TD*%
%TA.AperFunction,ComponentPad*%
%ADD19O,1.700000X1.700000*%
%TD*%
%TA.AperFunction,SMDPad,CuDef*%
%ADD20RoundRect,0.250000X0.262500X0.450000X-0.262500X0.450000X-0.262500X-0.450000X0.262500X-0.450000X0*%
%TD*%
%TA.AperFunction,SMDPad,CuDef*%
%ADD21R,0.300000X1.000000*%
%TD*%
%TA.AperFunction,SMDPad,CuDef*%
%ADD22R,0.600000X1.000000*%
%TD*%
%TA.AperFunction,ComponentPad*%
%ADD23O,1.000000X1.600000*%
%TD*%
%TA.AperFunction,ComponentPad*%
%ADD24O,1.000000X2.100000*%
%TD*%
%TA.AperFunction,SMDPad,CuDef*%
%ADD25RoundRect,0.250000X0.250000X0.475000X-0.250000X0.475000X-0.250000X-0.475000X0.250000X-0.475000X0*%
%TD*%
%TA.AperFunction,SMDPad,CuDef*%
%ADD26RoundRect,0.250000X0.450000X-0.262500X0.450000X0.262500X-0.450000X0.262500X-0.450000X-0.262500X0*%
%TD*%
%TA.AperFunction,SMDPad,CuDef*%
%ADD27R,1.800000X1.000000*%
%TD*%
%TA.AperFunction,SMDPad,CuDef*%
%ADD28RoundRect,0.250000X0.475000X-0.250000X0.475000X0.250000X-0.475000X0.250000X-0.475000X-0.250000X0*%
%TD*%
%TA.AperFunction,SMDPad,CuDef*%
%ADD29RoundRect,0.250000X-0.262500X-0.450000X0.262500X-0.450000X0.262500X0.450000X-0.262500X0.450000X0*%
%TD*%
%TA.AperFunction,SMDPad,CuDef*%
%ADD30R,1.000000X0.900000*%
%TD*%
%TA.AperFunction,SMDPad,CuDef*%
%ADD31RoundRect,0.250000X-0.250000X-0.475000X0.250000X-0.475000X0.250000X0.475000X-0.250000X0.475000X0*%
%TD*%
%TA.AperFunction,SMDPad,CuDef*%
%ADD32RoundRect,0.150000X-0.675000X-0.150000X0.675000X-0.150000X0.675000X0.150000X-0.675000X0.150000X0*%
%TD*%
%TA.AperFunction,ComponentPad*%
%ADD33R,1.000000X1.000000*%
%TD*%
%TA.AperFunction,ComponentPad*%
%ADD34O,1.000000X1.000000*%
%TD*%
%TA.AperFunction,SMDPad,CuDef*%
%ADD35RoundRect,0.243750X-0.243750X-0.456250X0.243750X-0.456250X0.243750X0.456250X-0.243750X0.456250X0*%
%TD*%
%TA.AperFunction,SMDPad,CuDef*%
%ADD36RoundRect,0.150000X-0.150000X0.512500X-0.150000X-0.512500X0.150000X-0.512500X0.150000X0.512500X0*%
%TD*%
%TA.AperFunction,SMDPad,CuDef*%
%ADD37R,0.800000X0.900000*%
%TD*%
%TA.AperFunction,ViaPad*%
%ADD38C,0.600000*%
%TD*%
%TA.AperFunction,Conductor*%
%ADD39C,0.500000*%
%TD*%
%TA.AperFunction,Conductor*%
%ADD40C,0.250000*%
%TD*%
%TA.AperFunction,Conductor*%
%ADD41C,0.200000*%
%TD*%
G04 APERTURE END LIST*
D10*
%TO.P,Y1,2,2*%
%TO.N,OSC_OUT*%
X137700000Y-93350000D03*
%TO.P,Y1,1,1*%
%TO.N,OSC_IN*%
X137700000Y-89650000D03*
%TD*%
D11*
%TO.P,TP7,1,1*%
%TO.N,FLASH_MOSI*%
X123500000Y-103750000D03*
%TD*%
D12*
%TO.P,U4,1,+*%
%TO.N,Net-(J2-Pin_2)*%
X155862500Y-113550000D03*
%TO.P,U4,2,V-*%
%TO.N,GND*%
X155862500Y-114500000D03*
%TO.P,U4,3,-*%
%TO.N,THERM_OFST*%
X155862500Y-115450000D03*
%TO.P,U4,4*%
X158137500Y-115450000D03*
%TO.P,U4,5,V+*%
%TO.N,TEMP_EN*%
X158137500Y-113550000D03*
%TD*%
D11*
%TO.P,TP10,1,1*%
%TO.N,USART1_RX*%
X165500000Y-100200000D03*
%TD*%
D13*
%TO.P,U1,1,VDD*%
%TO.N,+3V3*%
X142837500Y-86750000D03*
%TO.P,U1,2,PC13*%
%TO.N,unconnected-(U1-PC13-Pad2)*%
X142837500Y-87250000D03*
%TO.P,U1,3,PC14*%
%TO.N,OSC32_IN*%
X142837500Y-87750000D03*
%TO.P,U1,4,PC15*%
%TO.N,OSC32_OUT*%
X142837500Y-88250000D03*
%TO.P,U1,5,PF0*%
%TO.N,OSC_IN*%
X142837500Y-88750000D03*
%TO.P,U1,6,PF1*%
%TO.N,OSC_OUT*%
X142837500Y-89250000D03*
%TO.P,U1,7,NRST*%
%TO.N,NRST*%
X142837500Y-89750000D03*
%TO.P,U1,8,VSSA*%
%TO.N,GND*%
X142837500Y-90250000D03*
%TO.P,U1,9,VDDA*%
%TO.N,+3V3*%
X142837500Y-90750000D03*
%TO.P,U1,10,PA0*%
%TO.N,unconnected-(U1-PA0-Pad10)*%
X142837500Y-91250000D03*
%TO.P,U1,11,PA1*%
%TO.N,LED0*%
X142837500Y-91750000D03*
%TO.P,U1,12,PA2*%
%TO.N,LED1*%
X142837500Y-92250000D03*
D14*
%TO.P,U1,13,PA3*%
%TO.N,unconnected-(U1-PA3-Pad13)*%
X144250000Y-93662500D03*
%TO.P,U1,14,PA4*%
%TO.N,FLASH_nCS*%
X144750000Y-93662500D03*
%TO.P,U1,15,PA5*%
%TO.N,FLASH_SCK*%
X145250000Y-93662500D03*
%TO.P,U1,16,PA6*%
%TO.N,FLASH_MISO*%
X145750000Y-93662500D03*
%TO.P,U1,17,PA7*%
%TO.N,FLASH_MOSI*%
X146250000Y-93662500D03*
%TO.P,U1,18,PB0*%
%TO.N,FLASH_nWP*%
X146750000Y-93662500D03*
%TO.P,U1,19,PB1*%
%TO.N,TEMP_EN*%
X147250000Y-93662500D03*
%TO.P,U1,20,PB2*%
%TO.N,THERM_OUT*%
X147750000Y-93662500D03*
%TO.P,U1,21,PB10*%
%TO.N,THERM_OFST*%
X148250000Y-93662500D03*
%TO.P,U1,22,PB11*%
%TO.N,unconnected-(U1-PB11-Pad22)*%
X148750000Y-93662500D03*
%TO.P,U1,23,VSS*%
%TO.N,GND*%
X149250000Y-93662500D03*
%TO.P,U1,24,VDD*%
%TO.N,+3V3*%
X149750000Y-93662500D03*
D13*
%TO.P,U1,25,PB12*%
%TO.N,unconnected-(U1-PB12-Pad25)*%
X151162500Y-92250000D03*
%TO.P,U1,26,PB13*%
%TO.N,unconnected-(U1-PB13-Pad26)*%
X151162500Y-91750000D03*
%TO.P,U1,27,PB14*%
%TO.N,unconnected-(U1-PB14-Pad27)*%
X151162500Y-91250000D03*
%TO.P,U1,28,PB15*%
%TO.N,unconnected-(U1-PB15-Pad28)*%
X151162500Y-90750000D03*
%TO.P,U1,29,PA8*%
%TO.N,Net-(U1-PA8)*%
X151162500Y-90250000D03*
%TO.P,U1,30,PA9*%
%TO.N,USART1_TX*%
X151162500Y-89750000D03*
%TO.P,U1,31,PA10*%
%TO.N,USART1_RX*%
X151162500Y-89250000D03*
%TO.P,U1,32,PA11*%
%TO.N,unconnected-(U1-PA11-Pad32)*%
X151162500Y-88750000D03*
%TO.P,U1,33,PA12*%
%TO.N,unconnected-(U1-PA12-Pad33)*%
X151162500Y-88250000D03*
%TO.P,U1,34,PA13*%
%TO.N,SWDIO*%
X151162500Y-87750000D03*
%TO.P,U1,35,PF6*%
%TO.N,unconnected-(U1-PF6-Pad35)*%
X151162500Y-87250000D03*
%TO.P,U1,36,PF7*%
%TO.N,unconnected-(U1-PF7-Pad36)*%
X151162500Y-86750000D03*
D14*
%TO.P,U1,37,PA14*%
%TO.N,SWDCLK*%
X149750000Y-85337500D03*
%TO.P,U1,38,PA15*%
%TO.N,unconnected-(U1-PA15-Pad38)*%
X149250000Y-85337500D03*
%TO.P,U1,39,PB3*%
%TO.N,unconnected-(U1-PB3-Pad39)*%
X148750000Y-85337500D03*
%TO.P,U1,40,PB4*%
%TO.N,unconnected-(U1-PB4-Pad40)*%
X148250000Y-85337500D03*
%TO.P,U1,41,PB5*%
%TO.N,unconnected-(U1-PB5-Pad41)*%
X147750000Y-85337500D03*
%TO.P,U1,42,PB6*%
%TO.N,unconnected-(U1-PB6-Pad42)*%
X147250000Y-85337500D03*
%TO.P,U1,43,PB7*%
%TO.N,unconnected-(U1-PB7-Pad43)*%
X146750000Y-85337500D03*
%TO.P,U1,44,BOOT0*%
%TO.N,BOOT0*%
X146250000Y-85337500D03*
%TO.P,U1,45,PB8*%
%TO.N,unconnected-(U1-PB8-Pad45)*%
X145750000Y-85337500D03*
%TO.P,U1,46,PB9*%
%TO.N,BTN_1*%
X145250000Y-85337500D03*
%TO.P,U1,47,VSS*%
%TO.N,GND*%
X144750000Y-85337500D03*
%TO.P,U1,48,VDD*%
%TO.N,+3V3*%
X144250000Y-85337500D03*
%TD*%
D15*
%TO.P,R1,1*%
%TO.N,Net-(Q1-D)*%
X141500000Y-113587500D03*
%TO.P,R1,2*%
%TO.N,Net-(J2-Pin_1)*%
X141500000Y-115412500D03*
%TD*%
D11*
%TO.P,TP12,1,1*%
%TO.N,Net-(U1-PA8)*%
X154500000Y-93700000D03*
%TD*%
D16*
%TO.P,U3,1,+*%
%TO.N,Net-(J2-Pin_1)*%
X138637500Y-115450000D03*
%TO.P,U3,2,V-*%
%TO.N,GND*%
X138637500Y-114500000D03*
%TO.P,U3,3,-*%
%TO.N,THERM_OUT*%
X138637500Y-113550000D03*
%TO.P,U3,4*%
X136362500Y-113550000D03*
%TO.P,U3,5,V+*%
%TO.N,TEMP_EN*%
X136362500Y-115450000D03*
%TD*%
D17*
%TO.P,C1,1*%
%TO.N,NRST*%
X156000000Y-69050000D03*
%TO.P,C1,2*%
%TO.N,GND*%
X156000000Y-70950000D03*
%TD*%
%TO.P,C2,1*%
%TO.N,VCC*%
X143550000Y-75850000D03*
%TO.P,C2,2*%
%TO.N,GND*%
X143550000Y-77750000D03*
%TD*%
D18*
%TO.P,J3,1,Pin_1*%
%TO.N,GND*%
X170675000Y-105250000D03*
D19*
%TO.P,J3,2,Pin_2*%
%TO.N,USART1_TX*%
X170675000Y-102710000D03*
%TO.P,J3,3,Pin_3*%
%TO.N,USART1_RX*%
X170675000Y-100170000D03*
%TD*%
D20*
%TO.P,R10,1*%
%TO.N,Net-(C8-Pad2)*%
X134912500Y-78000000D03*
%TO.P,R10,2*%
%TO.N,GND*%
X133087500Y-78000000D03*
%TD*%
D21*
%TO.P,J6,A5,CC1*%
%TO.N,unconnected-(J6-CC1-PadA5)*%
X148250000Y-72966250D03*
%TO.P,J6,A6,D+*%
%TO.N,unconnected-(J6-D+-PadA6)*%
X147250000Y-72966250D03*
%TO.P,J6,A7,D-*%
%TO.N,unconnected-(J6-D--PadA7)*%
X146750000Y-72966250D03*
%TO.P,J6,A8,NC*%
%TO.N,unconnected-(J6-NC-PadA8)*%
X145750000Y-72966250D03*
%TO.P,J6,B5,CC2*%
%TO.N,unconnected-(J6-CC2-PadB5)*%
X145250000Y-72966250D03*
%TO.P,J6,B6,D+*%
%TO.N,unconnected-(J6-D+-PadA6)_0*%
X146250000Y-72966250D03*
%TO.P,J6,B7,D-*%
%TO.N,unconnected-(J6-D--PadA7)_0*%
X147750000Y-72966250D03*
%TO.P,J6,B8,NC*%
%TO.N,unconnected-(J6-NC-PadB8)*%
X148750000Y-72966250D03*
D22*
%TO.P,J6,GND,GND*%
%TO.N,GND*%
X150225000Y-72966250D03*
X143775000Y-72966250D03*
D23*
%TO.P,J6,NC1,NC*%
%TO.N,unconnected-(J6-NC-PadNC1)*%
X151318000Y-68211250D03*
D24*
%TO.P,J6,NC2,NC*%
%TO.N,unconnected-(J6-NC-PadNC2)*%
X151318000Y-72391250D03*
%TO.P,J6,NC3,NC*%
%TO.N,unconnected-(J6-NC-PadNC3)*%
X142682000Y-72391250D03*
D23*
%TO.P,J6,S,SHIELD*%
%TO.N,GND*%
X142682000Y-68211250D03*
D22*
%TO.P,J6,VBUS,VBUS*%
%TO.N,VCC*%
X149450000Y-72966250D03*
X144550000Y-72966250D03*
%TD*%
D17*
%TO.P,C7,1*%
%TO.N,+3V3*%
X151400000Y-95550000D03*
%TO.P,C7,2*%
%TO.N,GND*%
X151400000Y-97450000D03*
%TD*%
D25*
%TO.P,C12,1*%
%TO.N,OSC32_OUT*%
X133950000Y-87000000D03*
%TO.P,C12,2*%
%TO.N,GND*%
X132050000Y-87000000D03*
%TD*%
D11*
%TO.P,TP9,1,1*%
%TO.N,FLASH_nWP*%
X123500000Y-108500000D03*
%TD*%
D26*
%TO.P,R6,1*%
%TO.N,GND*%
X165900000Y-91612500D03*
%TO.P,R6,2*%
%TO.N,BOOT0*%
X165900000Y-89787500D03*
%TD*%
D11*
%TO.P,TP6,1,1*%
%TO.N,FLASH_SCK*%
X123500000Y-101375000D03*
%TD*%
%TO.P,TP5,1,1*%
%TO.N,FLASH_nCS*%
X123500000Y-99000000D03*
%TD*%
D27*
%TO.P,Y2,1,1*%
%TO.N,OSC32_IN*%
X137000000Y-84250000D03*
%TO.P,Y2,2,2*%
%TO.N,OSC32_OUT*%
X137000000Y-86750000D03*
%TD*%
D25*
%TO.P,C11,1*%
%TO.N,OSC32_IN*%
X133950000Y-84500000D03*
%TO.P,C11,2*%
%TO.N,GND*%
X132050000Y-84500000D03*
%TD*%
D11*
%TO.P,TP8,1,1*%
%TO.N,FLASH_MISO*%
X123500000Y-106125000D03*
%TD*%
D25*
%TO.P,C9,1*%
%TO.N,OSC_IN*%
X133950000Y-89500000D03*
%TO.P,C9,2*%
%TO.N,GND*%
X132050000Y-89500000D03*
%TD*%
D28*
%TO.P,C5,1*%
%TO.N,+3V3*%
X152500000Y-82850000D03*
%TO.P,C5,2*%
%TO.N,GND*%
X152500000Y-80950000D03*
%TD*%
D29*
%TO.P,R11,1*%
%TO.N,+3V3*%
X133087500Y-75500000D03*
%TO.P,R11,2*%
%TO.N,BTN_1*%
X134912500Y-75500000D03*
%TD*%
D28*
%TO.P,C3,1*%
%TO.N,+3V3*%
X150550000Y-77750000D03*
%TO.P,C3,2*%
%TO.N,GND*%
X150550000Y-75850000D03*
%TD*%
D30*
%TO.P,SW1,1,1*%
%TO.N,GND*%
X160800000Y-68200000D03*
X160800000Y-72300000D03*
%TO.P,SW1,2,2*%
%TO.N,NRST*%
X159200000Y-68200000D03*
X159200000Y-72300000D03*
%TD*%
D11*
%TO.P,TP11,1,1*%
%TO.N,USART1_TX*%
X165500000Y-102700000D03*
%TD*%
D20*
%TO.P,R9,1*%
%TO.N,GND*%
X124412500Y-92366666D03*
%TO.P,R9,2*%
%TO.N,Net-(D2-K)*%
X122587500Y-92366666D03*
%TD*%
D15*
%TO.P,R2,1*%
%TO.N,Net-(J2-Pin_2)*%
X153000000Y-113587500D03*
%TO.P,R2,2*%
%TO.N,GND*%
X153000000Y-115412500D03*
%TD*%
D20*
%TO.P,R5,1*%
%TO.N,Net-(Q1-G)*%
X147912500Y-100000000D03*
%TO.P,R5,2*%
%TO.N,GND*%
X146087500Y-100000000D03*
%TD*%
D26*
%TO.P,R3,1*%
%TO.N,TEMP_EN*%
X143000000Y-104412500D03*
%TO.P,R3,2*%
%TO.N,Net-(Q1-S)*%
X143000000Y-102587500D03*
%TD*%
D31*
%TO.P,C6,1*%
%TO.N,+3V3*%
X140450000Y-96000000D03*
%TO.P,C6,2*%
%TO.N,GND*%
X142350000Y-96000000D03*
%TD*%
D32*
%TO.P,U2,1,~{CS}*%
%TO.N,FLASH_nCS*%
X132375000Y-100595000D03*
%TO.P,U2,2,O1/SO*%
%TO.N,FLASH_MISO*%
X132375000Y-101865000D03*
%TO.P,U2,3,~{WP}*%
%TO.N,FLASH_nWP*%
X132375000Y-103135000D03*
%TO.P,U2,4,VSS*%
%TO.N,GND*%
X132375000Y-104405000D03*
%TO.P,U2,5,SI/IO0*%
%TO.N,FLASH_MOSI*%
X137625000Y-104405000D03*
%TO.P,U2,6,SCLK*%
%TO.N,FLASH_SCK*%
X137625000Y-103135000D03*
%TO.P,U2,7,NC*%
%TO.N,unconnected-(U2-NC-Pad7)*%
X137625000Y-101865000D03*
%TO.P,U2,8,VCC*%
%TO.N,+3V3*%
X137625000Y-100595000D03*
%TD*%
D26*
%TO.P,R4,1*%
%TO.N,TEMP_EN*%
X151000000Y-104412500D03*
%TO.P,R4,2*%
%TO.N,Net-(Q1-G)*%
X151000000Y-102587500D03*
%TD*%
D33*
%TO.P,J1,1,Pin_1*%
%TO.N,+3V3*%
X171325000Y-81750000D03*
D34*
%TO.P,J1,2,Pin_2*%
%TO.N,SWDIO*%
X170055000Y-81750000D03*
%TO.P,J1,3,Pin_3*%
%TO.N,GND*%
X171325000Y-80480000D03*
%TO.P,J1,4,Pin_4*%
%TO.N,SWDCLK*%
X170055000Y-80480000D03*
%TO.P,J1,5,Pin_5*%
%TO.N,GND*%
X171325000Y-79210000D03*
%TO.P,J1,6,Pin_6*%
%TO.N,unconnected-(J1-Pin_6-Pad6)*%
X170055000Y-79210000D03*
%TO.P,J1,7,Pin_7*%
%TO.N,unconnected-(J1-Pin_7-Pad7)*%
X171325000Y-77940000D03*
%TO.P,J1,8,Pin_8*%
%TO.N,unconnected-(J1-Pin_8-Pad8)*%
X170055000Y-77940000D03*
%TO.P,J1,9,Pin_9*%
%TO.N,GND*%
X171325000Y-76670000D03*
%TO.P,J1,10,Pin_10*%
%TO.N,NRST*%
X170055000Y-76670000D03*
%TD*%
D25*
%TO.P,C10,1*%
%TO.N,OSC_OUT*%
X133950000Y-93500000D03*
%TO.P,C10,2*%
%TO.N,GND*%
X132050000Y-93500000D03*
%TD*%
D35*
%TO.P,D2,1,K*%
%TO.N,Net-(D2-K)*%
X122582500Y-95400000D03*
%TO.P,D2,2,A*%
%TO.N,LED1*%
X124457500Y-95400000D03*
%TD*%
D36*
%TO.P,U6,1,VIN*%
%TO.N,VCC*%
X147950000Y-75862500D03*
%TO.P,U6,2,GND*%
%TO.N,GND*%
X147000000Y-75862500D03*
%TO.P,U6,3,EN*%
%TO.N,VCC*%
X146050000Y-75862500D03*
%TO.P,U6,4,NC*%
%TO.N,unconnected-(U6-NC-Pad4)*%
X146050000Y-78137500D03*
%TO.P,U6,5,VOUT*%
%TO.N,+3V3*%
X147950000Y-78137500D03*
%TD*%
D11*
%TO.P,TP3,1,1*%
%TO.N,THERM_OUT*%
X137500000Y-110500000D03*
%TD*%
D30*
%TO.P,SW2,1,1*%
%TO.N,GND*%
X133200000Y-72300000D03*
X133200000Y-68200000D03*
%TO.P,SW2,2,2*%
%TO.N,BTN_1*%
X134800000Y-72300000D03*
X134800000Y-68200000D03*
%TD*%
D37*
%TO.P,Q1,1,G*%
%TO.N,Net-(Q1-G)*%
X147950000Y-102500000D03*
%TO.P,Q1,2,S*%
%TO.N,Net-(Q1-S)*%
X146050000Y-102500000D03*
%TO.P,Q1,3,D*%
%TO.N,Net-(Q1-D)*%
X147000000Y-104600000D03*
%TD*%
D11*
%TO.P,TP4,1,1*%
%TO.N,THERM_OFST*%
X157000000Y-110500000D03*
%TD*%
D17*
%TO.P,C8,1*%
%TO.N,BTN_1*%
X138000000Y-68500000D03*
%TO.P,C8,2*%
%TO.N,Net-(C8-Pad2)*%
X138000000Y-70400000D03*
%TD*%
D11*
%TO.P,TP1,1,1*%
%TO.N,TEMP_EN*%
X147000000Y-110500000D03*
%TD*%
D28*
%TO.P,C4,1*%
%TO.N,+3V3*%
X141500000Y-83450000D03*
%TO.P,C4,2*%
%TO.N,GND*%
X141500000Y-81550000D03*
%TD*%
D18*
%TO.P,J2,1,Pin_1*%
%TO.N,Net-(J2-Pin_1)*%
X145725000Y-114750000D03*
D19*
%TO.P,J2,2,Pin_2*%
%TO.N,Net-(J2-Pin_2)*%
X148265000Y-114750000D03*
%TD*%
D20*
%TO.P,R8,1*%
%TO.N,GND*%
X124412500Y-86300000D03*
%TO.P,R8,2*%
%TO.N,Net-(D1-K)*%
X122587500Y-86300000D03*
%TD*%
D35*
%TO.P,D1,1,K*%
%TO.N,Net-(D1-K)*%
X122582500Y-89333333D03*
%TO.P,D1,2,A*%
%TO.N,LED0*%
X124457500Y-89333333D03*
%TD*%
D18*
%TO.P,J5,1,Pin_1*%
%TO.N,BOOT0*%
X170725000Y-89400000D03*
D19*
%TO.P,J5,2,Pin_2*%
%TO.N,+3V3*%
X170725000Y-91940000D03*
%TD*%
D38*
%TO.N,GND*%
X142400000Y-94500000D03*
%TO.N,NRST*%
X149400000Y-86900000D03*
X159000000Y-77300000D03*
%TO.N,GND*%
X141500000Y-80300000D03*
X147000000Y-77000000D03*
X124400000Y-90900000D03*
X131700000Y-68200000D03*
X154200000Y-80900000D03*
X153100000Y-97400000D03*
X124400000Y-84700000D03*
X152150000Y-75850000D03*
X131700000Y-72300000D03*
X141400000Y-90200000D03*
X133100000Y-79600000D03*
X164500000Y-91600000D03*
X143800000Y-74200000D03*
X130600000Y-93500000D03*
X150200000Y-74200000D03*
X154200000Y-70900000D03*
X132400000Y-106100000D03*
X130600000Y-89500000D03*
X151500000Y-115400000D03*
X141900000Y-77750000D03*
X162400000Y-72300000D03*
X144200000Y-83900000D03*
X144900000Y-100000000D03*
X140000000Y-114500000D03*
X162400000Y-68200000D03*
%TO.N,BTN_1*%
X139500000Y-73900000D03*
X136500000Y-73900000D03*
%TO.N,LED1*%
X128600000Y-95400000D03*
X141300000Y-92500000D03*
%TO.N,TEMP_EN*%
X144500000Y-104400000D03*
X147000000Y-112200000D03*
X159700000Y-113500000D03*
X136300000Y-116700000D03*
X147300000Y-98300000D03*
%TO.N,FLASH_SCK*%
X126800000Y-101400000D03*
X135300000Y-103100000D03*
%TO.N,THERM_OUT*%
X147875000Y-95600000D03*
X137500000Y-107200000D03*
%TO.N,FLASH_MISO*%
X135400000Y-101900000D03*
X141500000Y-100300000D03*
%TO.N,FLASH_MOSI*%
X126800000Y-103800000D03*
X135200000Y-104400000D03*
X139700000Y-103000000D03*
X142400000Y-100300000D03*
%TO.N,Net-(Q1-D)*%
X141500000Y-110900000D03*
X144600000Y-107800000D03*
%TO.N,LED0*%
X128600000Y-89400000D03*
X141300000Y-91700000D03*
%TO.N,BOOT0*%
X146300000Y-88400000D03*
X165900000Y-88400000D03*
%TD*%
D39*
%TO.N,GND*%
X142350000Y-94550000D02*
X142400000Y-94500000D01*
X142350000Y-96000000D02*
X142350000Y-94550000D01*
D40*
%TO.N,NRST*%
X160750000Y-75550000D02*
X160750000Y-75450000D01*
X146550000Y-89750000D02*
X149400000Y-86900000D01*
X159000000Y-77300000D02*
X160750000Y-75550000D01*
D39*
X156850000Y-68200000D02*
X156000000Y-69050000D01*
X160750000Y-75450000D02*
X159200000Y-73900000D01*
D40*
X142837500Y-89750000D02*
X146550000Y-89750000D01*
D39*
X159200000Y-68200000D02*
X156850000Y-68200000D01*
X161970000Y-76670000D02*
X160750000Y-75450000D01*
X159200000Y-73900000D02*
X159200000Y-72300000D01*
X170055000Y-76670000D02*
X161970000Y-76670000D01*
X159200000Y-68200000D02*
X159200000Y-72300000D01*
D41*
%TO.N,GND*%
X124412500Y-84712500D02*
X124400000Y-84700000D01*
D39*
X160800000Y-68200000D02*
X162400000Y-68200000D01*
X150225000Y-74175000D02*
X150200000Y-74200000D01*
D40*
X141500000Y-81550000D02*
X141500000Y-80300000D01*
D41*
X164512500Y-91612500D02*
X164500000Y-91600000D01*
X165900000Y-91612500D02*
X164512500Y-91612500D01*
D39*
X132050000Y-93500000D02*
X130600000Y-93500000D01*
X132375000Y-104405000D02*
X132375000Y-106075000D01*
X150225000Y-72966250D02*
X150225000Y-74175000D01*
D41*
X124412500Y-90912500D02*
X124400000Y-90900000D01*
D39*
X132050000Y-89500000D02*
X130600000Y-89500000D01*
X151512500Y-115412500D02*
X151500000Y-115400000D01*
X133200000Y-72300000D02*
X131700000Y-72300000D01*
X153000000Y-115412500D02*
X151512500Y-115412500D01*
X150225000Y-75525000D02*
X150550000Y-75850000D01*
D40*
X144750000Y-85337500D02*
X144750000Y-84450000D01*
D39*
X153912500Y-114500000D02*
X155862500Y-114500000D01*
D41*
X146087500Y-100000000D02*
X144900000Y-100000000D01*
D39*
X143775000Y-72966250D02*
X143775000Y-74175000D01*
D41*
X124412500Y-86300000D02*
X124412500Y-84712500D01*
D39*
X143550000Y-77750000D02*
X141900000Y-77750000D01*
X147000000Y-75862500D02*
X147000000Y-77000000D01*
X133087500Y-78000000D02*
X133087500Y-79587500D01*
D41*
X151400000Y-97450000D02*
X149250000Y-95300000D01*
X151400000Y-97450000D02*
X153050000Y-97450000D01*
D39*
X132375000Y-106075000D02*
X132400000Y-106100000D01*
X133087500Y-79587500D02*
X133100000Y-79600000D01*
X143775000Y-74175000D02*
X143800000Y-74200000D01*
X160800000Y-72300000D02*
X162400000Y-72300000D01*
X154250000Y-70950000D02*
X154200000Y-70900000D01*
D40*
X144750000Y-84450000D02*
X144200000Y-83900000D01*
D41*
X153050000Y-97450000D02*
X153100000Y-97400000D01*
X149250000Y-95300000D02*
X149250000Y-93662500D01*
X152500000Y-80950000D02*
X154150000Y-80950000D01*
X154150000Y-80950000D02*
X154200000Y-80900000D01*
D39*
X133200000Y-68200000D02*
X131700000Y-68200000D01*
X153000000Y-115412500D02*
X153912500Y-114500000D01*
D41*
X124412500Y-92366666D02*
X124412500Y-90912500D01*
D39*
X150550000Y-75850000D02*
X152150000Y-75850000D01*
D40*
X138637500Y-114500000D02*
X140000000Y-114500000D01*
D41*
X141450000Y-90250000D02*
X141400000Y-90200000D01*
X142837500Y-90250000D02*
X141450000Y-90250000D01*
D39*
X156000000Y-70950000D02*
X154250000Y-70950000D01*
D41*
%TO.N,+3V3*%
X151400000Y-95550000D02*
X149750000Y-93900000D01*
D40*
X140450000Y-94650000D02*
X140450000Y-95400000D01*
X142362500Y-83450000D02*
X141500000Y-83450000D01*
X142837500Y-90750000D02*
X143950000Y-90750000D01*
X141500000Y-93600000D02*
X140450000Y-94650000D01*
X144250000Y-85337500D02*
X142362500Y-83450000D01*
D41*
X150500000Y-93600000D02*
X150437500Y-93662500D01*
X149750000Y-93662500D02*
X150437500Y-93662500D01*
D40*
X142837500Y-86750000D02*
X141500000Y-85412500D01*
D39*
X150550000Y-77750000D02*
X148337500Y-77750000D01*
D40*
X143950000Y-90750000D02*
X144300000Y-91100000D01*
X141500000Y-85412500D02*
X141500000Y-83450000D01*
D41*
X149750000Y-93900000D02*
X149750000Y-93662500D01*
D39*
X148337500Y-77750000D02*
X147950000Y-78137500D01*
D40*
X144300000Y-92100000D02*
X142800000Y-93600000D01*
X144300000Y-91100000D02*
X144300000Y-92100000D01*
X142800000Y-93600000D02*
X141500000Y-93600000D01*
%TO.N,USART1_RX*%
X165500000Y-100200000D02*
X163636396Y-100200000D01*
X152686396Y-89250000D02*
X151162500Y-89250000D01*
X163636396Y-100200000D02*
X152686396Y-89250000D01*
X165530000Y-100170000D02*
X165500000Y-100200000D01*
X170675000Y-100170000D02*
X165530000Y-100170000D01*
D39*
%TO.N,BTN_1*%
X134800000Y-68200000D02*
X134800000Y-72300000D01*
X134912500Y-75500000D02*
X134912500Y-73800000D01*
D41*
X145250000Y-85337500D02*
X145250000Y-83201471D01*
X136500000Y-73900000D02*
X135012500Y-73900000D01*
X139500000Y-77451471D02*
X139500000Y-73900000D01*
X135012500Y-73900000D02*
X134912500Y-73800000D01*
D39*
X134912500Y-73800000D02*
X134912500Y-72412500D01*
D41*
X145250000Y-83201471D02*
X139500000Y-77451471D01*
D39*
X134912500Y-72412500D02*
X134800000Y-72300000D01*
X134800000Y-68200000D02*
X137700000Y-68200000D01*
X137700000Y-68200000D02*
X138000000Y-68500000D01*
%TO.N,OSC_IN*%
X137350000Y-89500000D02*
X137500000Y-89650000D01*
D40*
X138400000Y-88750000D02*
X142837500Y-88750000D01*
D39*
X133950000Y-89500000D02*
X137350000Y-89500000D01*
D40*
X137500000Y-89650000D02*
X138400000Y-88750000D01*
%TO.N,OSC_OUT*%
X140100000Y-91900000D02*
X140100000Y-89500000D01*
X137500000Y-93350000D02*
X138650000Y-93350000D01*
D39*
X137350000Y-93500000D02*
X137500000Y-93350000D01*
D40*
X140100000Y-89500000D02*
X140350000Y-89250000D01*
D39*
X133950000Y-93500000D02*
X137350000Y-93500000D01*
D40*
X140350000Y-89250000D02*
X142837500Y-89250000D01*
X138650000Y-93350000D02*
X140100000Y-91900000D01*
%TO.N,OSC32_IN*%
X137000000Y-84250000D02*
X138450000Y-84250000D01*
X139850000Y-87750000D02*
X142837500Y-87750000D01*
X139100000Y-84900000D02*
X139100000Y-87000000D01*
D39*
X136750000Y-84500000D02*
X137000000Y-84250000D01*
D40*
X139100000Y-87000000D02*
X139850000Y-87750000D01*
D39*
X133950000Y-84500000D02*
X136750000Y-84500000D01*
D40*
X138450000Y-84250000D02*
X139100000Y-84900000D01*
%TO.N,OSC32_OUT*%
X137000000Y-86750000D02*
X138050000Y-86750000D01*
X138050000Y-86750000D02*
X139550000Y-88250000D01*
X139550000Y-88250000D02*
X142837500Y-88250000D01*
D39*
X136750000Y-87000000D02*
X137000000Y-86750000D01*
X133950000Y-87000000D02*
X136750000Y-87000000D01*
D41*
%TO.N,Net-(D1-K)*%
X122582500Y-89333333D02*
X122582500Y-86305000D01*
X122582500Y-86305000D02*
X122587500Y-86300000D01*
D40*
%TO.N,FLASH_nWP*%
X135200000Y-105400000D02*
X132935000Y-103135000D01*
D39*
X125900000Y-108500000D02*
X124000000Y-108500000D01*
D40*
X138183884Y-105400000D02*
X135200000Y-105400000D01*
X132935000Y-103135000D02*
X132375000Y-103135000D01*
X146750000Y-96833884D02*
X138183884Y-105400000D01*
D39*
X132375000Y-103135000D02*
X131265000Y-103135000D01*
D40*
X146750000Y-93662500D02*
X146750000Y-96833884D01*
D39*
X131265000Y-103135000D02*
X125900000Y-108500000D01*
D41*
%TO.N,LED1*%
X142837500Y-92250000D02*
X141550000Y-92250000D01*
X128600000Y-95400000D02*
X124457500Y-95400000D01*
X141550000Y-92250000D02*
X141300000Y-92500000D01*
D40*
%TO.N,TEMP_EN*%
X147250000Y-98250000D02*
X147250000Y-93662500D01*
X147300000Y-98300000D02*
X147250000Y-98250000D01*
D39*
X147000000Y-110500000D02*
X143800000Y-110500000D01*
X158137500Y-113550000D02*
X159650000Y-113550000D01*
X159650000Y-113550000D02*
X159700000Y-113500000D01*
X147000000Y-112200000D02*
X147000000Y-110500000D01*
X143000000Y-109700000D02*
X143000000Y-104412500D01*
X143800000Y-110500000D02*
X143000000Y-109700000D01*
X150300000Y-110500000D02*
X151000000Y-109800000D01*
X136362500Y-115450000D02*
X136362500Y-116637500D01*
X144487500Y-104412500D02*
X144500000Y-104400000D01*
X136362500Y-116637500D02*
X136300000Y-116700000D01*
X147000000Y-110500000D02*
X150300000Y-110500000D01*
X151000000Y-109800000D02*
X151000000Y-104412500D01*
X143000000Y-104412500D02*
X144487500Y-104412500D01*
%TO.N,FLASH_SCK*%
X137625000Y-103135000D02*
X135335000Y-103135000D01*
D40*
X138165000Y-103135000D02*
X139900000Y-101400000D01*
D39*
X126800000Y-101400000D02*
X124025000Y-101400000D01*
X124025000Y-101400000D02*
X124000000Y-101375000D01*
X135335000Y-103135000D02*
X135300000Y-103100000D01*
D40*
X139900000Y-101016116D02*
X145250000Y-95666116D01*
X139900000Y-101400000D02*
X139900000Y-101016116D01*
X137625000Y-103135000D02*
X138165000Y-103135000D01*
X145250000Y-95666116D02*
X145250000Y-93662500D01*
D41*
%TO.N,THERM_OUT*%
X137500000Y-107200000D02*
X137500000Y-110500000D01*
X147750000Y-95475000D02*
X147875000Y-95600000D01*
D39*
X136362500Y-113550000D02*
X136362500Y-111637500D01*
X138637500Y-113550000D02*
X136362500Y-113550000D01*
D41*
X147750000Y-93662500D02*
X147750000Y-95475000D01*
D39*
X136362500Y-111637500D02*
X137500000Y-110500000D01*
D40*
%TO.N,FLASH_MISO*%
X135400000Y-101900000D02*
X135000000Y-101900000D01*
X141500000Y-100300000D02*
X145750000Y-96050000D01*
D39*
X130435000Y-101865000D02*
X126175000Y-106125000D01*
X132375000Y-101865000D02*
X130435000Y-101865000D01*
D40*
X134965000Y-101865000D02*
X132375000Y-101865000D01*
D39*
X126175000Y-106125000D02*
X124000000Y-106125000D01*
D40*
X135000000Y-101900000D02*
X134965000Y-101865000D01*
X145750000Y-96050000D02*
X145750000Y-93662500D01*
%TO.N,FLASH_nCS*%
X132375000Y-100025000D02*
X132375000Y-100595000D01*
D39*
X130780000Y-99000000D02*
X124000000Y-99000000D01*
X132375000Y-100595000D02*
X130780000Y-99000000D01*
D40*
X144750000Y-93662500D02*
X144750000Y-95350000D01*
X142000000Y-98100000D02*
X134300000Y-98100000D01*
X144750000Y-95350000D02*
X142000000Y-98100000D01*
X134300000Y-98100000D02*
X132375000Y-100025000D01*
D39*
%TO.N,FLASH_MOSI*%
X124050000Y-103800000D02*
X124000000Y-103750000D01*
D40*
X146275000Y-93687500D02*
X146250000Y-93662500D01*
X139700000Y-103000000D02*
X138295000Y-104405000D01*
D39*
X135205000Y-104405000D02*
X135200000Y-104400000D01*
D40*
X138295000Y-104405000D02*
X137625000Y-104405000D01*
D39*
X126800000Y-103800000D02*
X124050000Y-103800000D01*
D40*
X146275000Y-96425000D02*
X146275000Y-93687500D01*
D39*
X137625000Y-104405000D02*
X135205000Y-104405000D01*
D40*
X142400000Y-100300000D02*
X146275000Y-96425000D01*
D41*
%TO.N,THERM_OFST*%
X157000000Y-106000000D02*
X157000000Y-110500000D01*
D39*
X155862500Y-115450000D02*
X158137500Y-115450000D01*
D41*
X148250000Y-93662500D02*
X148250000Y-95126471D01*
D39*
X157000000Y-114312500D02*
X157000000Y-110500000D01*
D41*
X148250000Y-95126471D02*
X149200000Y-96076471D01*
D39*
X158137500Y-115450000D02*
X157000000Y-114312500D01*
D41*
X149200000Y-96076471D02*
X149200000Y-98200000D01*
X149200000Y-98200000D02*
X157000000Y-106000000D01*
D39*
%TO.N,Net-(Q1-G)*%
X148037500Y-102587500D02*
X147950000Y-102500000D01*
X147950000Y-102500000D02*
X147950000Y-100037500D01*
X147950000Y-100037500D02*
X147912500Y-100000000D01*
X151000000Y-102587500D02*
X148037500Y-102587500D01*
%TO.N,Net-(Q1-D)*%
X147000000Y-107100000D02*
X147000000Y-104600000D01*
X141500000Y-113587500D02*
X141500000Y-111500000D01*
X141500000Y-111500000D02*
X141500000Y-110900000D01*
X144600000Y-107800000D02*
X146300000Y-107800000D01*
X146300000Y-107800000D02*
X147000000Y-107100000D01*
%TO.N,Net-(Q1-S)*%
X143000000Y-102500000D02*
X146050000Y-102500000D01*
X143000000Y-102587500D02*
X143000000Y-102500000D01*
%TO.N,VCC*%
X148866250Y-74400000D02*
X147900000Y-74400000D01*
X149450000Y-72966250D02*
X149450000Y-73816250D01*
X147900000Y-74400000D02*
X146000000Y-74400000D01*
X149450000Y-73816250D02*
X148866250Y-74400000D01*
X146050000Y-75862500D02*
X146050000Y-74450000D01*
X146000000Y-74400000D02*
X145133750Y-74400000D01*
X147950000Y-75862500D02*
X147950000Y-74450000D01*
X146037500Y-75850000D02*
X146050000Y-75862500D01*
X147950000Y-74450000D02*
X147900000Y-74400000D01*
X145133750Y-74400000D02*
X144550000Y-73816250D01*
X143550000Y-75850000D02*
X146037500Y-75850000D01*
X146050000Y-74450000D02*
X146000000Y-74400000D01*
X144550000Y-73816250D02*
X144550000Y-72966250D01*
D40*
%TO.N,USART1_TX*%
X170675000Y-102710000D02*
X170665000Y-102700000D01*
X170665000Y-102700000D02*
X165500000Y-102700000D01*
X152550000Y-89750000D02*
X151162500Y-89750000D01*
X165500000Y-102700000D02*
X152550000Y-89750000D01*
D41*
%TO.N,LED0*%
X128600000Y-89400000D02*
X128533333Y-89333333D01*
X128533333Y-89333333D02*
X124457500Y-89333333D01*
X141350000Y-91750000D02*
X141300000Y-91700000D01*
X142837500Y-91750000D02*
X141350000Y-91750000D01*
%TO.N,BOOT0*%
X146250000Y-86107410D02*
X146300000Y-86157410D01*
X146250000Y-85337500D02*
X146250000Y-86107410D01*
X165900000Y-89787500D02*
X170337500Y-89787500D01*
X165900000Y-88400000D02*
X165900000Y-89787500D01*
X170337500Y-89787500D02*
X170725000Y-89400000D01*
X146300000Y-86157410D02*
X146300000Y-88400000D01*
%TO.N,Net-(D2-K)*%
X122582500Y-92371666D02*
X122587500Y-92366666D01*
X122582500Y-95400000D02*
X122582500Y-92371666D01*
%TO.N,SWDIO*%
X169350686Y-81750000D02*
X170055000Y-81750000D01*
X153944910Y-85737500D02*
X165363186Y-85737500D01*
X165363186Y-85737500D02*
X169350686Y-81750000D01*
X151932410Y-87750000D02*
X153944910Y-85737500D01*
X151162500Y-87750000D02*
X151932410Y-87750000D01*
%TO.N,SWDCLK*%
X165197500Y-85337500D02*
X170055000Y-80480000D01*
X149750000Y-85337500D02*
X165197500Y-85337500D01*
D40*
%TO.N,Net-(U1-PA8)*%
X154500000Y-93700000D02*
X154500000Y-92400000D01*
X154500000Y-92400000D02*
X152350000Y-90250000D01*
X152350000Y-90250000D02*
X151162500Y-90250000D01*
D39*
%TO.N,Net-(J2-Pin_1)*%
X145062500Y-115412500D02*
X145725000Y-114750000D01*
X141500000Y-115412500D02*
X145062500Y-115412500D01*
X138637500Y-115450000D02*
X141462500Y-115450000D01*
X141462500Y-115450000D02*
X141500000Y-115412500D01*
%TO.N,Net-(J2-Pin_2)*%
X153000000Y-113587500D02*
X149427500Y-113587500D01*
X155825000Y-113587500D02*
X155862500Y-113550000D01*
X153000000Y-113587500D02*
X155825000Y-113587500D01*
X149427500Y-113587500D02*
X148265000Y-114750000D01*
%TO.N,Net-(C8-Pad2)*%
X138000000Y-77200000D02*
X138000000Y-70400000D01*
X134912500Y-78000000D02*
X137200000Y-78000000D01*
X137200000Y-78000000D02*
X138000000Y-77200000D01*
%TD*%
%TA.AperFunction,Conductor*%
%TO.N,+3V3*%
G36*
X141073703Y-98745185D02*
G01*
X141119458Y-98797989D01*
X141129402Y-98867147D01*
X141100377Y-98930703D01*
X141094346Y-98937179D01*
X139501269Y-100530256D01*
X139501267Y-100530258D01*
X139457703Y-100573821D01*
X139414140Y-100617384D01*
X139392016Y-100650497D01*
X139392014Y-100650500D01*
X139345690Y-100719826D01*
X139345687Y-100719832D01*
X139323043Y-100774498D01*
X139323044Y-100774499D01*
X139301805Y-100825776D01*
X139298536Y-100833667D01*
X139295772Y-100847566D01*
X139295771Y-100847569D01*
X139275297Y-100950501D01*
X139275295Y-100950511D01*
X139274501Y-100954500D01*
X139274500Y-100954511D01*
X139274500Y-101089546D01*
X139254815Y-101156585D01*
X139238181Y-101177227D01*
X139036730Y-101378677D01*
X138975407Y-101412162D01*
X138905715Y-101407178D01*
X138849782Y-101365306D01*
X138842324Y-101354129D01*
X138818081Y-101313135D01*
X138818076Y-101313130D01*
X138813298Y-101306969D01*
X138815635Y-101305155D01*
X138788798Y-101256050D01*
X138793756Y-101186356D01*
X138814554Y-101153998D01*
X138812903Y-101152717D01*
X138817686Y-101146550D01*
X138901281Y-101005198D01*
X138947100Y-100847486D01*
X138947295Y-100845001D01*
X138947295Y-100845000D01*
X136302705Y-100845000D01*
X136302704Y-100845001D01*
X136302899Y-100847486D01*
X136348718Y-101005198D01*
X136432314Y-101146552D01*
X136437100Y-101152722D01*
X136434640Y-101154629D01*
X136461210Y-101203288D01*
X136456226Y-101272980D01*
X136435162Y-101305781D01*
X136436699Y-101306974D01*
X136431915Y-101313140D01*
X136348255Y-101454603D01*
X136348254Y-101454605D01*
X136335948Y-101496963D01*
X136298341Y-101555849D01*
X136234868Y-101585054D01*
X136165682Y-101575307D01*
X136112748Y-101529703D01*
X136111878Y-101528339D01*
X136085902Y-101486998D01*
X136029816Y-101397738D01*
X135902262Y-101270184D01*
X135838310Y-101230000D01*
X135749523Y-101174211D01*
X135579254Y-101114631D01*
X135579249Y-101114630D01*
X135400004Y-101094435D01*
X135399996Y-101094435D01*
X135220750Y-101114630D01*
X135220737Y-101114633D01*
X135050481Y-101174209D01*
X135050477Y-101174210D01*
X134976819Y-101220494D01*
X134910847Y-101239500D01*
X133730692Y-101239500D01*
X133663653Y-101219815D01*
X133617898Y-101167011D01*
X133607954Y-101097853D01*
X133623959Y-101052380D01*
X133625085Y-101050476D01*
X133651744Y-101005398D01*
X133697598Y-100847569D01*
X133700500Y-100810694D01*
X133700500Y-100379306D01*
X133697800Y-100344998D01*
X136302704Y-100344998D01*
X136302705Y-100345000D01*
X137375000Y-100345000D01*
X137875000Y-100345000D01*
X138947295Y-100345000D01*
X138947295Y-100344998D01*
X138947100Y-100342513D01*
X138901281Y-100184801D01*
X138817685Y-100043447D01*
X138817678Y-100043438D01*
X138701561Y-99927321D01*
X138701552Y-99927314D01*
X138560196Y-99843717D01*
X138560193Y-99843716D01*
X138402495Y-99797900D01*
X138402489Y-99797899D01*
X138365649Y-99795000D01*
X137875000Y-99795000D01*
X137875000Y-100345000D01*
X137375000Y-100345000D01*
X137375000Y-99795000D01*
X136884350Y-99795000D01*
X136847510Y-99797899D01*
X136847504Y-99797900D01*
X136689806Y-99843716D01*
X136689803Y-99843717D01*
X136548447Y-99927314D01*
X136548438Y-99927321D01*
X136432321Y-100043438D01*
X136432314Y-100043447D01*
X136348718Y-100184801D01*
X136302899Y-100342513D01*
X136302704Y-100344998D01*
X133697800Y-100344998D01*
X133697598Y-100342431D01*
X133687765Y-100308587D01*
X133651745Y-100184606D01*
X133651744Y-100184603D01*
X133651744Y-100184602D01*
X133568081Y-100043135D01*
X133568079Y-100043133D01*
X133568076Y-100043129D01*
X133492449Y-99967502D01*
X133458964Y-99906179D01*
X133463948Y-99836487D01*
X133492449Y-99792140D01*
X133985991Y-99298599D01*
X134522771Y-98761819D01*
X134584094Y-98728334D01*
X134610452Y-98725500D01*
X141006664Y-98725500D01*
X141073703Y-98745185D01*
G37*
%TD.AperFunction*%
%TA.AperFunction,Conductor*%
G36*
X149879761Y-87643509D02*
G01*
X149918735Y-87701499D01*
X149924500Y-87738869D01*
X149924500Y-87862727D01*
X149940374Y-87983292D01*
X149937399Y-87983683D01*
X149937399Y-88016316D01*
X149940374Y-88016708D01*
X149924500Y-88137272D01*
X149924500Y-88362727D01*
X149940374Y-88483292D01*
X149937399Y-88483683D01*
X149937399Y-88516316D01*
X149940374Y-88516708D01*
X149939313Y-88524762D01*
X149939313Y-88524764D01*
X149938282Y-88532599D01*
X149924500Y-88637272D01*
X149924500Y-88862727D01*
X149940374Y-88983292D01*
X149937399Y-88983683D01*
X149937399Y-89016316D01*
X149940374Y-89016708D01*
X149939313Y-89024762D01*
X149939313Y-89024764D01*
X149938282Y-89032599D01*
X149924500Y-89137272D01*
X149924500Y-89362727D01*
X149940374Y-89483292D01*
X149937399Y-89483683D01*
X149937399Y-89516316D01*
X149940374Y-89516708D01*
X149924500Y-89637272D01*
X149924500Y-89862727D01*
X149933862Y-89933833D01*
X149937489Y-89961384D01*
X149940374Y-89983292D01*
X149937399Y-89983683D01*
X149937399Y-90016316D01*
X149940374Y-90016708D01*
X149924500Y-90137272D01*
X149924500Y-90362727D01*
X149934409Y-90437989D01*
X149938485Y-90468950D01*
X149940374Y-90483292D01*
X149937399Y-90483683D01*
X149937399Y-90516316D01*
X149940374Y-90516708D01*
X149924500Y-90637272D01*
X149924500Y-90862727D01*
X149931858Y-90918610D01*
X149939120Y-90973772D01*
X149940374Y-90983292D01*
X149937399Y-90983683D01*
X149937399Y-91016316D01*
X149940374Y-91016708D01*
X149939313Y-91024762D01*
X149939313Y-91024764D01*
X149938536Y-91030666D01*
X149924500Y-91137272D01*
X149924500Y-91362727D01*
X149940374Y-91483292D01*
X149937399Y-91483683D01*
X149937399Y-91516316D01*
X149940374Y-91516708D01*
X149924500Y-91637272D01*
X149924500Y-91862727D01*
X149940374Y-91983292D01*
X149937399Y-91983683D01*
X149937399Y-92016316D01*
X149940374Y-92016708D01*
X149924500Y-92137272D01*
X149924500Y-92352242D01*
X149904815Y-92419281D01*
X149900000Y-92424871D01*
X149900000Y-92464364D01*
X149880315Y-92531403D01*
X149827511Y-92577158D01*
X149758353Y-92587102D01*
X149700514Y-92562740D01*
X149648514Y-92522839D01*
X149607311Y-92466411D01*
X149601121Y-92430895D01*
X149599999Y-92429911D01*
X149517270Y-92440804D01*
X149483527Y-92438593D01*
X149483293Y-92440374D01*
X149475236Y-92439313D01*
X149455451Y-92436708D01*
X149362727Y-92424500D01*
X149362720Y-92424500D01*
X149137280Y-92424500D01*
X149137272Y-92424500D01*
X149050393Y-92435938D01*
X149024764Y-92439313D01*
X149024762Y-92439313D01*
X149016708Y-92440374D01*
X149016316Y-92437399D01*
X148983684Y-92437399D01*
X148983292Y-92440374D01*
X148975237Y-92439313D01*
X148975236Y-92439313D01*
X148946271Y-92435499D01*
X148862727Y-92424500D01*
X148862720Y-92424500D01*
X148637280Y-92424500D01*
X148637272Y-92424500D01*
X148550393Y-92435938D01*
X148524764Y-92439313D01*
X148524762Y-92439313D01*
X148516708Y-92440374D01*
X148516316Y-92437399D01*
X148483684Y-92437399D01*
X148483292Y-92440374D01*
X148475237Y-92439313D01*
X148475236Y-92439313D01*
X148446271Y-92435499D01*
X148362727Y-92424500D01*
X148362720Y-92424500D01*
X148137280Y-92424500D01*
X148137272Y-92424500D01*
X148050393Y-92435938D01*
X148024764Y-92439313D01*
X148024762Y-92439313D01*
X148016708Y-92440374D01*
X148016316Y-92437399D01*
X147983684Y-92437399D01*
X147983292Y-92440374D01*
X147975237Y-92439313D01*
X147975236Y-92439313D01*
X147946271Y-92435499D01*
X147862727Y-92424500D01*
X147862720Y-92424500D01*
X147637280Y-92424500D01*
X147637272Y-92424500D01*
X147550393Y-92435938D01*
X147524764Y-92439313D01*
X147524762Y-92439313D01*
X147516708Y-92440374D01*
X147516316Y-92437399D01*
X147483684Y-92437399D01*
X147483292Y-92440374D01*
X147475237Y-92439313D01*
X147475236Y-92439313D01*
X147446271Y-92435499D01*
X147362727Y-92424500D01*
X147362720Y-92424500D01*
X147137280Y-92424500D01*
X147137272Y-92424500D01*
X147050393Y-92435938D01*
X147024764Y-92439313D01*
X147024762Y-92439313D01*
X147016708Y-92440374D01*
X147016316Y-92437399D01*
X146983684Y-92437399D01*
X146983292Y-92440374D01*
X146975237Y-92439313D01*
X146975236Y-92439313D01*
X146946271Y-92435499D01*
X146862727Y-92424500D01*
X146862720Y-92424500D01*
X146637280Y-92424500D01*
X146637272Y-92424500D01*
X146550393Y-92435938D01*
X146524764Y-92439313D01*
X146524762Y-92439313D01*
X146516708Y-92440374D01*
X146516316Y-92437399D01*
X146483684Y-92437399D01*
X146483292Y-92440374D01*
X146475237Y-92439313D01*
X146475236Y-92439313D01*
X146446271Y-92435499D01*
X146362727Y-92424500D01*
X146362720Y-92424500D01*
X146137280Y-92424500D01*
X146137272Y-92424500D01*
X146050393Y-92435938D01*
X146024764Y-92439313D01*
X146024762Y-92439313D01*
X146016708Y-92440374D01*
X146016316Y-92437399D01*
X145983684Y-92437399D01*
X145983292Y-92440374D01*
X145975237Y-92439313D01*
X145975236Y-92439313D01*
X145946271Y-92435499D01*
X145862727Y-92424500D01*
X145862720Y-92424500D01*
X145637280Y-92424500D01*
X145637272Y-92424500D01*
X145550393Y-92435938D01*
X145524764Y-92439313D01*
X145524762Y-92439313D01*
X145516708Y-92440374D01*
X145516316Y-92437399D01*
X145483684Y-92437399D01*
X145483292Y-92440374D01*
X145475237Y-92439313D01*
X145475236Y-92439313D01*
X145446271Y-92435499D01*
X145362727Y-92424500D01*
X145362720Y-92424500D01*
X145137280Y-92424500D01*
X145137272Y-92424500D01*
X145050393Y-92435938D01*
X145024764Y-92439313D01*
X145024762Y-92439313D01*
X145016708Y-92440374D01*
X145016316Y-92437399D01*
X144983684Y-92437399D01*
X144983292Y-92440374D01*
X144975237Y-92439313D01*
X144975236Y-92439313D01*
X144946271Y-92435499D01*
X144862727Y-92424500D01*
X144862720Y-92424500D01*
X144637280Y-92424500D01*
X144637272Y-92424500D01*
X144550393Y-92435938D01*
X144524764Y-92439313D01*
X144524762Y-92439313D01*
X144516708Y-92440374D01*
X144516316Y-92437399D01*
X144483684Y-92437399D01*
X144483292Y-92440374D01*
X144475237Y-92439313D01*
X144475236Y-92439313D01*
X144446271Y-92435499D01*
X144362727Y-92424500D01*
X144362720Y-92424500D01*
X144199500Y-92424500D01*
X144132461Y-92404815D01*
X144086706Y-92352011D01*
X144075500Y-92300500D01*
X144075500Y-92137286D01*
X144075500Y-92137280D01*
X144060687Y-92024764D01*
X144060686Y-92024763D01*
X144059626Y-92016705D01*
X144062689Y-92016301D01*
X144062689Y-91983698D01*
X144059626Y-91983295D01*
X144066006Y-91934833D01*
X144075500Y-91862720D01*
X144075500Y-91637280D01*
X144060687Y-91524764D01*
X144060686Y-91524763D01*
X144059626Y-91516705D01*
X144062689Y-91516301D01*
X144062689Y-91483698D01*
X144059626Y-91483295D01*
X144064271Y-91448010D01*
X144075500Y-91362720D01*
X144075500Y-91137280D01*
X144060687Y-91024764D01*
X144060686Y-91024763D01*
X144059626Y-91016705D01*
X144061406Y-91016470D01*
X144059196Y-90982729D01*
X144070088Y-90900000D01*
X144068198Y-90897845D01*
X144008498Y-90880315D01*
X143977162Y-90851488D01*
X143957211Y-90825488D01*
X143932016Y-90760319D01*
X143946054Y-90691874D01*
X143957211Y-90674512D01*
X143957880Y-90673641D01*
X143977162Y-90648512D01*
X144033590Y-90607310D01*
X144069105Y-90601120D01*
X144070088Y-90599999D01*
X144059196Y-90517270D01*
X144062371Y-90468950D01*
X144062796Y-90467366D01*
X144099181Y-90407718D01*
X144162038Y-90377210D01*
X144182560Y-90375500D01*
X146611608Y-90375500D01*
X146611608Y-90375499D01*
X146679221Y-90362051D01*
X146679223Y-90362051D01*
X146732442Y-90351465D01*
X146732442Y-90351464D01*
X146732452Y-90351463D01*
X146765792Y-90337652D01*
X146846286Y-90304312D01*
X146905794Y-90264549D01*
X146905795Y-90264549D01*
X146934223Y-90245552D01*
X146948733Y-90235858D01*
X147035858Y-90148733D01*
X147035858Y-90148731D01*
X147046066Y-90138524D01*
X147046067Y-90138521D01*
X149458380Y-87726209D01*
X149519701Y-87692726D01*
X149532158Y-87690674D01*
X149579255Y-87685368D01*
X149749522Y-87625789D01*
X149749522Y-87625788D01*
X149756095Y-87623489D01*
X149756795Y-87625489D01*
X149815623Y-87615795D01*
X149879761Y-87643509D01*
G37*
%TD.AperFunction*%
%TA.AperFunction,Conductor*%
G36*
X174942539Y-65770185D02*
G01*
X174988294Y-65822989D01*
X174999500Y-65874500D01*
X174999500Y-119125500D01*
X174979815Y-119192539D01*
X174927011Y-119238294D01*
X174875500Y-119249500D01*
X119124500Y-119249500D01*
X119057461Y-119229815D01*
X119011706Y-119177011D01*
X119000500Y-119125500D01*
X119000500Y-114749999D01*
X119994696Y-114749999D01*
X119994696Y-114750000D01*
X120013898Y-115116405D01*
X120038759Y-115273368D01*
X120071295Y-115478794D01*
X120137268Y-115725009D01*
X120166260Y-115833206D01*
X120297746Y-116175739D01*
X120464320Y-116502656D01*
X120664147Y-116810364D01*
X120704664Y-116860398D01*
X120895051Y-117095506D01*
X121154494Y-117354949D01*
X121154498Y-117354952D01*
X121439635Y-117585852D01*
X121747343Y-117785679D01*
X121747348Y-117785682D01*
X122074264Y-117952255D01*
X122416801Y-118083742D01*
X122771206Y-118178705D01*
X123133596Y-118236102D01*
X123479734Y-118254241D01*
X123499999Y-118255304D01*
X123500000Y-118255304D01*
X123500001Y-118255304D01*
X123519203Y-118254297D01*
X123866404Y-118236102D01*
X124228794Y-118178705D01*
X124583199Y-118083742D01*
X124925736Y-117952255D01*
X125252652Y-117785682D01*
X125560366Y-117585851D01*
X125845506Y-117354949D01*
X126104949Y-117095506D01*
X126335851Y-116810366D01*
X126535682Y-116502652D01*
X126702255Y-116175736D01*
X126833742Y-115833199D01*
X126928705Y-115478794D01*
X126986102Y-115116404D01*
X127005304Y-114750000D01*
X126986102Y-114383596D01*
X126928705Y-114021206D01*
X126833742Y-113666801D01*
X126702255Y-113324264D01*
X126535682Y-112997348D01*
X126527902Y-112985368D01*
X126335852Y-112689635D01*
X126104952Y-112404498D01*
X126104949Y-112404494D01*
X125845506Y-112145051D01*
X125813010Y-112118736D01*
X125560364Y-111914147D01*
X125252656Y-111714320D01*
X124925739Y-111547746D01*
X124583206Y-111416260D01*
X124583199Y-111416258D01*
X124228794Y-111321295D01*
X124228790Y-111321294D01*
X124228789Y-111321294D01*
X123866405Y-111263898D01*
X123500001Y-111244696D01*
X123499999Y-111244696D01*
X123133594Y-111263898D01*
X122771211Y-111321294D01*
X122771209Y-111321294D01*
X122416793Y-111416260D01*
X122074260Y-111547746D01*
X121747343Y-111714320D01*
X121439635Y-111914147D01*
X121154498Y-112145047D01*
X121154490Y-112145054D01*
X120895054Y-112404490D01*
X120895047Y-112404498D01*
X120664147Y-112689635D01*
X120464320Y-112997343D01*
X120297746Y-113324260D01*
X120166260Y-113666793D01*
X120071294Y-114021209D01*
X120071294Y-114021211D01*
X120013898Y-114383594D01*
X119994696Y-114749999D01*
X119000500Y-114749999D01*
X119000500Y-101375000D01*
X122494659Y-101375000D01*
X122513975Y-101571129D01*
X122513976Y-101571132D01*
X122562862Y-101732288D01*
X122571188Y-101759733D01*
X122664086Y-101933532D01*
X122664090Y-101933539D01*
X122789116Y-102085883D01*
X122941460Y-102210909D01*
X122941467Y-102210913D01*
X123115266Y-102303811D01*
X123115269Y-102303811D01*
X123115273Y-102303814D01*
X123303868Y-102361024D01*
X123500000Y-102380341D01*
X123696132Y-102361024D01*
X123884727Y-102303814D01*
X124058538Y-102210910D01*
X124097849Y-102178648D01*
X124162159Y-102151334D01*
X124176515Y-102150500D01*
X126500028Y-102150500D01*
X126540983Y-102157458D01*
X126620745Y-102185368D01*
X126620750Y-102185369D01*
X126799996Y-102205565D01*
X126800000Y-102205565D01*
X126800004Y-102205565D01*
X126979249Y-102185369D01*
X126979252Y-102185368D01*
X126979255Y-102185368D01*
X127149522Y-102125789D01*
X127302262Y-102029816D01*
X127429816Y-101902262D01*
X127525789Y-101749522D01*
X127585368Y-101579255D01*
X127585904Y-101574500D01*
X127605565Y-101400003D01*
X127605565Y-101399996D01*
X127585369Y-101220750D01*
X127585368Y-101220745D01*
X127577031Y-101196919D01*
X127525789Y-101050478D01*
X127520909Y-101042712D01*
X127463151Y-100950791D01*
X127429816Y-100897738D01*
X127302262Y-100770184D01*
X127231608Y-100725789D01*
X127149523Y-100674211D01*
X126979254Y-100614631D01*
X126979249Y-100614630D01*
X126800004Y-100594435D01*
X126799996Y-100594435D01*
X126620750Y-100614630D01*
X126620745Y-100614631D01*
X126540983Y-100642542D01*
X126500028Y-100649500D01*
X124237441Y-100649500D01*
X124170402Y-100629815D01*
X124158776Y-100621353D01*
X124058539Y-100539090D01*
X124058532Y-100539086D01*
X123884733Y-100446188D01*
X123884727Y-100446186D01*
X123722692Y-100397033D01*
X123696129Y-100388975D01*
X123500000Y-100369659D01*
X123303870Y-100388975D01*
X123115266Y-100446188D01*
X122941467Y-100539086D01*
X122941460Y-100539090D01*
X122789116Y-100664116D01*
X122664090Y-100816460D01*
X122664086Y-100816467D01*
X122571188Y-100990266D01*
X122513975Y-101178870D01*
X122494659Y-101375000D01*
X119000500Y-101375000D01*
X119000500Y-99000000D01*
X122494659Y-99000000D01*
X122513975Y-99196129D01*
X122513976Y-99196132D01*
X122556714Y-99337021D01*
X122571188Y-99384733D01*
X122664086Y-99558532D01*
X122664090Y-99558539D01*
X122789116Y-99710883D01*
X122941460Y-99835909D01*
X122941467Y-99835913D01*
X123115266Y-99928811D01*
X123115269Y-99928811D01*
X123115273Y-99928814D01*
X123303868Y-99986024D01*
X123500000Y-100005341D01*
X123696132Y-99986024D01*
X123884727Y-99928814D01*
X123887521Y-99927321D01*
X124043934Y-99843716D01*
X124058538Y-99835910D01*
X124128313Y-99778647D01*
X124192623Y-99751334D01*
X124206978Y-99750500D01*
X130417770Y-99750500D01*
X130484809Y-99770185D01*
X130505451Y-99786819D01*
X131013181Y-100294549D01*
X131046666Y-100355872D01*
X131049500Y-100382230D01*
X131049500Y-100810701D01*
X131049954Y-100816462D01*
X131052395Y-100847486D01*
X131052402Y-100847566D01*
X131052402Y-100847569D01*
X131083876Y-100955905D01*
X131083677Y-101025775D01*
X131045735Y-101084445D01*
X130982096Y-101113288D01*
X130964800Y-101114500D01*
X130361080Y-101114500D01*
X130216092Y-101143340D01*
X130216082Y-101143343D01*
X130079509Y-101199913D01*
X130079507Y-101199914D01*
X130071388Y-101205340D01*
X130066666Y-101208495D01*
X129956579Y-101282051D01*
X127733341Y-103505289D01*
X127672018Y-103538774D01*
X127602326Y-103533790D01*
X127546393Y-103491918D01*
X127528618Y-103458562D01*
X127525789Y-103450478D01*
X127486425Y-103387831D01*
X127429816Y-103297738D01*
X127302262Y-103170184D01*
X127281754Y-103157298D01*
X127149523Y-103074211D01*
X126979254Y-103014631D01*
X126979249Y-103014630D01*
X126800004Y-102994435D01*
X126799996Y-102994435D01*
X126620750Y-103014630D01*
X126620745Y-103014631D01*
X126540983Y-103042542D01*
X126500028Y-103049500D01*
X124294657Y-103049500D01*
X124247205Y-103040061D01*
X124218916Y-103028343D01*
X124213086Y-103026575D01*
X124213531Y-103025107D01*
X124166975Y-103003082D01*
X124058539Y-102914090D01*
X124058532Y-102914086D01*
X123884733Y-102821188D01*
X123884727Y-102821186D01*
X123696132Y-102763976D01*
X123696129Y-102763975D01*
X123500000Y-102744659D01*
X123303870Y-102763975D01*
X123115266Y-102821188D01*
X122941467Y-102914086D01*
X122941460Y-102914090D01*
X122789116Y-103039116D01*
X122664090Y-103191460D01*
X122664086Y-103191467D01*
X122571188Y-103365266D01*
X122513975Y-103553870D01*
X122494659Y-103750000D01*
X122513975Y-103946129D01*
X122513976Y-103946132D01*
X122561297Y-104102129D01*
X122571188Y-104134733D01*
X122664086Y-104308532D01*
X122664090Y-104308539D01*
X122789116Y-104460883D01*
X122941460Y-104585909D01*
X122941467Y-104585913D01*
X123115266Y-104678811D01*
X123115269Y-104678811D01*
X123115273Y-104678814D01*
X123303868Y-104736024D01*
X123500000Y-104755341D01*
X123696132Y-104736024D01*
X123884727Y-104678814D01*
X124058538Y-104585910D01*
X124067387Y-104578647D01*
X124131696Y-104551334D01*
X124146053Y-104550500D01*
X126388769Y-104550500D01*
X126455808Y-104570185D01*
X126501563Y-104622989D01*
X126511507Y-104692147D01*
X126482482Y-104755703D01*
X126476450Y-104762181D01*
X125900451Y-105338181D01*
X125839128Y-105371666D01*
X125812770Y-105374500D01*
X124206978Y-105374500D01*
X124139939Y-105354815D01*
X124128313Y-105346353D01*
X124058539Y-105289090D01*
X124058532Y-105289086D01*
X123884733Y-105196188D01*
X123884727Y-105196186D01*
X123696132Y-105138976D01*
X123696129Y-105138975D01*
X123500000Y-105119659D01*
X123303870Y-105138975D01*
X123115266Y-105196188D01*
X122941467Y-105289086D01*
X122941460Y-105289090D01*
X122789116Y-105414116D01*
X122664090Y-105566460D01*
X122664086Y-105566467D01*
X122571188Y-105740266D01*
X122513975Y-105928870D01*
X122494659Y-106125000D01*
X122513975Y-106321129D01*
X122513976Y-106321132D01*
X122542338Y-106414630D01*
X122571188Y-106509733D01*
X122664086Y-106683532D01*
X122664090Y-106683539D01*
X122789116Y-106835883D01*
X122941460Y-106960909D01*
X122941467Y-106960913D01*
X123115266Y-107053811D01*
X123115269Y-107053811D01*
X123115273Y-107053814D01*
X123303868Y-107111024D01*
X123500000Y-107130341D01*
X123696132Y-107111024D01*
X123884727Y-107053814D01*
X123905816Y-107042542D01*
X124058532Y-106960913D01*
X124058538Y-106960910D01*
X124128313Y-106903647D01*
X124192623Y-106876334D01*
X124206978Y-106875500D01*
X126163769Y-106875500D01*
X126230808Y-106895185D01*
X126276563Y-106947989D01*
X126286507Y-107017147D01*
X126257482Y-107080703D01*
X126251450Y-107087181D01*
X125625451Y-107713181D01*
X125564128Y-107746666D01*
X125537770Y-107749500D01*
X124206978Y-107749500D01*
X124139939Y-107729815D01*
X124128313Y-107721353D01*
X124058539Y-107664090D01*
X124058532Y-107664086D01*
X123884733Y-107571188D01*
X123884727Y-107571186D01*
X123696132Y-107513976D01*
X123696129Y-107513975D01*
X123500000Y-107494659D01*
X123303870Y-107513975D01*
X123115266Y-107571188D01*
X122941467Y-107664086D01*
X122941460Y-107664090D01*
X122789116Y-107789116D01*
X122664090Y-107941460D01*
X122664086Y-107941467D01*
X122571188Y-108115266D01*
X122513975Y-108303870D01*
X122494659Y-108500000D01*
X122513975Y-108696129D01*
X122571188Y-108884733D01*
X122664086Y-109058532D01*
X122664090Y-109058539D01*
X122789116Y-109210883D01*
X122941460Y-109335909D01*
X122941467Y-109335913D01*
X123115266Y-109428811D01*
X123115269Y-109428811D01*
X123115273Y-109428814D01*
X123303868Y-109486024D01*
X123500000Y-109505341D01*
X123696132Y-109486024D01*
X123884727Y-109428814D01*
X124058538Y-109335910D01*
X124128313Y-109278647D01*
X124192623Y-109251334D01*
X124206978Y-109250500D01*
X125973920Y-109250500D01*
X126071462Y-109231096D01*
X126118913Y-109221658D01*
X126255495Y-109165084D01*
X126304729Y-109132186D01*
X126378416Y-109082952D01*
X130848177Y-104613190D01*
X130909498Y-104579707D01*
X130979190Y-104584691D01*
X131035123Y-104626563D01*
X131054932Y-104666278D01*
X131098254Y-104815393D01*
X131098255Y-104815396D01*
X131098256Y-104815398D01*
X131181918Y-104956864D01*
X131181923Y-104956870D01*
X131298129Y-105073076D01*
X131298133Y-105073079D01*
X131298135Y-105073081D01*
X131439602Y-105156744D01*
X131535097Y-105184488D01*
X131593980Y-105222092D01*
X131623187Y-105285564D01*
X131624500Y-105303563D01*
X131624500Y-105871474D01*
X131617542Y-105912427D01*
X131614631Y-105920745D01*
X131614631Y-105920746D01*
X131594435Y-106099996D01*
X131594435Y-106100003D01*
X131614630Y-106279249D01*
X131614631Y-106279254D01*
X131674211Y-106449523D01*
X131679253Y-106457547D01*
X131770184Y-106602262D01*
X131897738Y-106729816D01*
X131988080Y-106786582D01*
X132017088Y-106804809D01*
X132050478Y-106825789D01*
X132192544Y-106875500D01*
X132220745Y-106885368D01*
X132220750Y-106885369D01*
X132399996Y-106905565D01*
X132400000Y-106905565D01*
X132400004Y-106905565D01*
X132579249Y-106885369D01*
X132579252Y-106885368D01*
X132579255Y-106885368D01*
X132749522Y-106825789D01*
X132902262Y-106729816D01*
X133029816Y-106602262D01*
X133125789Y-106449522D01*
X133185368Y-106279255D01*
X133185369Y-106279249D01*
X133205565Y-106100003D01*
X133205565Y-106099996D01*
X133185369Y-105920750D01*
X133185366Y-105920737D01*
X133132459Y-105769538D01*
X133125500Y-105728583D01*
X133125500Y-105303563D01*
X133145185Y-105236524D01*
X133197989Y-105190769D01*
X133214890Y-105184491D01*
X133310398Y-105156744D01*
X133451865Y-105073081D01*
X133568081Y-104956865D01*
X133599751Y-104903312D01*
X133650818Y-104855631D01*
X133719559Y-104843126D01*
X133784149Y-104869771D01*
X133794163Y-104878754D01*
X134801263Y-105885855D01*
X134801267Y-105885858D01*
X134903710Y-105954309D01*
X134903711Y-105954309D01*
X134903715Y-105954312D01*
X134970396Y-105981931D01*
X134970398Y-105981933D01*
X135000129Y-105994247D01*
X135017548Y-106001463D01*
X135138394Y-106025500D01*
X135138396Y-106025500D01*
X138245491Y-106025500D01*
X138305913Y-106013481D01*
X138366336Y-106001463D01*
X138366339Y-106001461D01*
X138366342Y-106001461D01*
X138399671Y-105987654D01*
X138399670Y-105987654D01*
X138399676Y-105987652D01*
X138480170Y-105954312D01*
X138531393Y-105920084D01*
X138582617Y-105885858D01*
X138669742Y-105798733D01*
X138669742Y-105798731D01*
X138679950Y-105788524D01*
X138679952Y-105788521D01*
X141593569Y-102874903D01*
X141654890Y-102841420D01*
X141724582Y-102846404D01*
X141780515Y-102888276D01*
X141804606Y-102949984D01*
X141810001Y-103002797D01*
X141810001Y-103002799D01*
X141865185Y-103169331D01*
X141865187Y-103169336D01*
X141900069Y-103225888D01*
X141957287Y-103318655D01*
X141957289Y-103318657D01*
X142050951Y-103412319D01*
X142084436Y-103473642D01*
X142079452Y-103543334D01*
X142050951Y-103587681D01*
X141957289Y-103681342D01*
X141865187Y-103830663D01*
X141865185Y-103830668D01*
X141853703Y-103865318D01*
X141810001Y-103997203D01*
X141810001Y-103997204D01*
X141810000Y-103997204D01*
X141799500Y-104099983D01*
X141799500Y-104725001D01*
X141799501Y-104725019D01*
X141810000Y-104827796D01*
X141810001Y-104827799D01*
X141865185Y-104994331D01*
X141865186Y-104994334D01*
X141957288Y-105143656D01*
X142081344Y-105267712D01*
X142190597Y-105335099D01*
X142237321Y-105387047D01*
X142249500Y-105440638D01*
X142249500Y-109773918D01*
X142249500Y-109773920D01*
X142249499Y-109773920D01*
X142278340Y-109918907D01*
X142278343Y-109918917D01*
X142334912Y-110055488D01*
X142334916Y-110055495D01*
X142360933Y-110094432D01*
X142360934Y-110094435D01*
X142360935Y-110094435D01*
X142414238Y-110174211D01*
X142417051Y-110178420D01*
X142417052Y-110178421D01*
X143321584Y-111082952D01*
X143321586Y-111082954D01*
X143351058Y-111102645D01*
X143395270Y-111132186D01*
X143444505Y-111165084D01*
X143444506Y-111165084D01*
X143444507Y-111165085D01*
X143444509Y-111165086D01*
X143581082Y-111221656D01*
X143581087Y-111221658D01*
X143581091Y-111221658D01*
X143581092Y-111221659D01*
X143726079Y-111250500D01*
X143726082Y-111250500D01*
X143726083Y-111250500D01*
X143873918Y-111250500D01*
X146125500Y-111250500D01*
X146192539Y-111270185D01*
X146238294Y-111322989D01*
X146249500Y-111374500D01*
X146249500Y-111900028D01*
X146242542Y-111940982D01*
X146214631Y-112020747D01*
X146194435Y-112199996D01*
X146194435Y-112200003D01*
X146214630Y-112379249D01*
X146214631Y-112379254D01*
X146274211Y-112549523D01*
X146353368Y-112675500D01*
X146370184Y-112702262D01*
X146497738Y-112829816D01*
X146539954Y-112856342D01*
X146645114Y-112922419D01*
X146650478Y-112925789D01*
X146820745Y-112985368D01*
X146820750Y-112985369D01*
X146999996Y-113005565D01*
X147000000Y-113005565D01*
X147000004Y-113005565D01*
X147179249Y-112985369D01*
X147179252Y-112985368D01*
X147179255Y-112985368D01*
X147349522Y-112925789D01*
X147502262Y-112829816D01*
X147629816Y-112702262D01*
X147725789Y-112549522D01*
X147785368Y-112379255D01*
X147785369Y-112379249D01*
X147805565Y-112200003D01*
X147805565Y-112199996D01*
X147785368Y-112020747D01*
X147785368Y-112020745D01*
X147757458Y-111940982D01*
X147750500Y-111900028D01*
X147750500Y-111374500D01*
X147770185Y-111307461D01*
X147822989Y-111261706D01*
X147874500Y-111250500D01*
X150373920Y-111250500D01*
X150471462Y-111231096D01*
X150518913Y-111221658D01*
X150655495Y-111165084D01*
X150704729Y-111132186D01*
X150704734Y-111132183D01*
X150729071Y-111115921D01*
X150778416Y-111082952D01*
X151582951Y-110278416D01*
X151665084Y-110155495D01*
X151721658Y-110018913D01*
X151737064Y-109941462D01*
X151750500Y-109873918D01*
X151750500Y-105440638D01*
X151770185Y-105373599D01*
X151809401Y-105335100D01*
X151918656Y-105267712D01*
X152042712Y-105143656D01*
X152134814Y-104994334D01*
X152189999Y-104827797D01*
X152200500Y-104725009D01*
X152200499Y-104099992D01*
X152194621Y-104042454D01*
X152189999Y-103997203D01*
X152189998Y-103997200D01*
X152176413Y-103956203D01*
X152134814Y-103830666D01*
X152042712Y-103681344D01*
X151949049Y-103587681D01*
X151915564Y-103526358D01*
X151920548Y-103456666D01*
X151949049Y-103412319D01*
X151990533Y-103370835D01*
X152042712Y-103318656D01*
X152134814Y-103169334D01*
X152189999Y-103002797D01*
X152200500Y-102900009D01*
X152200499Y-102349096D01*
X152220183Y-102282058D01*
X152272987Y-102236303D01*
X152342146Y-102226359D01*
X152405702Y-102255384D01*
X152412180Y-102261416D01*
X156363181Y-106212416D01*
X156396666Y-106273739D01*
X156399500Y-106300097D01*
X156399500Y-109639880D01*
X156379815Y-109706919D01*
X156354169Y-109735729D01*
X156289117Y-109789117D01*
X156289114Y-109789119D01*
X156289112Y-109789122D01*
X156164090Y-109941460D01*
X156164089Y-109941463D01*
X156071188Y-110115266D01*
X156013975Y-110303870D01*
X155994659Y-110500000D01*
X156013975Y-110696129D01*
X156071188Y-110884733D01*
X156164084Y-111058529D01*
X156164087Y-111058533D01*
X156164090Y-111058538D01*
X156221354Y-111128314D01*
X156248666Y-111192620D01*
X156249500Y-111206976D01*
X156249500Y-112625500D01*
X156229815Y-112692539D01*
X156177011Y-112738294D01*
X156125500Y-112749500D01*
X155284298Y-112749500D01*
X155247432Y-112752401D01*
X155247426Y-112752402D01*
X155089606Y-112798254D01*
X155089603Y-112798255D01*
X155053288Y-112819732D01*
X154990167Y-112837000D01*
X154074730Y-112837000D01*
X154007691Y-112817315D01*
X153987049Y-112800681D01*
X153918657Y-112732289D01*
X153918656Y-112732288D01*
X153769334Y-112640186D01*
X153602797Y-112585001D01*
X153602795Y-112585000D01*
X153500010Y-112574500D01*
X152499998Y-112574500D01*
X152499980Y-112574501D01*
X152397203Y-112585000D01*
X152397200Y-112585001D01*
X152230668Y-112640185D01*
X152230663Y-112640187D01*
X152081342Y-112732289D01*
X152012951Y-112800681D01*
X151951628Y-112834166D01*
X151925270Y-112837000D01*
X149353580Y-112837000D01*
X149208592Y-112865840D01*
X149208582Y-112865843D01*
X149072011Y-112922412D01*
X149071998Y-112922419D01*
X148949084Y-113004548D01*
X148949080Y-113004551D01*
X148576501Y-113377130D01*
X148515178Y-113410615D01*
X148478013Y-113412977D01*
X148265002Y-113394341D01*
X148264999Y-113394341D01*
X148029596Y-113414936D01*
X148029586Y-113414938D01*
X147801344Y-113476094D01*
X147801335Y-113476098D01*
X147587171Y-113575964D01*
X147587169Y-113575965D01*
X147393600Y-113711503D01*
X147271673Y-113833430D01*
X147210350Y-113866914D01*
X147140658Y-113861930D01*
X147084725Y-113820058D01*
X147067810Y-113789081D01*
X147018797Y-113657671D01*
X147018793Y-113657664D01*
X146932547Y-113542455D01*
X146932544Y-113542452D01*
X146817335Y-113456206D01*
X146817328Y-113456202D01*
X146682482Y-113405908D01*
X146682483Y-113405908D01*
X146622883Y-113399501D01*
X146622881Y-113399500D01*
X146622873Y-113399500D01*
X146622864Y-113399500D01*
X144827129Y-113399500D01*
X144827123Y-113399501D01*
X144767516Y-113405908D01*
X144632671Y-113456202D01*
X144632664Y-113456206D01*
X144517455Y-113542452D01*
X144517452Y-113542455D01*
X144431206Y-113657664D01*
X144431202Y-113657671D01*
X144380908Y-113792517D01*
X144374501Y-113852116D01*
X144374500Y-113852135D01*
X144374500Y-114538000D01*
X144354815Y-114605039D01*
X144302011Y-114650794D01*
X144250500Y-114662000D01*
X142574730Y-114662000D01*
X142507691Y-114642315D01*
X142487049Y-114625681D01*
X142449049Y-114587681D01*
X142415564Y-114526358D01*
X142420548Y-114456666D01*
X142449049Y-114412319D01*
X142488379Y-114372989D01*
X142542712Y-114318656D01*
X142634814Y-114169334D01*
X142689999Y-114002797D01*
X142700500Y-113900009D01*
X142700499Y-113274992D01*
X142689999Y-113172203D01*
X142634814Y-113005666D01*
X142542712Y-112856344D01*
X142418656Y-112732288D01*
X142309402Y-112664900D01*
X142262679Y-112612953D01*
X142250500Y-112559362D01*
X142250500Y-111199972D01*
X142257458Y-111159017D01*
X142264134Y-111139937D01*
X142285368Y-111079255D01*
X142287702Y-111058539D01*
X142305565Y-110900003D01*
X142305565Y-110899996D01*
X142285369Y-110720750D01*
X142285368Y-110720745D01*
X142225789Y-110550478D01*
X142129816Y-110397738D01*
X142002262Y-110270184D01*
X141849523Y-110174211D01*
X141679254Y-110114631D01*
X141679249Y-110114630D01*
X141500004Y-110094435D01*
X141499996Y-110094435D01*
X141320750Y-110114630D01*
X141320745Y-110114631D01*
X141150476Y-110174211D01*
X140997737Y-110270184D01*
X140870184Y-110397737D01*
X140774211Y-110550476D01*
X140714631Y-110720745D01*
X140714630Y-110720750D01*
X140694435Y-110899996D01*
X140694435Y-110900003D01*
X140714630Y-111079249D01*
X140714631Y-111079254D01*
X140742542Y-111159017D01*
X140749500Y-111199972D01*
X140749500Y-112559362D01*
X140729815Y-112626401D01*
X140690598Y-112664899D01*
X140673413Y-112675500D01*
X140581342Y-112732289D01*
X140457289Y-112856342D01*
X140365187Y-113005663D01*
X140365186Y-113005666D01*
X140310001Y-113172203D01*
X140310001Y-113172204D01*
X140310000Y-113172204D01*
X140299500Y-113274983D01*
X140299500Y-113589424D01*
X140279815Y-113656463D01*
X140227011Y-113702218D01*
X140161617Y-113712644D01*
X140000004Y-113694435D01*
X140000003Y-113694435D01*
X140000001Y-113694435D01*
X140000000Y-113694435D01*
X139978184Y-113696892D01*
X139938382Y-113701377D01*
X139869560Y-113689321D01*
X139818181Y-113641971D01*
X139800500Y-113578156D01*
X139800500Y-113334313D01*
X139800499Y-113334298D01*
X139799709Y-113324264D01*
X139797598Y-113297431D01*
X139792775Y-113280831D01*
X139751745Y-113139606D01*
X139751744Y-113139603D01*
X139751744Y-113139602D01*
X139668081Y-112998135D01*
X139668079Y-112998133D01*
X139668076Y-112998129D01*
X139551870Y-112881923D01*
X139551862Y-112881917D01*
X139410396Y-112798255D01*
X139410393Y-112798254D01*
X139252573Y-112752402D01*
X139252567Y-112752401D01*
X139215701Y-112749500D01*
X139215694Y-112749500D01*
X138059306Y-112749500D01*
X138059298Y-112749500D01*
X138022432Y-112752401D01*
X138022426Y-112752402D01*
X137877267Y-112794576D01*
X137842672Y-112799500D01*
X137237000Y-112799500D01*
X137169961Y-112779815D01*
X137124206Y-112727011D01*
X137113000Y-112675500D01*
X137113000Y-111999729D01*
X137132685Y-111932690D01*
X137149315Y-111912052D01*
X137530775Y-111530591D01*
X137592096Y-111497108D01*
X137606295Y-111494871D01*
X137696132Y-111486024D01*
X137884727Y-111428814D01*
X137889839Y-111426082D01*
X138058532Y-111335913D01*
X138058538Y-111335910D01*
X138210883Y-111210883D01*
X138335910Y-111058538D01*
X138420649Y-110900003D01*
X138428811Y-110884733D01*
X138428811Y-110884732D01*
X138428814Y-110884727D01*
X138486024Y-110696132D01*
X138505341Y-110500000D01*
X138486024Y-110303868D01*
X138428814Y-110115273D01*
X138428811Y-110115269D01*
X138428811Y-110115266D01*
X138335911Y-109941463D01*
X138335909Y-109941460D01*
X138210887Y-109789122D01*
X138210883Y-109789117D01*
X138145832Y-109735730D01*
X138106500Y-109677987D01*
X138100500Y-109639880D01*
X138100500Y-107782412D01*
X138120185Y-107715373D01*
X138127555Y-107705097D01*
X138129810Y-107702267D01*
X138129816Y-107702262D01*
X138225789Y-107549522D01*
X138285368Y-107379255D01*
X138290208Y-107336299D01*
X138305565Y-107200003D01*
X138305565Y-107199996D01*
X138285369Y-107020750D01*
X138285368Y-107020745D01*
X138264430Y-106960909D01*
X138225789Y-106850478D01*
X138216618Y-106835883D01*
X138129815Y-106697737D01*
X138002262Y-106570184D01*
X137849523Y-106474211D01*
X137679254Y-106414631D01*
X137679249Y-106414630D01*
X137500004Y-106394435D01*
X137499996Y-106394435D01*
X137320750Y-106414630D01*
X137320745Y-106414631D01*
X137150476Y-106474211D01*
X136997737Y-106570184D01*
X136870184Y-106697737D01*
X136774211Y-106850476D01*
X136714631Y-107020745D01*
X136714630Y-107020750D01*
X136694435Y-107199996D01*
X136694435Y-107200003D01*
X136714630Y-107379249D01*
X136714631Y-107379254D01*
X136774211Y-107549523D01*
X136792366Y-107578416D01*
X136846196Y-107664086D01*
X136870185Y-107702263D01*
X136872445Y-107705097D01*
X136873334Y-107707275D01*
X136873889Y-107708158D01*
X136873734Y-107708255D01*
X136898855Y-107769783D01*
X136899500Y-107782412D01*
X136899500Y-109639880D01*
X136879815Y-109706919D01*
X136854169Y-109735729D01*
X136789117Y-109789117D01*
X136789114Y-109789119D01*
X136789112Y-109789122D01*
X136664090Y-109941460D01*
X136664089Y-109941463D01*
X136571188Y-110115266D01*
X136513975Y-110303870D01*
X136505127Y-110393700D01*
X136478965Y-110458487D01*
X136469405Y-110469225D01*
X135779548Y-111159083D01*
X135766306Y-111178902D01*
X135744938Y-111210883D01*
X135697414Y-111282007D01*
X135640843Y-111418582D01*
X135640840Y-111418592D01*
X135612000Y-111563579D01*
X135612000Y-112714281D01*
X135592315Y-112781320D01*
X135551121Y-112821013D01*
X135448138Y-112881916D01*
X135448129Y-112881923D01*
X135331923Y-112998129D01*
X135331917Y-112998137D01*
X135248255Y-113139603D01*
X135248254Y-113139606D01*
X135202402Y-113297426D01*
X135202401Y-113297432D01*
X135199500Y-113334298D01*
X135199500Y-113765701D01*
X135202401Y-113802567D01*
X135202402Y-113802573D01*
X135248254Y-113960393D01*
X135248255Y-113960396D01*
X135331917Y-114101862D01*
X135331923Y-114101870D01*
X135448129Y-114218076D01*
X135448133Y-114218079D01*
X135448135Y-114218081D01*
X135589602Y-114301744D01*
X135602269Y-114305424D01*
X135747426Y-114347597D01*
X135747429Y-114347597D01*
X135747431Y-114347598D01*
X135784306Y-114350500D01*
X135784314Y-114350500D01*
X136940686Y-114350500D01*
X136940694Y-114350500D01*
X136977569Y-114347598D01*
X136977571Y-114347597D01*
X136977573Y-114347597D01*
X137122733Y-114305424D01*
X137157328Y-114300500D01*
X137350500Y-114300500D01*
X137417539Y-114320185D01*
X137463294Y-114372989D01*
X137474500Y-114424500D01*
X137474500Y-114682104D01*
X137454815Y-114749143D01*
X137402011Y-114794898D01*
X137332853Y-114804842D01*
X137284502Y-114784330D01*
X137283580Y-114785890D01*
X137135396Y-114698255D01*
X137135393Y-114698254D01*
X136977573Y-114652402D01*
X136977567Y-114652401D01*
X136940701Y-114649500D01*
X136940694Y-114649500D01*
X135784306Y-114649500D01*
X135784298Y-114649500D01*
X135747432Y-114652401D01*
X135747426Y-114652402D01*
X135589606Y-114698254D01*
X135589603Y-114698255D01*
X135448137Y-114781917D01*
X135448129Y-114781923D01*
X135331923Y-114898129D01*
X135331917Y-114898137D01*
X135248255Y-115039603D01*
X135248254Y-115039606D01*
X135202402Y-115197426D01*
X135202401Y-115197432D01*
X135199500Y-115234298D01*
X135199500Y-115665701D01*
X135202401Y-115702567D01*
X135202402Y-115702573D01*
X135248254Y-115860393D01*
X135248255Y-115860396D01*
X135331732Y-116001550D01*
X135331918Y-116001864D01*
X135331923Y-116001870D01*
X135448129Y-116118076D01*
X135448133Y-116118079D01*
X135448135Y-116118081D01*
X135448137Y-116118082D01*
X135536871Y-116170559D01*
X135584554Y-116221628D01*
X135597058Y-116290369D01*
X135578744Y-116343262D01*
X135574213Y-116350472D01*
X135574209Y-116350481D01*
X135514633Y-116520737D01*
X135514630Y-116520750D01*
X135494435Y-116699996D01*
X135494435Y-116700003D01*
X135514630Y-116879249D01*
X135514631Y-116879254D01*
X135574211Y-117049523D01*
X135622998Y-117127166D01*
X135670184Y-117202262D01*
X135797738Y-117329816D01*
X135950478Y-117425789D01*
X136120745Y-117485368D01*
X136120750Y-117485369D01*
X136299996Y-117505565D01*
X136300000Y-117505565D01*
X136300004Y-117505565D01*
X136479249Y-117485369D01*
X136479252Y-117485368D01*
X136479255Y-117485368D01*
X136649522Y-117425789D01*
X136802262Y-117329816D01*
X136929816Y-117202262D01*
X137025789Y-117049522D01*
X137085368Y-116879255D01*
X137092302Y-116817700D01*
X137093897Y-116807449D01*
X137113000Y-116711418D01*
X137113000Y-116563583D01*
X137113000Y-116285718D01*
X137132685Y-116218679D01*
X137173880Y-116178986D01*
X137276858Y-116118085D01*
X137276857Y-116118085D01*
X137276865Y-116118081D01*
X137393081Y-116001865D01*
X137393267Y-116001549D01*
X137393477Y-116001353D01*
X137397861Y-115995702D01*
X137398772Y-115996409D01*
X137444336Y-115953866D01*
X137513077Y-115941362D01*
X137577667Y-115968006D01*
X137601855Y-115995921D01*
X137602139Y-115995702D01*
X137606179Y-116000911D01*
X137606732Y-116001548D01*
X137606919Y-116001865D01*
X137606921Y-116001867D01*
X137606923Y-116001870D01*
X137723129Y-116118076D01*
X137723133Y-116118079D01*
X137723135Y-116118081D01*
X137864602Y-116201744D01*
X137877269Y-116205424D01*
X138022426Y-116247597D01*
X138022429Y-116247597D01*
X138022431Y-116247598D01*
X138059306Y-116250500D01*
X138059314Y-116250500D01*
X139215686Y-116250500D01*
X139215694Y-116250500D01*
X139252569Y-116247598D01*
X139252571Y-116247597D01*
X139252573Y-116247597D01*
X139397733Y-116205424D01*
X139432328Y-116200500D01*
X140462770Y-116200500D01*
X140529809Y-116220185D01*
X140550451Y-116236819D01*
X140581344Y-116267712D01*
X140730666Y-116359814D01*
X140897203Y-116414999D01*
X140999991Y-116425500D01*
X142000008Y-116425499D01*
X142000016Y-116425498D01*
X142000019Y-116425498D01*
X142056302Y-116419748D01*
X142102797Y-116414999D01*
X142269334Y-116359814D01*
X142418656Y-116267712D01*
X142487049Y-116199319D01*
X142548372Y-116165834D01*
X142574730Y-116163000D01*
X145136420Y-116163000D01*
X145281408Y-116134159D01*
X145281408Y-116134158D01*
X145281413Y-116134158D01*
X145320223Y-116118082D01*
X145339885Y-116109938D01*
X145387338Y-116100499D01*
X146622871Y-116100499D01*
X146622872Y-116100499D01*
X146682483Y-116094091D01*
X146817331Y-116043796D01*
X146932546Y-115957546D01*
X147018796Y-115842331D01*
X147067810Y-115710916D01*
X147109681Y-115654984D01*
X147175145Y-115630566D01*
X147243418Y-115645417D01*
X147271673Y-115666569D01*
X147393599Y-115788495D01*
X147490384Y-115856265D01*
X147587165Y-115924032D01*
X147587167Y-115924033D01*
X147587170Y-115924035D01*
X147801337Y-116023903D01*
X148029592Y-116085063D01*
X148217918Y-116101539D01*
X148264999Y-116105659D01*
X148265000Y-116105659D01*
X148265001Y-116105659D01*
X148304234Y-116102226D01*
X148500408Y-116085063D01*
X148728663Y-116023903D01*
X148942830Y-115924035D01*
X149136401Y-115788495D01*
X149303495Y-115621401D01*
X149439035Y-115427830D01*
X149538903Y-115213663D01*
X149600063Y-114985408D01*
X149620659Y-114750000D01*
X149602022Y-114536985D01*
X149615788Y-114468487D01*
X149637869Y-114438497D01*
X149702049Y-114374318D01*
X149763373Y-114340834D01*
X149789730Y-114338000D01*
X151925270Y-114338000D01*
X151992309Y-114357685D01*
X152012951Y-114374319D01*
X152050951Y-114412319D01*
X152084436Y-114473642D01*
X152079452Y-114543334D01*
X152050951Y-114587681D01*
X152012951Y-114625681D01*
X151951628Y-114659166D01*
X151925270Y-114662000D01*
X151835695Y-114662000D01*
X151794740Y-114655042D01*
X151679254Y-114614631D01*
X151679249Y-114614630D01*
X151500004Y-114594435D01*
X151499996Y-114594435D01*
X151320750Y-114614630D01*
X151320745Y-114614631D01*
X151150476Y-114674211D01*
X150997737Y-114770184D01*
X150870184Y-114897737D01*
X150774211Y-115050476D01*
X150714631Y-115220745D01*
X150714630Y-115220750D01*
X150694435Y-115399996D01*
X150694435Y-115400003D01*
X150714630Y-115579249D01*
X150714631Y-115579254D01*
X150774211Y-115749523D01*
X150793582Y-115780351D01*
X150870184Y-115902262D01*
X150997738Y-116029816D01*
X151019987Y-116043796D01*
X151138210Y-116118081D01*
X151150478Y-116125789D01*
X151293218Y-116175736D01*
X151320745Y-116185368D01*
X151320750Y-116185369D01*
X151499996Y-116205565D01*
X151500000Y-116205565D01*
X151500004Y-116205565D01*
X151679246Y-116185369D01*
X151679245Y-116185369D01*
X151679255Y-116185368D01*
X151721577Y-116170559D01*
X151723295Y-116169958D01*
X151764248Y-116163000D01*
X151925270Y-116163000D01*
X151992309Y-116182685D01*
X152012951Y-116199319D01*
X152081344Y-116267712D01*
X152230666Y-116359814D01*
X152397203Y-116414999D01*
X152499991Y-116425500D01*
X153500008Y-116425499D01*
X153500016Y-116425498D01*
X153500019Y-116425498D01*
X153556302Y-116419748D01*
X153602797Y-116414999D01*
X153769334Y-116359814D01*
X153918656Y-116267712D01*
X154042712Y-116143656D01*
X154134814Y-115994334D01*
X154189999Y-115827797D01*
X154200500Y-115725009D01*
X154200499Y-115374499D01*
X154220183Y-115307461D01*
X154272987Y-115261706D01*
X154324499Y-115250500D01*
X154575500Y-115250500D01*
X154642539Y-115270185D01*
X154688294Y-115322989D01*
X154699500Y-115374500D01*
X154699500Y-115665701D01*
X154702401Y-115702567D01*
X154702402Y-115702573D01*
X154748254Y-115860393D01*
X154748255Y-115860396D01*
X154831732Y-116001550D01*
X154831918Y-116001864D01*
X154831923Y-116001870D01*
X154948129Y-116118076D01*
X154948133Y-116118079D01*
X154948135Y-116118081D01*
X155089602Y-116201744D01*
X155102269Y-116205424D01*
X155247426Y-116247597D01*
X155247429Y-116247597D01*
X155247431Y-116247598D01*
X155284306Y-116250500D01*
X155284314Y-116250500D01*
X156440686Y-116250500D01*
X156440694Y-116250500D01*
X156477569Y-116247598D01*
X156477571Y-116247597D01*
X156477573Y-116247597D01*
X156622733Y-116205424D01*
X156657328Y-116200500D01*
X157342672Y-116200500D01*
X157377267Y-116205424D01*
X157522426Y-116247597D01*
X157522429Y-116247597D01*
X157522431Y-116247598D01*
X157559306Y-116250500D01*
X157559314Y-116250500D01*
X158715686Y-116250500D01*
X158715694Y-116250500D01*
X158752569Y-116247598D01*
X158752571Y-116247597D01*
X158752573Y-116247597D01*
X158850421Y-116219169D01*
X158910398Y-116201744D01*
X159051865Y-116118081D01*
X159168081Y-116001865D01*
X159251744Y-115860398D01*
X159285505Y-115744191D01*
X159297597Y-115702573D01*
X159297598Y-115702567D01*
X159300499Y-115665701D01*
X159300500Y-115665694D01*
X159300500Y-115234306D01*
X159297598Y-115197431D01*
X159251744Y-115039602D01*
X159168081Y-114898135D01*
X159168079Y-114898133D01*
X159168076Y-114898129D01*
X159051870Y-114781923D01*
X159051862Y-114781917D01*
X158997891Y-114749999D01*
X167194696Y-114749999D01*
X167194696Y-114750000D01*
X167213898Y-115116405D01*
X167238759Y-115273368D01*
X167271295Y-115478794D01*
X167337268Y-115725009D01*
X167366260Y-115833206D01*
X167497746Y-116175739D01*
X167664320Y-116502656D01*
X167864147Y-116810364D01*
X167904664Y-116860398D01*
X168095051Y-117095506D01*
X168354494Y-117354949D01*
X168354498Y-117354952D01*
X168639635Y-117585852D01*
X168947343Y-117785679D01*
X168947348Y-117785682D01*
X169274264Y-117952255D01*
X169616801Y-118083742D01*
X169971206Y-118178705D01*
X170333596Y-118236102D01*
X170679734Y-118254241D01*
X170699999Y-118255304D01*
X170700000Y-118255304D01*
X170700001Y-118255304D01*
X170719203Y-118254297D01*
X171066404Y-118236102D01*
X171428794Y-118178705D01*
X171783199Y-118083742D01*
X172125736Y-117952255D01*
X172452652Y-117785682D01*
X172760366Y-117585851D01*
X173045506Y-117354949D01*
X173304949Y-117095506D01*
X173535851Y-116810366D01*
X173735682Y-116502652D01*
X173902255Y-116175736D01*
X174033742Y-115833199D01*
X174128705Y-115478794D01*
X174186102Y-115116404D01*
X174205304Y-114750000D01*
X174186102Y-114383596D01*
X174128705Y-114021206D01*
X174033742Y-113666801D01*
X173902255Y-113324264D01*
X173735682Y-112997348D01*
X173727902Y-112985368D01*
X173535852Y-112689635D01*
X173304952Y-112404498D01*
X173304949Y-112404494D01*
X173045506Y-112145051D01*
X173013010Y-112118736D01*
X172760364Y-111914147D01*
X172452656Y-111714320D01*
X172125739Y-111547746D01*
X171783206Y-111416260D01*
X171783199Y-111416258D01*
X171428794Y-111321295D01*
X171428790Y-111321294D01*
X171428789Y-111321294D01*
X171066405Y-111263898D01*
X170700001Y-111244696D01*
X170699999Y-111244696D01*
X170333594Y-111263898D01*
X169971211Y-111321294D01*
X169971209Y-111321294D01*
X169616793Y-111416260D01*
X169274260Y-111547746D01*
X168947343Y-111714320D01*
X168639635Y-111914147D01*
X168354498Y-112145047D01*
X168354490Y-112145054D01*
X168095054Y-112404490D01*
X168095047Y-112404498D01*
X167864147Y-112689635D01*
X167664320Y-112997343D01*
X167497746Y-113324260D01*
X167366260Y-113666793D01*
X167271294Y-114021209D01*
X167271294Y-114021211D01*
X167213898Y-114383594D01*
X167194696Y-114749999D01*
X158997891Y-114749999D01*
X158910396Y-114698255D01*
X158910393Y-114698254D01*
X158752573Y-114652402D01*
X158752567Y-114652401D01*
X158715701Y-114649500D01*
X158715694Y-114649500D01*
X158449730Y-114649500D01*
X158382691Y-114629815D01*
X158362049Y-114613181D01*
X158311049Y-114562181D01*
X158277564Y-114500858D01*
X158282548Y-114431166D01*
X158324420Y-114375233D01*
X158389884Y-114350816D01*
X158398730Y-114350500D01*
X158715686Y-114350500D01*
X158715694Y-114350500D01*
X158752569Y-114347598D01*
X158752571Y-114347597D01*
X158752573Y-114347597D01*
X158897733Y-114305424D01*
X158932328Y-114300500D01*
X159576083Y-114300500D01*
X159648085Y-114300500D01*
X159661969Y-114301280D01*
X159699998Y-114305565D01*
X159700000Y-114305565D01*
X159700004Y-114305565D01*
X159879249Y-114285369D01*
X159879252Y-114285368D01*
X159879255Y-114285368D01*
X160049522Y-114225789D01*
X160202262Y-114129816D01*
X160329816Y-114002262D01*
X160425789Y-113849522D01*
X160485368Y-113679255D01*
X160485369Y-113679249D01*
X160505565Y-113500003D01*
X160505565Y-113499996D01*
X160485369Y-113320750D01*
X160485368Y-113320745D01*
X160425788Y-113150476D01*
X160355727Y-113038975D01*
X160329816Y-112997738D01*
X160202262Y-112870184D01*
X160138017Y-112829816D01*
X160049523Y-112774211D01*
X159879254Y-112714631D01*
X159879249Y-112714630D01*
X159700004Y-112694435D01*
X159699996Y-112694435D01*
X159520750Y-112714630D01*
X159520745Y-112714631D01*
X159350474Y-112774212D01*
X159340477Y-112780494D01*
X159274506Y-112799500D01*
X158932328Y-112799500D01*
X158897733Y-112794576D01*
X158752573Y-112752402D01*
X158752567Y-112752401D01*
X158715701Y-112749500D01*
X158715694Y-112749500D01*
X157874500Y-112749500D01*
X157807461Y-112729815D01*
X157761706Y-112677011D01*
X157750500Y-112625500D01*
X157750500Y-111206976D01*
X157770185Y-111139937D01*
X157778632Y-111128329D01*
X157835910Y-111058538D01*
X157920649Y-110900003D01*
X157928811Y-110884733D01*
X157928811Y-110884732D01*
X157928814Y-110884727D01*
X157986024Y-110696132D01*
X158005341Y-110500000D01*
X157986024Y-110303868D01*
X157928814Y-110115273D01*
X157928811Y-110115269D01*
X157928811Y-110115266D01*
X157835911Y-109941463D01*
X157835909Y-109941460D01*
X157710887Y-109789122D01*
X157710883Y-109789117D01*
X157645832Y-109735730D01*
X157606500Y-109677987D01*
X157600500Y-109639880D01*
X157600500Y-106089060D01*
X157600501Y-106089047D01*
X157600501Y-105920945D01*
X157600501Y-105920943D01*
X157559577Y-105768215D01*
X157480520Y-105631284D01*
X150386033Y-98536797D01*
X150352548Y-98475474D01*
X150357532Y-98405782D01*
X150399404Y-98349849D01*
X150464868Y-98325432D01*
X150533141Y-98340284D01*
X150538790Y-98343564D01*
X150605666Y-98384814D01*
X150772203Y-98439999D01*
X150874991Y-98450500D01*
X151925008Y-98450499D01*
X151925016Y-98450498D01*
X151925019Y-98450498D01*
X151981302Y-98444748D01*
X152027797Y-98439999D01*
X152194334Y-98384814D01*
X152343656Y-98292712D01*
X152467712Y-98168656D01*
X152500107Y-98116134D01*
X152552053Y-98069411D01*
X152621016Y-98058188D01*
X152671617Y-98076238D01*
X152718678Y-98105807D01*
X152750478Y-98125789D01*
X152750481Y-98125790D01*
X152920737Y-98185366D01*
X152920743Y-98185367D01*
X152920745Y-98185368D01*
X152920746Y-98185368D01*
X152920750Y-98185369D01*
X153099996Y-98205565D01*
X153100000Y-98205565D01*
X153100004Y-98205565D01*
X153279249Y-98185369D01*
X153279252Y-98185368D01*
X153279255Y-98185368D01*
X153449522Y-98125789D01*
X153602262Y-98029816D01*
X153729816Y-97902262D01*
X153825789Y-97749522D01*
X153885368Y-97579255D01*
X153885369Y-97579249D01*
X153905565Y-97400003D01*
X153905565Y-97399996D01*
X153885369Y-97220750D01*
X153885368Y-97220745D01*
X153831819Y-97067712D01*
X153825789Y-97050478D01*
X153729816Y-96897738D01*
X153602262Y-96770184D01*
X153572355Y-96751392D01*
X153449523Y-96674211D01*
X153279254Y-96614631D01*
X153279249Y-96614630D01*
X153100004Y-96594435D01*
X153099996Y-96594435D01*
X152920750Y-96614630D01*
X152920745Y-96614631D01*
X152750476Y-96674211D01*
X152625468Y-96752760D01*
X152558231Y-96771760D01*
X152491396Y-96751392D01*
X152471815Y-96735447D01*
X152343657Y-96607289D01*
X152343656Y-96607288D01*
X152340342Y-96605243D01*
X152338546Y-96603248D01*
X152337989Y-96602807D01*
X152338064Y-96602711D01*
X152293618Y-96553297D01*
X152282397Y-96484334D01*
X152310240Y-96420252D01*
X152340348Y-96394165D01*
X152343342Y-96392318D01*
X152467315Y-96268345D01*
X152559356Y-96119124D01*
X152559358Y-96119119D01*
X152614505Y-95952697D01*
X152614506Y-95952690D01*
X152624999Y-95849986D01*
X152625000Y-95849973D01*
X152625000Y-95800000D01*
X151274000Y-95800000D01*
X151206961Y-95780315D01*
X151161206Y-95727511D01*
X151150000Y-95676000D01*
X151150000Y-95300000D01*
X151650000Y-95300000D01*
X152624999Y-95300000D01*
X152624999Y-95250028D01*
X152624998Y-95250013D01*
X152614505Y-95147302D01*
X152559358Y-94980880D01*
X152559356Y-94980875D01*
X152467315Y-94831654D01*
X152343345Y-94707684D01*
X152194124Y-94615643D01*
X152194119Y-94615641D01*
X152027697Y-94560494D01*
X152027690Y-94560493D01*
X151924986Y-94550000D01*
X151650000Y-94550000D01*
X151650000Y-95300000D01*
X151150000Y-95300000D01*
X151150000Y-94550000D01*
X150875029Y-94550000D01*
X150875012Y-94550001D01*
X150772302Y-94560494D01*
X150605880Y-94615641D01*
X150605871Y-94615646D01*
X150557709Y-94645352D01*
X150490316Y-94663792D01*
X150423653Y-94642869D01*
X150378884Y-94589226D01*
X150370223Y-94519895D01*
X150378053Y-94492359D01*
X150385198Y-94475108D01*
X150385199Y-94475104D01*
X150399999Y-94362697D01*
X150400000Y-94362683D01*
X150400000Y-93812500D01*
X150024500Y-93812500D01*
X149957461Y-93792815D01*
X149911706Y-93740011D01*
X149900500Y-93688500D01*
X149900500Y-93636500D01*
X149920185Y-93569461D01*
X149972989Y-93523706D01*
X150024500Y-93512500D01*
X150400000Y-93512500D01*
X150400000Y-93024500D01*
X150419685Y-92957461D01*
X150472489Y-92911706D01*
X150524000Y-92900500D01*
X151862713Y-92900500D01*
X151862720Y-92900500D01*
X151975236Y-92885687D01*
X152115233Y-92827698D01*
X152235451Y-92735451D01*
X152327698Y-92615233D01*
X152385687Y-92475236D01*
X152400500Y-92362720D01*
X152400500Y-92137280D01*
X152385687Y-92024764D01*
X152385686Y-92024763D01*
X152384626Y-92016705D01*
X152387689Y-92016301D01*
X152387689Y-91983698D01*
X152384626Y-91983295D01*
X152391006Y-91934833D01*
X152400500Y-91862720D01*
X152400500Y-91637280D01*
X152385687Y-91524764D01*
X152385686Y-91524763D01*
X152384626Y-91516705D01*
X152387689Y-91516301D01*
X152387689Y-91483700D01*
X152384626Y-91483297D01*
X152388344Y-91455052D01*
X152416609Y-91391155D01*
X152474933Y-91352683D01*
X152544797Y-91351850D01*
X152598964Y-91383554D01*
X153838181Y-92622771D01*
X153871666Y-92684094D01*
X153874500Y-92710452D01*
X153874500Y-92860397D01*
X153854815Y-92927436D01*
X153829166Y-92956249D01*
X153789114Y-92989118D01*
X153664090Y-93141460D01*
X153664086Y-93141467D01*
X153571188Y-93315266D01*
X153513975Y-93503870D01*
X153494659Y-93700000D01*
X153513975Y-93896129D01*
X153571188Y-94084733D01*
X153664086Y-94258532D01*
X153664090Y-94258539D01*
X153789116Y-94410883D01*
X153941460Y-94535909D01*
X153941467Y-94535913D01*
X154115266Y-94628811D01*
X154115269Y-94628811D01*
X154115273Y-94628814D01*
X154303868Y-94686024D01*
X154500000Y-94705341D01*
X154696132Y-94686024D01*
X154884727Y-94628814D01*
X154887981Y-94627075D01*
X154999044Y-94567710D01*
X155058538Y-94535910D01*
X155210883Y-94410883D01*
X155335910Y-94258538D01*
X155393670Y-94150476D01*
X155428811Y-94084733D01*
X155428811Y-94084732D01*
X155428814Y-94084727D01*
X155486024Y-93896132D01*
X155489512Y-93860712D01*
X155515672Y-93795927D01*
X155572706Y-93755567D01*
X155642506Y-93752450D01*
X155700595Y-93785185D01*
X160084064Y-98168655D01*
X164464014Y-102548605D01*
X164497499Y-102609928D01*
X164499736Y-102648437D01*
X164494659Y-102699997D01*
X164494659Y-102699999D01*
X164513975Y-102896129D01*
X164521003Y-102919298D01*
X164561327Y-103052228D01*
X164571188Y-103084733D01*
X164664086Y-103258532D01*
X164664090Y-103258539D01*
X164789116Y-103410883D01*
X164941460Y-103535909D01*
X164941467Y-103535913D01*
X165115266Y-103628811D01*
X165115269Y-103628811D01*
X165115273Y-103628814D01*
X165303868Y-103686024D01*
X165500000Y-103705341D01*
X165696132Y-103686024D01*
X165884727Y-103628814D01*
X165890589Y-103625681D01*
X165973442Y-103581395D01*
X166058538Y-103535910D01*
X166210883Y-103410883D01*
X166224907Y-103393795D01*
X166243750Y-103370835D01*
X166301495Y-103331501D01*
X166339603Y-103325500D01*
X169393387Y-103325500D01*
X169460426Y-103345185D01*
X169497261Y-103383814D01*
X169497860Y-103383396D01*
X169500617Y-103387333D01*
X169500772Y-103387496D01*
X169500965Y-103387831D01*
X169550492Y-103458562D01*
X169636501Y-103581396D01*
X169636506Y-103581402D01*
X169758430Y-103703326D01*
X169791915Y-103764649D01*
X169786931Y-103834341D01*
X169745059Y-103890274D01*
X169714083Y-103907189D01*
X169582669Y-103956203D01*
X169582664Y-103956206D01*
X169467455Y-104042452D01*
X169467452Y-104042455D01*
X169381206Y-104157664D01*
X169381202Y-104157671D01*
X169330908Y-104292517D01*
X169329186Y-104308538D01*
X169324501Y-104352123D01*
X169324500Y-104352135D01*
X169324500Y-106147870D01*
X169324501Y-106147876D01*
X169330908Y-106207483D01*
X169381202Y-106342328D01*
X169381206Y-106342335D01*
X169467452Y-106457544D01*
X169467455Y-106457547D01*
X169582664Y-106543793D01*
X169582671Y-106543797D01*
X169717517Y-106594091D01*
X169717516Y-106594091D01*
X169724444Y-106594835D01*
X169777127Y-106600500D01*
X171572872Y-106600499D01*
X171632483Y-106594091D01*
X171767331Y-106543796D01*
X171882546Y-106457546D01*
X171968796Y-106342331D01*
X172019091Y-106207483D01*
X172025500Y-106147873D01*
X172025499Y-104352128D01*
X172019091Y-104292517D01*
X171968796Y-104157669D01*
X171968795Y-104157668D01*
X171968793Y-104157664D01*
X171882547Y-104042455D01*
X171882544Y-104042452D01*
X171767335Y-103956206D01*
X171767328Y-103956202D01*
X171635917Y-103907189D01*
X171579983Y-103865318D01*
X171555566Y-103799853D01*
X171570418Y-103731580D01*
X171591563Y-103703332D01*
X171713495Y-103581401D01*
X171849035Y-103387830D01*
X171948903Y-103173663D01*
X172010063Y-102945408D01*
X172030659Y-102710000D01*
X172010063Y-102474592D01*
X171950128Y-102250910D01*
X171948905Y-102246344D01*
X171948904Y-102246343D01*
X171948903Y-102246337D01*
X171849035Y-102032171D01*
X171847386Y-102029815D01*
X171713494Y-101838597D01*
X171546402Y-101671506D01*
X171546396Y-101671501D01*
X171360842Y-101541575D01*
X171317217Y-101486998D01*
X171310023Y-101417500D01*
X171341546Y-101355145D01*
X171360842Y-101338425D01*
X171396960Y-101313135D01*
X171546401Y-101208495D01*
X171713495Y-101041401D01*
X171849035Y-100847830D01*
X171948903Y-100633663D01*
X172010063Y-100405408D01*
X172030659Y-100170000D01*
X172010063Y-99934592D01*
X171948903Y-99706337D01*
X171849035Y-99492171D01*
X171848652Y-99491623D01*
X171713494Y-99298597D01*
X171546402Y-99131506D01*
X171546395Y-99131501D01*
X171352834Y-98995967D01*
X171352830Y-98995965D01*
X171269887Y-98957288D01*
X171138663Y-98896097D01*
X171138659Y-98896096D01*
X171138655Y-98896094D01*
X170910413Y-98834938D01*
X170910403Y-98834936D01*
X170675001Y-98814341D01*
X170674999Y-98814341D01*
X170439596Y-98834936D01*
X170439586Y-98834938D01*
X170211344Y-98896094D01*
X170211335Y-98896098D01*
X169997171Y-98995964D01*
X169997169Y-98995965D01*
X169803597Y-99131505D01*
X169636505Y-99298597D01*
X169501348Y-99491623D01*
X169446771Y-99535248D01*
X169399773Y-99544500D01*
X166314983Y-99544500D01*
X166247944Y-99524815D01*
X166219130Y-99499166D01*
X166210881Y-99489114D01*
X166058539Y-99364090D01*
X166058532Y-99364086D01*
X165884733Y-99271188D01*
X165884727Y-99271186D01*
X165696132Y-99213976D01*
X165696129Y-99213975D01*
X165500000Y-99194659D01*
X165303870Y-99213975D01*
X165115266Y-99271188D01*
X164941467Y-99364086D01*
X164941460Y-99364090D01*
X164789116Y-99489116D01*
X164756250Y-99529165D01*
X164698505Y-99568499D01*
X164660397Y-99574500D01*
X163946849Y-99574500D01*
X163879810Y-99554815D01*
X163859168Y-99538181D01*
X155920982Y-91599996D01*
X163694435Y-91599996D01*
X163694435Y-91600003D01*
X163714630Y-91779249D01*
X163714631Y-91779254D01*
X163774211Y-91949523D01*
X163823393Y-92027795D01*
X163870184Y-92102262D01*
X163997738Y-92229816D01*
X164150478Y-92325789D01*
X164231501Y-92354140D01*
X164320745Y-92385368D01*
X164320750Y-92385369D01*
X164499996Y-92405565D01*
X164500000Y-92405565D01*
X164500004Y-92405565D01*
X164679249Y-92385369D01*
X164679250Y-92385368D01*
X164679255Y-92385368D01*
X164768498Y-92354139D01*
X164838274Y-92350577D01*
X164897132Y-92383500D01*
X164981344Y-92467712D01*
X165130666Y-92559814D01*
X165297203Y-92614999D01*
X165399991Y-92625500D01*
X166400008Y-92625499D01*
X166400016Y-92625498D01*
X166400019Y-92625498D01*
X166477550Y-92617578D01*
X166502797Y-92614999D01*
X166669334Y-92559814D01*
X166818656Y-92467712D01*
X166942712Y-92343656D01*
X167034814Y-92194334D01*
X167089999Y-92027797D01*
X167100500Y-91925009D01*
X167100499Y-91299992D01*
X167098987Y-91285195D01*
X167089999Y-91197203D01*
X167089998Y-91197200D01*
X167070139Y-91137270D01*
X167034814Y-91030666D01*
X166942712Y-90881344D01*
X166849048Y-90787680D01*
X166815564Y-90726358D01*
X166820548Y-90656666D01*
X166849049Y-90612319D01*
X166893658Y-90567710D01*
X166942712Y-90518656D01*
X166986970Y-90446902D01*
X167038917Y-90400179D01*
X167092508Y-90388000D01*
X169306196Y-90388000D01*
X169373235Y-90407685D01*
X169418990Y-90460489D01*
X169422375Y-90468660D01*
X169424828Y-90475236D01*
X169431203Y-90492330D01*
X169431206Y-90492335D01*
X169517452Y-90607544D01*
X169517455Y-90607547D01*
X169632664Y-90693793D01*
X169632671Y-90693797D01*
X169689517Y-90714999D01*
X169764598Y-90743002D01*
X169820531Y-90784873D01*
X169844949Y-90850337D01*
X169830098Y-90918610D01*
X169808947Y-90946865D01*
X169686886Y-91068926D01*
X169551400Y-91262420D01*
X169551399Y-91262422D01*
X169451570Y-91476507D01*
X169451567Y-91476513D01*
X169394364Y-91689999D01*
X169394364Y-91690000D01*
X170291988Y-91690000D01*
X170259075Y-91747007D01*
X170225000Y-91874174D01*
X170225000Y-92005826D01*
X170259075Y-92132993D01*
X170291988Y-92190000D01*
X169394364Y-92190000D01*
X169451567Y-92403486D01*
X169451570Y-92403492D01*
X169551399Y-92617578D01*
X169686894Y-92811082D01*
X169853917Y-92978105D01*
X170047421Y-93113600D01*
X170261507Y-93213429D01*
X170261516Y-93213433D01*
X170475000Y-93270634D01*
X170475000Y-92373012D01*
X170532007Y-92405925D01*
X170659174Y-92440000D01*
X170790826Y-92440000D01*
X170917993Y-92405925D01*
X170975000Y-92373012D01*
X170975000Y-93270633D01*
X171188483Y-93213433D01*
X171188492Y-93213429D01*
X171402578Y-93113600D01*
X171596082Y-92978105D01*
X171763105Y-92811082D01*
X171898600Y-92617578D01*
X171998429Y-92403492D01*
X171998432Y-92403486D01*
X172055636Y-92190000D01*
X171158012Y-92190000D01*
X171190925Y-92132993D01*
X171225000Y-92005826D01*
X171225000Y-91874174D01*
X171190925Y-91747007D01*
X171158012Y-91690000D01*
X172055636Y-91690000D01*
X172055635Y-91689999D01*
X171998432Y-91476513D01*
X171998429Y-91476507D01*
X171898600Y-91262422D01*
X171898599Y-91262420D01*
X171763113Y-91068926D01*
X171763108Y-91068920D01*
X171641053Y-90946865D01*
X171607568Y-90885542D01*
X171612552Y-90815850D01*
X171654424Y-90759917D01*
X171685400Y-90743002D01*
X171774847Y-90709641D01*
X171817326Y-90693798D01*
X171817326Y-90693797D01*
X171817331Y-90693796D01*
X171932546Y-90607546D01*
X172018796Y-90492331D01*
X172069091Y-90357483D01*
X172075500Y-90297873D01*
X172075499Y-88502128D01*
X172069091Y-88442517D01*
X172065276Y-88432289D01*
X172018797Y-88307671D01*
X172018793Y-88307664D01*
X171932547Y-88192455D01*
X171932544Y-88192452D01*
X171817335Y-88106206D01*
X171817328Y-88106202D01*
X171682482Y-88055908D01*
X171682483Y-88055908D01*
X171622883Y-88049501D01*
X171622881Y-88049500D01*
X171622873Y-88049500D01*
X171622864Y-88049500D01*
X169827129Y-88049500D01*
X169827123Y-88049501D01*
X169767516Y-88055908D01*
X169632671Y-88106202D01*
X169632664Y-88106206D01*
X169517455Y-88192452D01*
X169517452Y-88192455D01*
X169431206Y-88307664D01*
X169431202Y-88307671D01*
X169380908Y-88442517D01*
X169374501Y-88502116D01*
X169374501Y-88502123D01*
X169374500Y-88502135D01*
X169374500Y-89063000D01*
X169354815Y-89130039D01*
X169302011Y-89175794D01*
X169250500Y-89187000D01*
X167092508Y-89187000D01*
X167025469Y-89167315D01*
X166986969Y-89128097D01*
X166942712Y-89056344D01*
X166818656Y-88932288D01*
X166692309Y-88854357D01*
X166645586Y-88802410D01*
X166634363Y-88733447D01*
X166640366Y-88707864D01*
X166685366Y-88579262D01*
X166685369Y-88579249D01*
X166705565Y-88400003D01*
X166705565Y-88399996D01*
X166685369Y-88220750D01*
X166685368Y-88220745D01*
X166662681Y-88155909D01*
X166625789Y-88050478D01*
X166625174Y-88049500D01*
X166548219Y-87927026D01*
X166529816Y-87897738D01*
X166402262Y-87770184D01*
X166367760Y-87748505D01*
X166249523Y-87674211D01*
X166079254Y-87614631D01*
X166079249Y-87614630D01*
X165900004Y-87594435D01*
X165899996Y-87594435D01*
X165720750Y-87614630D01*
X165720745Y-87614631D01*
X165550476Y-87674211D01*
X165397737Y-87770184D01*
X165270184Y-87897737D01*
X165174211Y-88050476D01*
X165114631Y-88220745D01*
X165114630Y-88220750D01*
X165094435Y-88399996D01*
X165094435Y-88400003D01*
X165114630Y-88579249D01*
X165114632Y-88579257D01*
X165159634Y-88707865D01*
X165163195Y-88777643D01*
X165128466Y-88838271D01*
X165107689Y-88854358D01*
X164981342Y-88932289D01*
X164857289Y-89056342D01*
X164765187Y-89205663D01*
X164765185Y-89205668D01*
X164737349Y-89289670D01*
X164710001Y-89372203D01*
X164710001Y-89372204D01*
X164710000Y-89372204D01*
X164699500Y-89474983D01*
X164699500Y-90100001D01*
X164699501Y-90100019D01*
X164710000Y-90202796D01*
X164710001Y-90202799D01*
X164765185Y-90369331D01*
X164765187Y-90369336D01*
X164773536Y-90382872D01*
X164856086Y-90516708D01*
X164857289Y-90518657D01*
X164950950Y-90612318D01*
X164984435Y-90673641D01*
X164979451Y-90743333D01*
X164950950Y-90787680D01*
X164915652Y-90822978D01*
X164854329Y-90856463D01*
X164787017Y-90852339D01*
X164679257Y-90814632D01*
X164679249Y-90814630D01*
X164500004Y-90794435D01*
X164499996Y-90794435D01*
X164320750Y-90814630D01*
X164320745Y-90814631D01*
X164150476Y-90874211D01*
X163997737Y-90970184D01*
X163870184Y-91097737D01*
X163774211Y-91250476D01*
X163714631Y-91420745D01*
X163714630Y-91420750D01*
X163694435Y-91599996D01*
X155920982Y-91599996D01*
X153179324Y-88858338D01*
X153179321Y-88858334D01*
X153179321Y-88858335D01*
X153172255Y-88851269D01*
X153172254Y-88851267D01*
X153085129Y-88764142D01*
X153085125Y-88764139D01*
X153085124Y-88764138D01*
X153027385Y-88725558D01*
X153027383Y-88725557D01*
X152982682Y-88695688D01*
X152982683Y-88695688D01*
X152982681Y-88695687D01*
X152942435Y-88679017D01*
X152902188Y-88662347D01*
X152868849Y-88648537D01*
X152858823Y-88646543D01*
X152808425Y-88636518D01*
X152748006Y-88624500D01*
X152748003Y-88624500D01*
X152748002Y-88624500D01*
X152507559Y-88624500D01*
X152440520Y-88604815D01*
X152394765Y-88552011D01*
X152387786Y-88532599D01*
X152387652Y-88532099D01*
X152387679Y-88483697D01*
X152384626Y-88483295D01*
X152387724Y-88459761D01*
X152400500Y-88362720D01*
X152400500Y-88182506D01*
X152420185Y-88115467D01*
X152436819Y-88094825D01*
X154157327Y-86374319D01*
X154218650Y-86340834D01*
X154245008Y-86338000D01*
X165276517Y-86338000D01*
X165276533Y-86338001D01*
X165284129Y-86338001D01*
X165442240Y-86338001D01*
X165442243Y-86338001D01*
X165594971Y-86297077D01*
X165652014Y-86264143D01*
X165731902Y-86218020D01*
X165843706Y-86106216D01*
X165843706Y-86106214D01*
X165853910Y-86096011D01*
X165853913Y-86096006D01*
X169345119Y-82604801D01*
X169406440Y-82571318D01*
X169476132Y-82576302D01*
X169491251Y-82583126D01*
X169670266Y-82678811D01*
X169670269Y-82678811D01*
X169670273Y-82678814D01*
X169858868Y-82736024D01*
X170055000Y-82755341D01*
X170251132Y-82736024D01*
X170439727Y-82678814D01*
X170442338Y-82677418D01*
X170443864Y-82677100D01*
X170445355Y-82676483D01*
X170445472Y-82676765D01*
X170510737Y-82663174D01*
X170575106Y-82687510D01*
X170582908Y-82693351D01*
X170717623Y-82743597D01*
X170717627Y-82743598D01*
X170777155Y-82749999D01*
X170777172Y-82750000D01*
X171075000Y-82750000D01*
X171575000Y-82750000D01*
X171872828Y-82750000D01*
X171872844Y-82749999D01*
X171932372Y-82743598D01*
X171932379Y-82743596D01*
X172067086Y-82693354D01*
X172067093Y-82693350D01*
X172182187Y-82607190D01*
X172182190Y-82607187D01*
X172268350Y-82492093D01*
X172268354Y-82492086D01*
X172318596Y-82357379D01*
X172318598Y-82357372D01*
X172324999Y-82297844D01*
X172325000Y-82297827D01*
X172325000Y-82000000D01*
X171575000Y-82000000D01*
X171575000Y-82750000D01*
X171075000Y-82750000D01*
X171075000Y-81959618D01*
X171125446Y-82010064D01*
X171199555Y-82052851D01*
X171282213Y-82075000D01*
X171367787Y-82075000D01*
X171450445Y-82052851D01*
X171524554Y-82010064D01*
X171585064Y-81949554D01*
X171627851Y-81875445D01*
X171650000Y-81792787D01*
X171650000Y-81707213D01*
X171627851Y-81624555D01*
X171585064Y-81550446D01*
X171534618Y-81500000D01*
X172325000Y-81500000D01*
X172325000Y-81202172D01*
X172324999Y-81202155D01*
X172318598Y-81142627D01*
X172318597Y-81142623D01*
X172268351Y-81007908D01*
X172262510Y-81000106D01*
X172238091Y-80934642D01*
X172251752Y-80870466D01*
X172251483Y-80870355D01*
X172252086Y-80868899D01*
X172252418Y-80867338D01*
X172253814Y-80864727D01*
X172311024Y-80676132D01*
X172330341Y-80480000D01*
X172311024Y-80283868D01*
X172253814Y-80095273D01*
X172160910Y-79921462D01*
X172160907Y-79921458D01*
X172157523Y-79916393D01*
X172159164Y-79915296D01*
X172135405Y-79859361D01*
X172147194Y-79790493D01*
X172157888Y-79773851D01*
X172157523Y-79773607D01*
X172160904Y-79768544D01*
X172160910Y-79768538D01*
X172253814Y-79594727D01*
X172311024Y-79406132D01*
X172330341Y-79210000D01*
X172311024Y-79013868D01*
X172253814Y-78825273D01*
X172160910Y-78651462D01*
X172160907Y-78651458D01*
X172157523Y-78646393D01*
X172159164Y-78645296D01*
X172135405Y-78589361D01*
X172147194Y-78520493D01*
X172157888Y-78503851D01*
X172157523Y-78503607D01*
X172160904Y-78498544D01*
X172160910Y-78498538D01*
X172253814Y-78324727D01*
X172311024Y-78136132D01*
X172330341Y-77940000D01*
X172311024Y-77743868D01*
X172253814Y-77555273D01*
X172160910Y-77381462D01*
X172160907Y-77381458D01*
X172157523Y-77376393D01*
X172159164Y-77375296D01*
X172135405Y-77319361D01*
X172147194Y-77250493D01*
X172157888Y-77233851D01*
X172157523Y-77233607D01*
X172160904Y-77228544D01*
X172160910Y-77228538D01*
X172253814Y-77054727D01*
X172311024Y-76866132D01*
X172330341Y-76670000D01*
X172311024Y-76473868D01*
X172253814Y-76285273D01*
X172253811Y-76285269D01*
X172253811Y-76285266D01*
X172160913Y-76111467D01*
X172160909Y-76111460D01*
X172035883Y-75959116D01*
X171883539Y-75834090D01*
X171883532Y-75834086D01*
X171709733Y-75741188D01*
X171709727Y-75741186D01*
X171521132Y-75683976D01*
X171521129Y-75683975D01*
X171325000Y-75664659D01*
X171128870Y-75683975D01*
X170940266Y-75741188D01*
X170766467Y-75834086D01*
X170761399Y-75837473D01*
X170760305Y-75835836D01*
X170704337Y-75859596D01*
X170635471Y-75847795D01*
X170618843Y-75837109D01*
X170618601Y-75837473D01*
X170613532Y-75834086D01*
X170439733Y-75741188D01*
X170439727Y-75741186D01*
X170251132Y-75683976D01*
X170251129Y-75683975D01*
X170055000Y-75664659D01*
X169858870Y-75683975D01*
X169670266Y-75741188D01*
X169496467Y-75834086D01*
X169496460Y-75834090D01*
X169426687Y-75891353D01*
X169362377Y-75918666D01*
X169348022Y-75919500D01*
X162332229Y-75919500D01*
X162265190Y-75899815D01*
X162244548Y-75883181D01*
X161228416Y-74867048D01*
X159986819Y-73625451D01*
X159953334Y-73564128D01*
X159950500Y-73537770D01*
X159950500Y-73332417D01*
X159970185Y-73265378D01*
X160022989Y-73219623D01*
X160092147Y-73209679D01*
X160117824Y-73216232D01*
X160192517Y-73244091D01*
X160252127Y-73250500D01*
X161347872Y-73250499D01*
X161407483Y-73244091D01*
X161542331Y-73193796D01*
X161657546Y-73107546D01*
X161663052Y-73100191D01*
X161718985Y-73058319D01*
X161762320Y-73050500D01*
X162100028Y-73050500D01*
X162140982Y-73057457D01*
X162189666Y-73074493D01*
X162220745Y-73085368D01*
X162220750Y-73085369D01*
X162399996Y-73105565D01*
X162400000Y-73105565D01*
X162400004Y-73105565D01*
X162579249Y-73085369D01*
X162579252Y-73085368D01*
X162579255Y-73085368D01*
X162749522Y-73025789D01*
X162902262Y-72929816D01*
X163029816Y-72802262D01*
X163125789Y-72649522D01*
X163185368Y-72479255D01*
X163204397Y-72310366D01*
X163205565Y-72300003D01*
X163205565Y-72299996D01*
X163185369Y-72120750D01*
X163185368Y-72120745D01*
X163144045Y-72002652D01*
X163125789Y-71950478D01*
X163029816Y-71797738D01*
X162902262Y-71670184D01*
X162831608Y-71625789D01*
X162749523Y-71574211D01*
X162579254Y-71514631D01*
X162579249Y-71514630D01*
X162400004Y-71494435D01*
X162399996Y-71494435D01*
X162220750Y-71514630D01*
X162220745Y-71514631D01*
X162145764Y-71540868D01*
X162143444Y-71541681D01*
X162140983Y-71542542D01*
X162100028Y-71549500D01*
X161762320Y-71549500D01*
X161695281Y-71529815D01*
X161663052Y-71499809D01*
X161657548Y-71492457D01*
X161657546Y-71492454D01*
X161657542Y-71492451D01*
X161542335Y-71406206D01*
X161542328Y-71406202D01*
X161407482Y-71355908D01*
X161407483Y-71355908D01*
X161347883Y-71349501D01*
X161347881Y-71349500D01*
X161347873Y-71349500D01*
X161347864Y-71349500D01*
X160252129Y-71349500D01*
X160252123Y-71349501D01*
X160192514Y-71355909D01*
X160117832Y-71383763D01*
X160048140Y-71388747D01*
X159986817Y-71355261D01*
X159953333Y-71293937D01*
X159950500Y-71267581D01*
X159950500Y-70249999D01*
X166994696Y-70249999D01*
X166994696Y-70250000D01*
X167013898Y-70616405D01*
X167027140Y-70700009D01*
X167071295Y-70978794D01*
X167131495Y-71203464D01*
X167166260Y-71333206D01*
X167297746Y-71675739D01*
X167464320Y-72002656D01*
X167664147Y-72310364D01*
X167664149Y-72310366D01*
X167895051Y-72595506D01*
X168154494Y-72854949D01*
X168246946Y-72929815D01*
X168439635Y-73085852D01*
X168746450Y-73285099D01*
X168747348Y-73285682D01*
X169074264Y-73452255D01*
X169416801Y-73583742D01*
X169771206Y-73678705D01*
X170133596Y-73736102D01*
X170479734Y-73754241D01*
X170499999Y-73755304D01*
X170500000Y-73755304D01*
X170500001Y-73755304D01*
X170519203Y-73754297D01*
X170866404Y-73736102D01*
X171228794Y-73678705D01*
X171583199Y-73583742D01*
X171925736Y-73452255D01*
X172252652Y-73285682D01*
X172560366Y-73085851D01*
X172845506Y-72854949D01*
X173104949Y-72595506D01*
X173335851Y-72310366D01*
X173535682Y-72002652D01*
X173702255Y-71675736D01*
X173833742Y-71333199D01*
X173928705Y-70978794D01*
X173986102Y-70616404D01*
X174005304Y-70250000D01*
X173986102Y-69883596D01*
X173928705Y-69521206D01*
X173833742Y-69166801D01*
X173825024Y-69144091D01*
X173810562Y-69106415D01*
X173702255Y-68824264D01*
X173535682Y-68497348D01*
X173423175Y-68324102D01*
X173335852Y-68189635D01*
X173126144Y-67930668D01*
X173104949Y-67904494D01*
X172845506Y-67645051D01*
X172709498Y-67534914D01*
X172560364Y-67414147D01*
X172252656Y-67214320D01*
X171925739Y-67047746D01*
X171583206Y-66916260D01*
X171583199Y-66916258D01*
X171228794Y-66821295D01*
X171228790Y-66821294D01*
X171228789Y-66821294D01*
X170866405Y-66763898D01*
X170500001Y-66744696D01*
X170499999Y-66744696D01*
X170133594Y-66763898D01*
X169771211Y-66821294D01*
X169771209Y-66821294D01*
X169416793Y-66916260D01*
X169074260Y-67047746D01*
X168747343Y-67214320D01*
X168439635Y-67414147D01*
X168154498Y-67645047D01*
X168154490Y-67645054D01*
X167895054Y-67904490D01*
X167895047Y-67904498D01*
X167664147Y-68189635D01*
X167464320Y-68497343D01*
X167297746Y-68824260D01*
X167166260Y-69166793D01*
X167071294Y-69521209D01*
X167071294Y-69521211D01*
X167013898Y-69883594D01*
X166994696Y-70249999D01*
X159950500Y-70249999D01*
X159950500Y-69232417D01*
X159970185Y-69165378D01*
X160022989Y-69119623D01*
X160092147Y-69109679D01*
X160117824Y-69116232D01*
X160192517Y-69144091D01*
X160252127Y-69150500D01*
X161347872Y-69150499D01*
X161407483Y-69144091D01*
X161542331Y-69093796D01*
X161657546Y-69007546D01*
X161663052Y-69000191D01*
X161718985Y-68958319D01*
X161762320Y-68950500D01*
X162100028Y-68950500D01*
X162140982Y-68957457D01*
X162220142Y-68985157D01*
X162220745Y-68985368D01*
X162220750Y-68985369D01*
X162399996Y-69005565D01*
X162400000Y-69005565D01*
X162400004Y-69005565D01*
X162579249Y-68985369D01*
X162579252Y-68985368D01*
X162579255Y-68985368D01*
X162749522Y-68925789D01*
X162902262Y-68829816D01*
X163029816Y-68702262D01*
X163125789Y-68549522D01*
X163185368Y-68379255D01*
X163185369Y-68379249D01*
X163205565Y-68200003D01*
X163205565Y-68199996D01*
X163185369Y-68020750D01*
X163185368Y-68020745D01*
X163144690Y-67904494D01*
X163125789Y-67850478D01*
X163029816Y-67697738D01*
X162902262Y-67570184D01*
X162894306Y-67565185D01*
X162749523Y-67474211D01*
X162579254Y-67414631D01*
X162579249Y-67414630D01*
X162400004Y-67394435D01*
X162399996Y-67394435D01*
X162220750Y-67414630D01*
X162220745Y-67414631D01*
X162145764Y-67440868D01*
X162143444Y-67441681D01*
X162140983Y-67442542D01*
X162100028Y-67449500D01*
X161762320Y-67449500D01*
X161695281Y-67429815D01*
X161663052Y-67399809D01*
X161657548Y-67392457D01*
X161657546Y-67392454D01*
X161657542Y-67392451D01*
X161542335Y-67306206D01*
X161542328Y-67306202D01*
X161407482Y-67255908D01*
X161407483Y-67255908D01*
X161347883Y-67249501D01*
X161347881Y-67249500D01*
X161347873Y-67249500D01*
X161347864Y-67249500D01*
X160252129Y-67249500D01*
X160252123Y-67249501D01*
X160192516Y-67255908D01*
X160049359Y-67309303D01*
X160048714Y-67307575D01*
X159991147Y-67320095D01*
X159951011Y-67308310D01*
X159950641Y-67309303D01*
X159807482Y-67255908D01*
X159807483Y-67255908D01*
X159747883Y-67249501D01*
X159747881Y-67249500D01*
X159747873Y-67249500D01*
X159747864Y-67249500D01*
X158652129Y-67249500D01*
X158652123Y-67249501D01*
X158592516Y-67255908D01*
X158457671Y-67306202D01*
X158457664Y-67306206D01*
X158342457Y-67392451D01*
X158342451Y-67392457D01*
X158336948Y-67399809D01*
X158281015Y-67441681D01*
X158237680Y-67449500D01*
X156776076Y-67449500D01*
X156747242Y-67455234D01*
X156747243Y-67455235D01*
X156631093Y-67478339D01*
X156631089Y-67478340D01*
X156560285Y-67507669D01*
X156494508Y-67534914D01*
X156449203Y-67565186D01*
X156371586Y-67617047D01*
X156371582Y-67617050D01*
X155975450Y-68013181D01*
X155914127Y-68046666D01*
X155887769Y-68049500D01*
X155474998Y-68049500D01*
X155474980Y-68049501D01*
X155372203Y-68060000D01*
X155372200Y-68060001D01*
X155205668Y-68115185D01*
X155205663Y-68115187D01*
X155056342Y-68207289D01*
X154932289Y-68331342D01*
X154840187Y-68480663D01*
X154840186Y-68480666D01*
X154785001Y-68647203D01*
X154785001Y-68647204D01*
X154785000Y-68647204D01*
X154774500Y-68749983D01*
X154774500Y-69350001D01*
X154774501Y-69350019D01*
X154785000Y-69452796D01*
X154785001Y-69452799D01*
X154840185Y-69619331D01*
X154840187Y-69619336D01*
X154932289Y-69768657D01*
X155056346Y-69892714D01*
X155059182Y-69894463D01*
X155060717Y-69896170D01*
X155062011Y-69897193D01*
X155061836Y-69897414D01*
X155105905Y-69946411D01*
X155117126Y-70015374D01*
X155089282Y-70079456D01*
X155059182Y-70105537D01*
X155056346Y-70107285D01*
X155056343Y-70107288D01*
X155000451Y-70163181D01*
X154939128Y-70196666D01*
X154912770Y-70199500D01*
X154625494Y-70199500D01*
X154559523Y-70180494D01*
X154549525Y-70174212D01*
X154379254Y-70114631D01*
X154379249Y-70114630D01*
X154200004Y-70094435D01*
X154199996Y-70094435D01*
X154020750Y-70114630D01*
X154020745Y-70114631D01*
X153850476Y-70174211D01*
X153697737Y-70270184D01*
X153570184Y-70397737D01*
X153474211Y-70550476D01*
X153414631Y-70720745D01*
X153414630Y-70720750D01*
X153394435Y-70899996D01*
X153394435Y-70900003D01*
X153414630Y-71079249D01*
X153414631Y-71079254D01*
X153474211Y-71249523D01*
X153548242Y-71367342D01*
X153570184Y-71402262D01*
X153697738Y-71529816D01*
X153850478Y-71625789D01*
X153888556Y-71639113D01*
X154020745Y-71685368D01*
X154020750Y-71685369D01*
X154199996Y-71705565D01*
X154200000Y-71705565D01*
X154200002Y-71705565D01*
X154238031Y-71701280D01*
X154251915Y-71700500D01*
X154323918Y-71700500D01*
X154912770Y-71700500D01*
X154979809Y-71720185D01*
X155000451Y-71736819D01*
X155056344Y-71792712D01*
X155205666Y-71884814D01*
X155372203Y-71939999D01*
X155474991Y-71950500D01*
X156525008Y-71950499D01*
X156525016Y-71950498D01*
X156525019Y-71950498D01*
X156581302Y-71944748D01*
X156627797Y-71939999D01*
X156794334Y-71884814D01*
X156943656Y-71792712D01*
X157067712Y-71668656D01*
X157159814Y-71519334D01*
X157214999Y-71352797D01*
X157225500Y-71250009D01*
X157225499Y-70649992D01*
X157214999Y-70547203D01*
X157159814Y-70380666D01*
X157067712Y-70231344D01*
X156943656Y-70107288D01*
X156940819Y-70105538D01*
X156939283Y-70103830D01*
X156937989Y-70102807D01*
X156938163Y-70102585D01*
X156894096Y-70053594D01*
X156882872Y-69984632D01*
X156910713Y-69920549D01*
X156940817Y-69894462D01*
X156943656Y-69892712D01*
X157067712Y-69768656D01*
X157159814Y-69619334D01*
X157214999Y-69452797D01*
X157225500Y-69350009D01*
X157225499Y-69074498D01*
X157245183Y-69007461D01*
X157297987Y-68961706D01*
X157349499Y-68950500D01*
X158237680Y-68950500D01*
X158304719Y-68970185D01*
X158336948Y-69000191D01*
X158342451Y-69007542D01*
X158342455Y-69007547D01*
X158363083Y-69022989D01*
X158393631Y-69045857D01*
X158399810Y-69050482D01*
X158441682Y-69106415D01*
X158449500Y-69149749D01*
X158449500Y-71350249D01*
X158429815Y-71417288D01*
X158399812Y-71449515D01*
X158342457Y-71492451D01*
X158342451Y-71492457D01*
X158256206Y-71607664D01*
X158256202Y-71607671D01*
X158205908Y-71742517D01*
X158201289Y-71785484D01*
X158199501Y-71802123D01*
X158199500Y-71802135D01*
X158199500Y-72797870D01*
X158199501Y-72797876D01*
X158205908Y-72857483D01*
X158256202Y-72992328D01*
X158256203Y-72992329D01*
X158256204Y-72992331D01*
X158326213Y-73085851D01*
X158342452Y-73107543D01*
X158342455Y-73107547D01*
X158399810Y-73150482D01*
X158441682Y-73206415D01*
X158449500Y-73249749D01*
X158449500Y-73973918D01*
X158449500Y-73973920D01*
X158449499Y-73973920D01*
X158478340Y-74118907D01*
X158478343Y-74118917D01*
X158532442Y-74249522D01*
X158534916Y-74255495D01*
X158561089Y-74294666D01*
X158561088Y-74294666D01*
X158617046Y-74378414D01*
X158617052Y-74378421D01*
X159739339Y-75500707D01*
X159772824Y-75562030D01*
X159767840Y-75631722D01*
X159739339Y-75676069D01*
X158941621Y-76473787D01*
X158880298Y-76507272D01*
X158867825Y-76509326D01*
X158820750Y-76514630D01*
X158650478Y-76574210D01*
X158497737Y-76670184D01*
X158370184Y-76797737D01*
X158274211Y-76950476D01*
X158214631Y-77120745D01*
X158214630Y-77120750D01*
X158194435Y-77299996D01*
X158194435Y-77300003D01*
X158214630Y-77479249D01*
X158214631Y-77479254D01*
X158274211Y-77649523D01*
X158337348Y-77750004D01*
X158370184Y-77802262D01*
X158497738Y-77929816D01*
X158513946Y-77940000D01*
X158643567Y-78021447D01*
X158650478Y-78025789D01*
X158719695Y-78050009D01*
X158820745Y-78085368D01*
X158820750Y-78085369D01*
X158999996Y-78105565D01*
X159000000Y-78105565D01*
X159000004Y-78105565D01*
X159179249Y-78085369D01*
X159179252Y-78085368D01*
X159179255Y-78085368D01*
X159349522Y-78025789D01*
X159502262Y-77929816D01*
X159629816Y-77802262D01*
X159725789Y-77649522D01*
X159785368Y-77479255D01*
X159790672Y-77432173D01*
X159817737Y-77367763D01*
X159826201Y-77358387D01*
X160623930Y-76560659D01*
X160685253Y-76527174D01*
X160754945Y-76532158D01*
X160799292Y-76560659D01*
X161387049Y-77148416D01*
X161491584Y-77252951D01*
X161491587Y-77252953D01*
X161491588Y-77252954D01*
X161614494Y-77335077D01*
X161614498Y-77335079D01*
X161614505Y-77335084D01*
X161663782Y-77355495D01*
X161751088Y-77391659D01*
X161862274Y-77413775D01*
X161884812Y-77418258D01*
X161896081Y-77420500D01*
X161896082Y-77420500D01*
X161896083Y-77420500D01*
X162043918Y-77420500D01*
X168999874Y-77420500D01*
X169066913Y-77440185D01*
X169112668Y-77492989D01*
X169122612Y-77562147D01*
X169118535Y-77580495D01*
X169068975Y-77743869D01*
X169049659Y-77940000D01*
X169068975Y-78136129D01*
X169068976Y-78136132D01*
X169124486Y-78319124D01*
X169126188Y-78324733D01*
X169219086Y-78498532D01*
X169222473Y-78503601D01*
X169220836Y-78504694D01*
X169244596Y-78560663D01*
X169232795Y-78629529D01*
X169222109Y-78646156D01*
X169222473Y-78646399D01*
X169219086Y-78651467D01*
X169126188Y-78825266D01*
X169068975Y-79013870D01*
X169049659Y-79210000D01*
X169068975Y-79406129D01*
X169126188Y-79594733D01*
X169219086Y-79768532D01*
X169222473Y-79773601D01*
X169220836Y-79774694D01*
X169244596Y-79830663D01*
X169232795Y-79899529D01*
X169222109Y-79916156D01*
X169222473Y-79916399D01*
X169219086Y-79921467D01*
X169126188Y-80095266D01*
X169068975Y-80283870D01*
X169049659Y-80480000D01*
X169049659Y-80480001D01*
X169057906Y-80563746D01*
X169044886Y-80632391D01*
X169022184Y-80663579D01*
X164985084Y-84700681D01*
X164923761Y-84734166D01*
X164897403Y-84737000D01*
X150522373Y-84737000D01*
X150455334Y-84717315D01*
X150409579Y-84664511D01*
X150399434Y-84629185D01*
X150396081Y-84603719D01*
X150385687Y-84524764D01*
X150327698Y-84384767D01*
X150235451Y-84264549D01*
X150115233Y-84172302D01*
X150115229Y-84172300D01*
X149999998Y-84124570D01*
X149975236Y-84114313D01*
X149958313Y-84112085D01*
X149862727Y-84099500D01*
X149862720Y-84099500D01*
X149637280Y-84099500D01*
X149637272Y-84099500D01*
X149550393Y-84110938D01*
X149524764Y-84114313D01*
X149524762Y-84114313D01*
X149516708Y-84115374D01*
X149516316Y-84112399D01*
X149483684Y-84112399D01*
X149483292Y-84115374D01*
X149475237Y-84114313D01*
X149475236Y-84114313D01*
X149446271Y-84110499D01*
X149362727Y-84099500D01*
X149362720Y-84099500D01*
X149137280Y-84099500D01*
X149137272Y-84099500D01*
X149050393Y-84110938D01*
X149024764Y-84114313D01*
X149024762Y-84114313D01*
X149016708Y-84115374D01*
X149016316Y-84112399D01*
X148983684Y-84112399D01*
X148983292Y-84115374D01*
X148975237Y-84114313D01*
X148975236Y-84114313D01*
X148946271Y-84110499D01*
X148862727Y-84099500D01*
X148862720Y-84099500D01*
X148637280Y-84099500D01*
X148637272Y-84099500D01*
X148550393Y-84110938D01*
X148524764Y-84114313D01*
X148524762Y-84114313D01*
X148516708Y-84115374D01*
X148516316Y-84112399D01*
X148483684Y-84112399D01*
X148483292Y-84115374D01*
X148475237Y-84114313D01*
X148475236Y-84114313D01*
X148446271Y-84110499D01*
X148362727Y-84099500D01*
X148362720Y-84099500D01*
X148137280Y-84099500D01*
X148137272Y-84099500D01*
X148050393Y-84110938D01*
X148024764Y-84114313D01*
X148024762Y-84114313D01*
X148016708Y-84115374D01*
X148016316Y-84112399D01*
X147983684Y-84112399D01*
X147983292Y-84115374D01*
X147975237Y-84114313D01*
X147975236Y-84114313D01*
X147946271Y-84110499D01*
X147862727Y-84099500D01*
X147862720Y-84099500D01*
X147637280Y-84099500D01*
X147637272Y-84099500D01*
X147550393Y-84110938D01*
X147524764Y-84114313D01*
X147524762Y-84114313D01*
X147516708Y-84115374D01*
X147516316Y-84112399D01*
X147483684Y-84112399D01*
X147483292Y-84115374D01*
X147475237Y-84114313D01*
X147475236Y-84114313D01*
X147446271Y-84110499D01*
X147362727Y-84099500D01*
X147362720Y-84099500D01*
X147137280Y-84099500D01*
X147137272Y-84099500D01*
X147050393Y-84110938D01*
X147024764Y-84114313D01*
X147024762Y-84114313D01*
X147016708Y-84115374D01*
X147016316Y-84112399D01*
X146983684Y-84112399D01*
X146983292Y-84115374D01*
X146975237Y-84114313D01*
X146975236Y-84114313D01*
X146946271Y-84110499D01*
X146862727Y-84099500D01*
X146862720Y-84099500D01*
X146637280Y-84099500D01*
X146637272Y-84099500D01*
X146550393Y-84110938D01*
X146524764Y-84114313D01*
X146524762Y-84114313D01*
X146516708Y-84115374D01*
X146516316Y-84112399D01*
X146483684Y-84112399D01*
X146483292Y-84115374D01*
X146475237Y-84114313D01*
X146475236Y-84114313D01*
X146446271Y-84110499D01*
X146362727Y-84099500D01*
X146362720Y-84099500D01*
X146137280Y-84099500D01*
X146137272Y-84099500D01*
X146050393Y-84110938D01*
X146024764Y-84114313D01*
X146024762Y-84114313D01*
X146016708Y-84115374D01*
X146016316Y-84112399D01*
X145983682Y-84112399D01*
X145983290Y-84115374D01*
X145975237Y-84114313D01*
X145975236Y-84114313D01*
X145958311Y-84112084D01*
X145894416Y-84083817D01*
X145855946Y-84025491D01*
X145850500Y-83989146D01*
X145850500Y-83290530D01*
X145850501Y-83290517D01*
X145850501Y-83149986D01*
X151275001Y-83149986D01*
X151285494Y-83252697D01*
X151340641Y-83419119D01*
X151340643Y-83419124D01*
X151432684Y-83568345D01*
X151556654Y-83692315D01*
X151705875Y-83784356D01*
X151705880Y-83784358D01*
X151872302Y-83839505D01*
X151872309Y-83839506D01*
X151975019Y-83849999D01*
X152249999Y-83849999D01*
X152750000Y-83849999D01*
X153024972Y-83849999D01*
X153024986Y-83849998D01*
X153127697Y-83839505D01*
X153294119Y-83784358D01*
X153294124Y-83784356D01*
X153443345Y-83692315D01*
X153567315Y-83568345D01*
X153659356Y-83419124D01*
X153659358Y-83419119D01*
X153714505Y-83252697D01*
X153714506Y-83252690D01*
X153724999Y-83149986D01*
X153725000Y-83149973D01*
X153725000Y-83100000D01*
X152750000Y-83100000D01*
X152750000Y-83849999D01*
X152249999Y-83849999D01*
X152250000Y-83849998D01*
X152250000Y-83100000D01*
X151275001Y-83100000D01*
X151275001Y-83149986D01*
X145850501Y-83149986D01*
X145850501Y-83122416D01*
X145850501Y-83122414D01*
X145809577Y-82969686D01*
X145780639Y-82919566D01*
X145730520Y-82832755D01*
X145618716Y-82720951D01*
X145618715Y-82720950D01*
X145614385Y-82716620D01*
X145614374Y-82716610D01*
X143547747Y-80649983D01*
X151274500Y-80649983D01*
X151274500Y-81250001D01*
X151274501Y-81250019D01*
X151285000Y-81352796D01*
X151285001Y-81352799D01*
X151316266Y-81447149D01*
X151340186Y-81519334D01*
X151432288Y-81668656D01*
X151556344Y-81792712D01*
X151559628Y-81794737D01*
X151559653Y-81794753D01*
X151561445Y-81796746D01*
X151562011Y-81797193D01*
X151561934Y-81797289D01*
X151606379Y-81846699D01*
X151617603Y-81915661D01*
X151589761Y-81979744D01*
X151559665Y-82005826D01*
X151556660Y-82007679D01*
X151556655Y-82007683D01*
X151432684Y-82131654D01*
X151340643Y-82280875D01*
X151340641Y-82280880D01*
X151285494Y-82447302D01*
X151285493Y-82447309D01*
X151275000Y-82550013D01*
X151275000Y-82600000D01*
X153724999Y-82600000D01*
X153724999Y-82550028D01*
X153724998Y-82550013D01*
X153714505Y-82447302D01*
X153659358Y-82280880D01*
X153659356Y-82280875D01*
X153567315Y-82131654D01*
X153443344Y-82007683D01*
X153443341Y-82007681D01*
X153440339Y-82005829D01*
X153438713Y-82004021D01*
X153437677Y-82003202D01*
X153437817Y-82003024D01*
X153393617Y-81953880D01*
X153382397Y-81884917D01*
X153410243Y-81820836D01*
X153440344Y-81794754D01*
X153443656Y-81792712D01*
X153567712Y-81668656D01*
X153600107Y-81616134D01*
X153652053Y-81569411D01*
X153721016Y-81558188D01*
X153771617Y-81576238D01*
X153818678Y-81605807D01*
X153850478Y-81625789D01*
X153850481Y-81625790D01*
X154020737Y-81685366D01*
X154020743Y-81685367D01*
X154020745Y-81685368D01*
X154020746Y-81685368D01*
X154020750Y-81685369D01*
X154199996Y-81705565D01*
X154200000Y-81705565D01*
X154200004Y-81705565D01*
X154379249Y-81685369D01*
X154379252Y-81685368D01*
X154379255Y-81685368D01*
X154549522Y-81625789D01*
X154702262Y-81529816D01*
X154829816Y-81402262D01*
X154925789Y-81249522D01*
X154985368Y-81079255D01*
X154996476Y-80980668D01*
X155005565Y-80900003D01*
X155005565Y-80899996D01*
X154985369Y-80720750D01*
X154985368Y-80720745D01*
X154956717Y-80638865D01*
X154925789Y-80550478D01*
X154829816Y-80397738D01*
X154702262Y-80270184D01*
X154672355Y-80251392D01*
X154549523Y-80174211D01*
X154379254Y-80114631D01*
X154379249Y-80114630D01*
X154200004Y-80094435D01*
X154199996Y-80094435D01*
X154020750Y-80114630D01*
X154020745Y-80114631D01*
X153850476Y-80174211D01*
X153725468Y-80252760D01*
X153658231Y-80271760D01*
X153591396Y-80251392D01*
X153571815Y-80235447D01*
X153443657Y-80107289D01*
X153443656Y-80107288D01*
X153294334Y-80015186D01*
X153127797Y-79960001D01*
X153127795Y-79960000D01*
X153025010Y-79949500D01*
X151974998Y-79949500D01*
X151974980Y-79949501D01*
X151872203Y-79960000D01*
X151872200Y-79960001D01*
X151705668Y-80015185D01*
X151705663Y-80015187D01*
X151556342Y-80107289D01*
X151432289Y-80231342D01*
X151340187Y-80380663D01*
X151340185Y-80380668D01*
X151334529Y-80397737D01*
X151285001Y-80547203D01*
X151285001Y-80547204D01*
X151285000Y-80547204D01*
X151274500Y-80649983D01*
X143547747Y-80649983D01*
X141647189Y-78749425D01*
X141613704Y-78688102D01*
X141618688Y-78618410D01*
X141660560Y-78562477D01*
X141726024Y-78538060D01*
X141748754Y-78538524D01*
X141899997Y-78555565D01*
X141900000Y-78555565D01*
X141900004Y-78555565D01*
X142079249Y-78535369D01*
X142079252Y-78535368D01*
X142079255Y-78535368D01*
X142159017Y-78507457D01*
X142199972Y-78500500D01*
X142462770Y-78500500D01*
X142529809Y-78520185D01*
X142550451Y-78536819D01*
X142606344Y-78592712D01*
X142755666Y-78684814D01*
X142922203Y-78739999D01*
X143024991Y-78750500D01*
X144075008Y-78750499D01*
X144075016Y-78750498D01*
X144075019Y-78750498D01*
X144131302Y-78744748D01*
X144177797Y-78739999D01*
X144344334Y-78684814D01*
X144493656Y-78592712D01*
X144617712Y-78468656D01*
X144709814Y-78319334D01*
X144764999Y-78152797D01*
X144775500Y-78050009D01*
X144775499Y-77449992D01*
X144772486Y-77420500D01*
X144764999Y-77347203D01*
X144764998Y-77347200D01*
X144749356Y-77299996D01*
X144709814Y-77180666D01*
X144617712Y-77031344D01*
X144493656Y-76907288D01*
X144490819Y-76905538D01*
X144489283Y-76903830D01*
X144487989Y-76902807D01*
X144488163Y-76902585D01*
X144444096Y-76853594D01*
X144432872Y-76784632D01*
X144460713Y-76720549D01*
X144490817Y-76694462D01*
X144493656Y-76692712D01*
X144549549Y-76636819D01*
X144610872Y-76603334D01*
X144637230Y-76600500D01*
X145206889Y-76600500D01*
X145273928Y-76620185D01*
X145313621Y-76661379D01*
X145381917Y-76776862D01*
X145381923Y-76776870D01*
X145498129Y-76893076D01*
X145498140Y-76893085D01*
X145498455Y-76893271D01*
X145498650Y-76893480D01*
X145504298Y-76897861D01*
X145503591Y-76898772D01*
X145546136Y-76944343D01*
X145558637Y-77013085D01*
X145531988Y-77077673D01*
X145504078Y-77101856D01*
X145504298Y-77102139D01*
X145499092Y-77106176D01*
X145498455Y-77106729D01*
X145498140Y-77106914D01*
X145498129Y-77106923D01*
X145381923Y-77223129D01*
X145381917Y-77223137D01*
X145298255Y-77364603D01*
X145298254Y-77364606D01*
X145252402Y-77522426D01*
X145252401Y-77522432D01*
X145249500Y-77559298D01*
X145249500Y-78715701D01*
X145252401Y-78752567D01*
X145252402Y-78752573D01*
X145298254Y-78910393D01*
X145298255Y-78910396D01*
X145381917Y-79051862D01*
X145381923Y-79051870D01*
X145498129Y-79168076D01*
X145498133Y-79168079D01*
X145498135Y-79168081D01*
X145639602Y-79251744D01*
X145681224Y-79263836D01*
X145797426Y-79297597D01*
X145797429Y-79297597D01*
X145797431Y-79297598D01*
X145834306Y-79300500D01*
X145834314Y-79300500D01*
X146265686Y-79300500D01*
X146265694Y-79300500D01*
X146302569Y-79297598D01*
X146302571Y-79297597D01*
X146302573Y-79297597D01*
X146344640Y-79285375D01*
X146460398Y-79251744D01*
X146601865Y-79168081D01*
X146718081Y-79051865D01*
X146801744Y-78910398D01*
X146847598Y-78752569D01*
X146850500Y-78715694D01*
X146850500Y-78715649D01*
X147150000Y-78715649D01*
X147152899Y-78752489D01*
X147152900Y-78752495D01*
X147198716Y-78910193D01*
X147198717Y-78910196D01*
X147282314Y-79051552D01*
X147282321Y-79051561D01*
X147398438Y-79167678D01*
X147398447Y-79167685D01*
X147539801Y-79251281D01*
X147697514Y-79297100D01*
X147697511Y-79297100D01*
X147699998Y-79297295D01*
X147700000Y-79297295D01*
X148200000Y-79297295D01*
X148200001Y-79297295D01*
X148202486Y-79297100D01*
X148360198Y-79251281D01*
X148501552Y-79167685D01*
X148501561Y-79167678D01*
X148617678Y-79051561D01*
X148617685Y-79051552D01*
X148701282Y-78910196D01*
X148701283Y-78910193D01*
X148747099Y-78752495D01*
X148747100Y-78752489D01*
X148749999Y-78715649D01*
X148750000Y-78715634D01*
X148750000Y-78387500D01*
X148200000Y-78387500D01*
X148200000Y-79297295D01*
X147700000Y-79297295D01*
X147700000Y-78387500D01*
X147150000Y-78387500D01*
X147150000Y-78715649D01*
X146850500Y-78715649D01*
X146850500Y-78049986D01*
X149325001Y-78049986D01*
X149335494Y-78152697D01*
X149390641Y-78319119D01*
X149390643Y-78319124D01*
X149482684Y-78468345D01*
X149606654Y-78592315D01*
X149755875Y-78684356D01*
X149755880Y-78684358D01*
X149922302Y-78739505D01*
X149922309Y-78739506D01*
X150025019Y-78749999D01*
X150299999Y-78749999D01*
X150800000Y-78749999D01*
X151074972Y-78749999D01*
X151074986Y-78749998D01*
X151177697Y-78739505D01*
X151344119Y-78684358D01*
X151344124Y-78684356D01*
X151493345Y-78592315D01*
X151617315Y-78468345D01*
X151709356Y-78319124D01*
X151709358Y-78319119D01*
X151764505Y-78152697D01*
X151764506Y-78152690D01*
X151774999Y-78049986D01*
X151775000Y-78049973D01*
X151775000Y-78000000D01*
X150800000Y-78000000D01*
X150800000Y-78749999D01*
X150299999Y-78749999D01*
X150300000Y-78749998D01*
X150300000Y-78000000D01*
X149325001Y-78000000D01*
X149325001Y-78049986D01*
X146850500Y-78049986D01*
X146850500Y-77927476D01*
X146870185Y-77860437D01*
X146922989Y-77814682D01*
X146988385Y-77804256D01*
X147000000Y-77805565D01*
X147012115Y-77804200D01*
X147080937Y-77816254D01*
X147132317Y-77863603D01*
X147134698Y-77872198D01*
X147150000Y-77887500D01*
X148750000Y-77887500D01*
X148750000Y-77559365D01*
X148749999Y-77559350D01*
X148747100Y-77522510D01*
X148747099Y-77522504D01*
X148701283Y-77364806D01*
X148701282Y-77364803D01*
X148617685Y-77223447D01*
X148617678Y-77223438D01*
X148501561Y-77107321D01*
X148501550Y-77107313D01*
X148501055Y-77107020D01*
X148500746Y-77106689D01*
X148495393Y-77102537D01*
X148496062Y-77101673D01*
X148453373Y-77055950D01*
X148440871Y-76987208D01*
X148467518Y-76922619D01*
X148495859Y-76898063D01*
X148495702Y-76897861D01*
X148499435Y-76894965D01*
X148501061Y-76893555D01*
X148501865Y-76893081D01*
X148618081Y-76776865D01*
X148701744Y-76635398D01*
X148746945Y-76479816D01*
X148747597Y-76477573D01*
X148747598Y-76477567D01*
X148747889Y-76473868D01*
X148750500Y-76440694D01*
X148750500Y-75284306D01*
X148750497Y-75284272D01*
X148750494Y-75284222D01*
X148750496Y-75284212D01*
X148750404Y-75281868D01*
X148750993Y-75281844D01*
X148764862Y-75215845D01*
X148813916Y-75166091D01*
X148874112Y-75150500D01*
X148940170Y-75150500D01*
X149037712Y-75131096D01*
X149085163Y-75121658D01*
X149221745Y-75065084D01*
X149261273Y-75038671D01*
X149327948Y-75017792D01*
X149395329Y-75036275D01*
X149442020Y-75088252D01*
X149453199Y-75157222D01*
X149435704Y-75206868D01*
X149390189Y-75280659D01*
X149390185Y-75280668D01*
X149367961Y-75347737D01*
X149335001Y-75447203D01*
X149335001Y-75447204D01*
X149335000Y-75447204D01*
X149324500Y-75549983D01*
X149324500Y-76150001D01*
X149324501Y-76150019D01*
X149335000Y-76252796D01*
X149335001Y-76252799D01*
X149367960Y-76352262D01*
X149390186Y-76419334D01*
X149482288Y-76568656D01*
X149606344Y-76692712D01*
X149607985Y-76693724D01*
X149609653Y-76694753D01*
X149611445Y-76696746D01*
X149612011Y-76697193D01*
X149611934Y-76697289D01*
X149656379Y-76746699D01*
X149667603Y-76815661D01*
X149639761Y-76879744D01*
X149609665Y-76905826D01*
X149606660Y-76907679D01*
X149606655Y-76907683D01*
X149482684Y-77031654D01*
X149390643Y-77180875D01*
X149390641Y-77180880D01*
X149335494Y-77347302D01*
X149335493Y-77347309D01*
X149325000Y-77450013D01*
X149325000Y-77500000D01*
X151774999Y-77500000D01*
X151774999Y-77450028D01*
X151774998Y-77450013D01*
X151764505Y-77347302D01*
X151709358Y-77180880D01*
X151709356Y-77180875D01*
X151617315Y-77031654D01*
X151493344Y-76907683D01*
X151493341Y-76907681D01*
X151490339Y-76905829D01*
X151488713Y-76904021D01*
X151487677Y-76903202D01*
X151487817Y-76903024D01*
X151443617Y-76853880D01*
X151432397Y-76784917D01*
X151460243Y-76720836D01*
X151490344Y-76694754D01*
X151493656Y-76692712D01*
X151549549Y-76636819D01*
X151610872Y-76603334D01*
X151637230Y-76600500D01*
X151850028Y-76600500D01*
X151890982Y-76607457D01*
X151967853Y-76634356D01*
X151970745Y-76635368D01*
X151970750Y-76635369D01*
X152149996Y-76655565D01*
X152150000Y-76655565D01*
X152150004Y-76655565D01*
X152329249Y-76635369D01*
X152329252Y-76635368D01*
X152329255Y-76635368D01*
X152499522Y-76575789D01*
X152652262Y-76479816D01*
X152779816Y-76352262D01*
X152875789Y-76199522D01*
X152935368Y-76029255D01*
X152935369Y-76029249D01*
X152955565Y-75850003D01*
X152955565Y-75849996D01*
X152935369Y-75670750D01*
X152935368Y-75670745D01*
X152893114Y-75549991D01*
X152875789Y-75500478D01*
X152779816Y-75347738D01*
X152652262Y-75220184D01*
X152541361Y-75150500D01*
X152499523Y-75124211D01*
X152329254Y-75064631D01*
X152329249Y-75064630D01*
X152150004Y-75044435D01*
X152149996Y-75044435D01*
X151970750Y-75064630D01*
X151970745Y-75064631D01*
X151890983Y-75092542D01*
X151850028Y-75099500D01*
X151637230Y-75099500D01*
X151570191Y-75079815D01*
X151549549Y-75063181D01*
X151493657Y-75007289D01*
X151493656Y-75007288D01*
X151344334Y-74915186D01*
X151177797Y-74860001D01*
X151177795Y-74860000D01*
X151075016Y-74849500D01*
X151075009Y-74849500D01*
X150961661Y-74849500D01*
X150894622Y-74829815D01*
X150848867Y-74777011D01*
X150838923Y-74707853D01*
X150856668Y-74659527D01*
X150925788Y-74549524D01*
X150925789Y-74549522D01*
X150985368Y-74379255D01*
X150986902Y-74365641D01*
X151005565Y-74200003D01*
X151005565Y-74199997D01*
X150991960Y-74079254D01*
X150989893Y-74060907D01*
X151001947Y-73992087D01*
X151049296Y-73940708D01*
X151116906Y-73923083D01*
X151137299Y-73925407D01*
X151198158Y-73937513D01*
X151219458Y-73941750D01*
X151219459Y-73941750D01*
X151416543Y-73941750D01*
X151546582Y-73915882D01*
X151609835Y-73903301D01*
X151791914Y-73827882D01*
X151955782Y-73718389D01*
X152095139Y-73579032D01*
X152204632Y-73415164D01*
X152211851Y-73397737D01*
X152244545Y-73318804D01*
X152280051Y-73233085D01*
X152303613Y-73114631D01*
X152318500Y-73039793D01*
X152318500Y-71742706D01*
X152280052Y-71549420D01*
X152280051Y-71549419D01*
X152280051Y-71549415D01*
X152277204Y-71542542D01*
X152204635Y-71367342D01*
X152204628Y-71367329D01*
X152095139Y-71203468D01*
X152095136Y-71203464D01*
X151955785Y-71064113D01*
X151955781Y-71064110D01*
X151791920Y-70954621D01*
X151791907Y-70954614D01*
X151609839Y-70879200D01*
X151609829Y-70879197D01*
X151416543Y-70840750D01*
X151416541Y-70840750D01*
X151219459Y-70840750D01*
X151219457Y-70840750D01*
X151026170Y-70879197D01*
X151026160Y-70879200D01*
X150844092Y-70954614D01*
X150844079Y-70954621D01*
X150680218Y-71064110D01*
X150680214Y-71064113D01*
X150540863Y-71203464D01*
X150540860Y-71203468D01*
X150427983Y-71372401D01*
X150426238Y-71371235D01*
X150383944Y-71414281D01*
X150315804Y-71429732D01*
X150250128Y-71405891D01*
X150248074Y-71404349D01*
X150243365Y-71400735D01*
X150112136Y-71324969D01*
X150038950Y-71305359D01*
X149965766Y-71285750D01*
X149814234Y-71285750D01*
X149667863Y-71324969D01*
X149536635Y-71400735D01*
X149536632Y-71400737D01*
X149429487Y-71507882D01*
X149429485Y-71507885D01*
X149353719Y-71639113D01*
X149314500Y-71785484D01*
X149314500Y-71841750D01*
X149294815Y-71908789D01*
X149242011Y-71954544D01*
X149190501Y-71965750D01*
X149102130Y-71965750D01*
X149102120Y-71965751D01*
X149038248Y-71972617D01*
X149011742Y-71972617D01*
X149007483Y-71972159D01*
X148947873Y-71965750D01*
X148947864Y-71965750D01*
X148552130Y-71965750D01*
X148552119Y-71965751D01*
X148513253Y-71969929D01*
X148486748Y-71969929D01*
X148447874Y-71965750D01*
X148052130Y-71965750D01*
X148052119Y-71965751D01*
X148013253Y-71969929D01*
X147986748Y-71969929D01*
X147947874Y-71965750D01*
X147552130Y-71965750D01*
X147552119Y-71965751D01*
X147513253Y-71969929D01*
X147486748Y-71969929D01*
X147447874Y-71965750D01*
X147052130Y-71965750D01*
X147052119Y-71965751D01*
X147013253Y-71969929D01*
X146986748Y-71969929D01*
X146947874Y-71965750D01*
X146552130Y-71965750D01*
X146552119Y-71965751D01*
X146513253Y-71969929D01*
X146486748Y-71969929D01*
X146447874Y-71965750D01*
X146052130Y-71965750D01*
X146052119Y-71965751D01*
X146013253Y-71969929D01*
X145986748Y-71969929D01*
X145947874Y-71965750D01*
X145552130Y-71965750D01*
X145552119Y-71965751D01*
X145513253Y-71969929D01*
X145486748Y-71969929D01*
X145447874Y-71965750D01*
X145052129Y-71965750D01*
X145052120Y-71965751D01*
X144988248Y-71972617D01*
X144961742Y-71972617D01*
X144957483Y-71972159D01*
X144897873Y-71965750D01*
X144897867Y-71965750D01*
X144809500Y-71965750D01*
X144742461Y-71946065D01*
X144696706Y-71893261D01*
X144685500Y-71841750D01*
X144685500Y-71785486D01*
X144685500Y-71785484D01*
X144646281Y-71639115D01*
X144570515Y-71507885D01*
X144463365Y-71400735D01*
X144397750Y-71362852D01*
X144332136Y-71324969D01*
X144258950Y-71305359D01*
X144185766Y-71285750D01*
X144034234Y-71285750D01*
X143887863Y-71324969D01*
X143756627Y-71400739D01*
X143751920Y-71404352D01*
X143686751Y-71429545D01*
X143618306Y-71415505D01*
X143573293Y-71371549D01*
X143572017Y-71372402D01*
X143459139Y-71203467D01*
X143319785Y-71064113D01*
X143319781Y-71064110D01*
X143155920Y-70954621D01*
X143155907Y-70954614D01*
X142973839Y-70879200D01*
X142973829Y-70879197D01*
X142780543Y-70840750D01*
X142780541Y-70840750D01*
X142583459Y-70840750D01*
X142583457Y-70840750D01*
X142390170Y-70879197D01*
X142390160Y-70879200D01*
X142208092Y-70954614D01*
X142208079Y-70954621D01*
X142044218Y-71064110D01*
X142044214Y-71064113D01*
X141904863Y-71203464D01*
X141904860Y-71203468D01*
X141795371Y-71367329D01*
X141795364Y-71367342D01*
X141719950Y-71549410D01*
X141719947Y-71549420D01*
X141681500Y-71742706D01*
X141681500Y-71742709D01*
X141681500Y-73039791D01*
X141681500Y-73039793D01*
X141681499Y-73039793D01*
X141719947Y-73233079D01*
X141719950Y-73233089D01*
X141795364Y-73415157D01*
X141795371Y-73415170D01*
X141904860Y-73579031D01*
X141904863Y-73579035D01*
X142044214Y-73718386D01*
X142044218Y-73718389D01*
X142208079Y-73827878D01*
X142208092Y-73827885D01*
X142382203Y-73900003D01*
X142390165Y-73903301D01*
X142390169Y-73903301D01*
X142390170Y-73903302D01*
X142583456Y-73941750D01*
X142583459Y-73941750D01*
X142780542Y-73941750D01*
X142797455Y-73938385D01*
X142862695Y-73925408D01*
X142932285Y-73931635D01*
X142987463Y-73974497D01*
X143010708Y-74040386D01*
X143010106Y-74060908D01*
X142994435Y-74199996D01*
X142994435Y-74200003D01*
X143014630Y-74379249D01*
X143014631Y-74379254D01*
X143074211Y-74549524D01*
X143143332Y-74659527D01*
X143162333Y-74726764D01*
X143141966Y-74793599D01*
X143088698Y-74838814D01*
X143038347Y-74849500D01*
X143025002Y-74849500D01*
X143024980Y-74849501D01*
X142922203Y-74860000D01*
X142922200Y-74860001D01*
X142755668Y-74915185D01*
X142755663Y-74915187D01*
X142606342Y-75007289D01*
X142482289Y-75131342D01*
X142390187Y-75280663D01*
X142390185Y-75280668D01*
X142367961Y-75347737D01*
X142335001Y-75447203D01*
X142335001Y-75447204D01*
X142335000Y-75447204D01*
X142324500Y-75549983D01*
X142324500Y-76150001D01*
X142324501Y-76150019D01*
X142335000Y-76252796D01*
X142335001Y-76252799D01*
X142367960Y-76352262D01*
X142390186Y-76419334D01*
X142477355Y-76560659D01*
X142482289Y-76568657D01*
X142606346Y-76692714D01*
X142609182Y-76694463D01*
X142610717Y-76696170D01*
X142612011Y-76697193D01*
X142611836Y-76697414D01*
X142655905Y-76746411D01*
X142667126Y-76815374D01*
X142639282Y-76879456D01*
X142609182Y-76905537D01*
X142606346Y-76907285D01*
X142606343Y-76907288D01*
X142550451Y-76963181D01*
X142489128Y-76996666D01*
X142462770Y-76999500D01*
X142199972Y-76999500D01*
X142159017Y-76992542D01*
X142079254Y-76964631D01*
X142079249Y-76964630D01*
X141900004Y-76944435D01*
X141899996Y-76944435D01*
X141720750Y-76964630D01*
X141720745Y-76964631D01*
X141550476Y-77024211D01*
X141397737Y-77120184D01*
X141270184Y-77247737D01*
X141174211Y-77400476D01*
X141114631Y-77570745D01*
X141114630Y-77570750D01*
X141094435Y-77749996D01*
X141094435Y-77750004D01*
X141111475Y-77901246D01*
X141099420Y-77970068D01*
X141052071Y-78021447D01*
X140984460Y-78039071D01*
X140918055Y-78017344D01*
X140900574Y-78002810D01*
X140136819Y-77239055D01*
X140103334Y-77177732D01*
X140100500Y-77151374D01*
X140100500Y-74482412D01*
X140120185Y-74415373D01*
X140127555Y-74405097D01*
X140129810Y-74402267D01*
X140129816Y-74402262D01*
X140225789Y-74249522D01*
X140285368Y-74079255D01*
X140287435Y-74060909D01*
X140305565Y-73900003D01*
X140305565Y-73899996D01*
X140285369Y-73720750D01*
X140285368Y-73720745D01*
X140284543Y-73718386D01*
X140225789Y-73550478D01*
X140129816Y-73397738D01*
X140002262Y-73270184D01*
X139969740Y-73249749D01*
X139849523Y-73174211D01*
X139679254Y-73114631D01*
X139679249Y-73114630D01*
X139500004Y-73094435D01*
X139499996Y-73094435D01*
X139320750Y-73114630D01*
X139320745Y-73114631D01*
X139150476Y-73174211D01*
X138997737Y-73270184D01*
X138962181Y-73305741D01*
X138900858Y-73339226D01*
X138831166Y-73334242D01*
X138775233Y-73292370D01*
X138750816Y-73226906D01*
X138750500Y-73218060D01*
X138750500Y-71431057D01*
X138770185Y-71364018D01*
X138809401Y-71325520D01*
X138943656Y-71242712D01*
X139067712Y-71118656D01*
X139159814Y-70969334D01*
X139214999Y-70802797D01*
X139225500Y-70700009D01*
X139225499Y-70099992D01*
X139224931Y-70094435D01*
X139214999Y-69997203D01*
X139214998Y-69997200D01*
X139180953Y-69894459D01*
X139159814Y-69830666D01*
X139067712Y-69681344D01*
X138943656Y-69557288D01*
X138940819Y-69555538D01*
X138939283Y-69553830D01*
X138937989Y-69552807D01*
X138938163Y-69552585D01*
X138894096Y-69503594D01*
X138882872Y-69434632D01*
X138910713Y-69370549D01*
X138940817Y-69344462D01*
X138943656Y-69342712D01*
X139067712Y-69218656D01*
X139159814Y-69069334D01*
X139214999Y-68902797D01*
X139225500Y-68800009D01*
X139225500Y-68609793D01*
X141681499Y-68609793D01*
X141719947Y-68803079D01*
X141719950Y-68803089D01*
X141795364Y-68985157D01*
X141795371Y-68985170D01*
X141904860Y-69149031D01*
X141904863Y-69149035D01*
X142044214Y-69288386D01*
X142044218Y-69288389D01*
X142208079Y-69397878D01*
X142208092Y-69397885D01*
X142371027Y-69465374D01*
X142390165Y-69473301D01*
X142390169Y-69473301D01*
X142390170Y-69473302D01*
X142583456Y-69511750D01*
X142583459Y-69511750D01*
X142780543Y-69511750D01*
X142910582Y-69485882D01*
X142973835Y-69473301D01*
X143155914Y-69397882D01*
X143319782Y-69288389D01*
X143459139Y-69149032D01*
X143568632Y-68985164D01*
X143574837Y-68970185D01*
X143602750Y-68902795D01*
X143644051Y-68803085D01*
X143682500Y-68609793D01*
X150317499Y-68609793D01*
X150355947Y-68803079D01*
X150355950Y-68803089D01*
X150431364Y-68985157D01*
X150431371Y-68985170D01*
X150540860Y-69149031D01*
X150540863Y-69149035D01*
X150680214Y-69288386D01*
X150680218Y-69288389D01*
X150844079Y-69397878D01*
X150844092Y-69397885D01*
X151007027Y-69465374D01*
X151026165Y-69473301D01*
X151026169Y-69473301D01*
X151026170Y-69473302D01*
X151219456Y-69511750D01*
X151219459Y-69511750D01*
X151416543Y-69511750D01*
X151546582Y-69485882D01*
X151609835Y-69473301D01*
X151791914Y-69397882D01*
X151955782Y-69288389D01*
X152095139Y-69149032D01*
X152204632Y-68985164D01*
X152210837Y-68970185D01*
X152238750Y-68902795D01*
X152280051Y-68803085D01*
X152318500Y-68609791D01*
X152318500Y-67812709D01*
X152318500Y-67812706D01*
X152280052Y-67619420D01*
X152280051Y-67619419D01*
X152280051Y-67619415D01*
X152257589Y-67565186D01*
X152204635Y-67437342D01*
X152204628Y-67437329D01*
X152095139Y-67273468D01*
X152095136Y-67273464D01*
X151955785Y-67134113D01*
X151955781Y-67134110D01*
X151791920Y-67024621D01*
X151791907Y-67024614D01*
X151609839Y-66949200D01*
X151609829Y-66949197D01*
X151416543Y-66910750D01*
X151416541Y-66910750D01*
X151219459Y-66910750D01*
X151219457Y-66910750D01*
X151026170Y-66949197D01*
X151026160Y-66949200D01*
X150844092Y-67024614D01*
X150844079Y-67024621D01*
X150680218Y-67134110D01*
X150680214Y-67134113D01*
X150540863Y-67273464D01*
X150540860Y-67273468D01*
X150431371Y-67437329D01*
X150431364Y-67437342D01*
X150355950Y-67619410D01*
X150355947Y-67619420D01*
X150317500Y-67812706D01*
X150317500Y-67812709D01*
X150317500Y-68609791D01*
X150317500Y-68609793D01*
X150317499Y-68609793D01*
X143682500Y-68609793D01*
X143682500Y-68609791D01*
X143682500Y-67812709D01*
X143682500Y-67812706D01*
X143644052Y-67619420D01*
X143644051Y-67619419D01*
X143644051Y-67619415D01*
X143621589Y-67565186D01*
X143568635Y-67437342D01*
X143568628Y-67437329D01*
X143459139Y-67273468D01*
X143459136Y-67273464D01*
X143319785Y-67134113D01*
X143319781Y-67134110D01*
X143155920Y-67024621D01*
X143155907Y-67024614D01*
X142973839Y-66949200D01*
X142973829Y-66949197D01*
X142780543Y-66910750D01*
X142780541Y-66910750D01*
X142583459Y-66910750D01*
X142583457Y-66910750D01*
X142390170Y-66949197D01*
X142390160Y-66949200D01*
X142208092Y-67024614D01*
X142208079Y-67024621D01*
X142044218Y-67134110D01*
X142044214Y-67134113D01*
X141904863Y-67273464D01*
X141904860Y-67273468D01*
X141795371Y-67437329D01*
X141795364Y-67437342D01*
X141719950Y-67619410D01*
X141719947Y-67619420D01*
X141681500Y-67812706D01*
X141681500Y-67812709D01*
X141681500Y-68609791D01*
X141681500Y-68609793D01*
X141681499Y-68609793D01*
X139225500Y-68609793D01*
X139225499Y-68199992D01*
X139214999Y-68097203D01*
X139159814Y-67930666D01*
X139067712Y-67781344D01*
X138943656Y-67657288D01*
X138794334Y-67565186D01*
X138627797Y-67510001D01*
X138627795Y-67510000D01*
X138525016Y-67499500D01*
X138525009Y-67499500D01*
X137994658Y-67499500D01*
X137947209Y-67490062D01*
X137918913Y-67478342D01*
X137918909Y-67478341D01*
X137918906Y-67478340D01*
X137773920Y-67449500D01*
X137773918Y-67449500D01*
X135762320Y-67449500D01*
X135695281Y-67429815D01*
X135663052Y-67399809D01*
X135657548Y-67392457D01*
X135657546Y-67392454D01*
X135657542Y-67392451D01*
X135542335Y-67306206D01*
X135542328Y-67306202D01*
X135407482Y-67255908D01*
X135407483Y-67255908D01*
X135347883Y-67249501D01*
X135347881Y-67249500D01*
X135347873Y-67249500D01*
X135347864Y-67249500D01*
X134252129Y-67249500D01*
X134252123Y-67249501D01*
X134192516Y-67255908D01*
X134049359Y-67309303D01*
X134048714Y-67307575D01*
X133991147Y-67320095D01*
X133951011Y-67308310D01*
X133950641Y-67309303D01*
X133807482Y-67255908D01*
X133807483Y-67255908D01*
X133747883Y-67249501D01*
X133747881Y-67249500D01*
X133747873Y-67249500D01*
X133747864Y-67249500D01*
X132652129Y-67249500D01*
X132652123Y-67249501D01*
X132592516Y-67255908D01*
X132457671Y-67306202D01*
X132457664Y-67306206D01*
X132342457Y-67392451D01*
X132342451Y-67392457D01*
X132336948Y-67399809D01*
X132281015Y-67441681D01*
X132237680Y-67449500D01*
X131999972Y-67449500D01*
X131959017Y-67442542D01*
X131956556Y-67441681D01*
X131951892Y-67440048D01*
X131879254Y-67414631D01*
X131879249Y-67414630D01*
X131700004Y-67394435D01*
X131699996Y-67394435D01*
X131520750Y-67414630D01*
X131520745Y-67414631D01*
X131350476Y-67474211D01*
X131197737Y-67570184D01*
X131070184Y-67697737D01*
X130974211Y-67850476D01*
X130914631Y-68020745D01*
X130914630Y-68020750D01*
X130894435Y-68199996D01*
X130894435Y-68200003D01*
X130914630Y-68379249D01*
X130914631Y-68379254D01*
X130974211Y-68549523D01*
X131035588Y-68647203D01*
X131070184Y-68702262D01*
X131197738Y-68829816D01*
X131350478Y-68925789D01*
X131520142Y-68985157D01*
X131520745Y-68985368D01*
X131520750Y-68985369D01*
X131699996Y-69005565D01*
X131700000Y-69005565D01*
X131700004Y-69005565D01*
X131879249Y-68985369D01*
X131879252Y-68985368D01*
X131879255Y-68985368D01*
X131959017Y-68957457D01*
X131999972Y-68950500D01*
X132237680Y-68950500D01*
X132304719Y-68970185D01*
X132336948Y-69000191D01*
X132342454Y-69007546D01*
X132342457Y-69007548D01*
X132457664Y-69093793D01*
X132457671Y-69093797D01*
X132592517Y-69144091D01*
X132592516Y-69144091D01*
X132598507Y-69144735D01*
X132652127Y-69150500D01*
X133747872Y-69150499D01*
X133807483Y-69144091D01*
X133882169Y-69116234D01*
X133951857Y-69111251D01*
X134013181Y-69144735D01*
X134046666Y-69206058D01*
X134049500Y-69232417D01*
X134049500Y-71267581D01*
X134029815Y-71334620D01*
X133977011Y-71380375D01*
X133907853Y-71390319D01*
X133882168Y-71383763D01*
X133807485Y-71355909D01*
X133807483Y-71355908D01*
X133747883Y-71349501D01*
X133747881Y-71349500D01*
X133747873Y-71349500D01*
X133747864Y-71349500D01*
X132652129Y-71349500D01*
X132652123Y-71349501D01*
X132592516Y-71355908D01*
X132457671Y-71406202D01*
X132457664Y-71406206D01*
X132342457Y-71492451D01*
X132342451Y-71492457D01*
X132336948Y-71499809D01*
X132281015Y-71541681D01*
X132237680Y-71549500D01*
X131999972Y-71549500D01*
X131959017Y-71542542D01*
X131956556Y-71541681D01*
X131951892Y-71540048D01*
X131879254Y-71514631D01*
X131879249Y-71514630D01*
X131700004Y-71494435D01*
X131699996Y-71494435D01*
X131520750Y-71514630D01*
X131520745Y-71514631D01*
X131350476Y-71574211D01*
X131197737Y-71670184D01*
X131070184Y-71797737D01*
X130974211Y-71950476D01*
X130914631Y-72120745D01*
X130914630Y-72120750D01*
X130894435Y-72299996D01*
X130894435Y-72300003D01*
X130914630Y-72479249D01*
X130914631Y-72479254D01*
X130974211Y-72649523D01*
X131033932Y-72744568D01*
X131070184Y-72802262D01*
X131197738Y-72929816D01*
X131350478Y-73025789D01*
X131489666Y-73074493D01*
X131520745Y-73085368D01*
X131520750Y-73085369D01*
X131699996Y-73105565D01*
X131700000Y-73105565D01*
X131700004Y-73105565D01*
X131879249Y-73085369D01*
X131879252Y-73085368D01*
X131879255Y-73085368D01*
X131959017Y-73057457D01*
X131999972Y-73050500D01*
X132237680Y-73050500D01*
X132304719Y-73070185D01*
X132336948Y-73100191D01*
X132342454Y-73107546D01*
X132351920Y-73114632D01*
X132457664Y-73193793D01*
X132457671Y-73193797D01*
X132592517Y-73244091D01*
X132592516Y-73244091D01*
X132599444Y-73244835D01*
X132652127Y-73250500D01*
X133747872Y-73250499D01*
X133807483Y-73244091D01*
X133942331Y-73193796D01*
X133942333Y-73193794D01*
X133950640Y-73190696D01*
X133951285Y-73192427D01*
X134008828Y-73179902D01*
X134048985Y-73191692D01*
X134049357Y-73190696D01*
X134081331Y-73202621D01*
X134137266Y-73244492D01*
X134161684Y-73309956D01*
X134162000Y-73318804D01*
X134162000Y-74425270D01*
X134142315Y-74492309D01*
X134125680Y-74512952D01*
X134087326Y-74551305D01*
X134026003Y-74584790D01*
X133956311Y-74579804D01*
X133911965Y-74551304D01*
X133818345Y-74457684D01*
X133669124Y-74365643D01*
X133669119Y-74365641D01*
X133502697Y-74310494D01*
X133502690Y-74310493D01*
X133399986Y-74300000D01*
X133337500Y-74300000D01*
X133337500Y-75626000D01*
X133317815Y-75693039D01*
X133265011Y-75738794D01*
X133213500Y-75750000D01*
X132075001Y-75750000D01*
X132075001Y-75999986D01*
X132085494Y-76102697D01*
X132140641Y-76269119D01*
X132140643Y-76269124D01*
X132232684Y-76418345D01*
X132356654Y-76542315D01*
X132505881Y-76634359D01*
X132512280Y-76637343D01*
X132564721Y-76683513D01*
X132583876Y-76750706D01*
X132563663Y-76817588D01*
X132511985Y-76861656D01*
X132512209Y-76862136D01*
X132505663Y-76865187D01*
X132356342Y-76957289D01*
X132232289Y-77081342D01*
X132140187Y-77230663D01*
X132140185Y-77230668D01*
X132137406Y-77239055D01*
X132085001Y-77397203D01*
X132085001Y-77397204D01*
X132085000Y-77397204D01*
X132074500Y-77499983D01*
X132074500Y-78500001D01*
X132074501Y-78500019D01*
X132085000Y-78602796D01*
X132085001Y-78602799D01*
X132122409Y-78715686D01*
X132140186Y-78769334D01*
X132227194Y-78910398D01*
X132232289Y-78918657D01*
X132300681Y-78987049D01*
X132334166Y-79048372D01*
X132337000Y-79074730D01*
X132337000Y-79335751D01*
X132330042Y-79376705D01*
X132314631Y-79420747D01*
X132294435Y-79599996D01*
X132294435Y-79600003D01*
X132314630Y-79779249D01*
X132314631Y-79779254D01*
X132374211Y-79949523D01*
X132470184Y-80102262D01*
X132597738Y-80229816D01*
X132750478Y-80325789D01*
X132907313Y-80380668D01*
X132920745Y-80385368D01*
X132920750Y-80385369D01*
X133099996Y-80405565D01*
X133100000Y-80405565D01*
X133100004Y-80405565D01*
X133279249Y-80385369D01*
X133279252Y-80385368D01*
X133279255Y-80385368D01*
X133449522Y-80325789D01*
X133602262Y-80229816D01*
X133729816Y-80102262D01*
X133825789Y-79949522D01*
X133885368Y-79779255D01*
X133885977Y-79773851D01*
X133905565Y-79600003D01*
X133905565Y-79599996D01*
X133885369Y-79420750D01*
X133885367Y-79420742D01*
X133844958Y-79305258D01*
X133838000Y-79264304D01*
X133838000Y-79074730D01*
X133857685Y-79007691D01*
X133874319Y-78987049D01*
X133912319Y-78949049D01*
X133973642Y-78915564D01*
X134043334Y-78920548D01*
X134087681Y-78949049D01*
X134181344Y-79042712D01*
X134330666Y-79134814D01*
X134497203Y-79189999D01*
X134599991Y-79200500D01*
X135225008Y-79200499D01*
X135225016Y-79200498D01*
X135225019Y-79200498D01*
X135281302Y-79194748D01*
X135327797Y-79189999D01*
X135494334Y-79134814D01*
X135643656Y-79042712D01*
X135767712Y-78918656D01*
X135835099Y-78809402D01*
X135887047Y-78762679D01*
X135940638Y-78750500D01*
X137273920Y-78750500D01*
X137371462Y-78731096D01*
X137418913Y-78721658D01*
X137555495Y-78665084D01*
X137604729Y-78632186D01*
X137678416Y-78582952D01*
X138582952Y-77678416D01*
X138639902Y-77593182D01*
X138665084Y-77555495D01*
X138671692Y-77539539D01*
X138715531Y-77485137D01*
X138781824Y-77463070D01*
X138849524Y-77480347D01*
X138897136Y-77531483D01*
X138906028Y-77554894D01*
X138910275Y-77570745D01*
X138940423Y-77683258D01*
X138949359Y-77698734D01*
X138949360Y-77698735D01*
X139019477Y-77820183D01*
X139019481Y-77820188D01*
X139138349Y-77939056D01*
X139138355Y-77939061D01*
X140849208Y-79649914D01*
X140882693Y-79711237D01*
X140877709Y-79780929D01*
X140866521Y-79803567D01*
X140774211Y-79950476D01*
X140714631Y-80120745D01*
X140714630Y-80120750D01*
X140694435Y-80299996D01*
X140694435Y-80300003D01*
X140714631Y-80479253D01*
X140714631Y-80479256D01*
X140719222Y-80492376D01*
X140722781Y-80562155D01*
X140688050Y-80622781D01*
X140667276Y-80638865D01*
X140556342Y-80707289D01*
X140432289Y-80831342D01*
X140340187Y-80980663D01*
X140340186Y-80980666D01*
X140285001Y-81147203D01*
X140285001Y-81147204D01*
X140285000Y-81147204D01*
X140274500Y-81249983D01*
X140274500Y-81850001D01*
X140274501Y-81850019D01*
X140285000Y-81952796D01*
X140285001Y-81952799D01*
X140325495Y-82075000D01*
X140340186Y-82119334D01*
X140432288Y-82268656D01*
X140556344Y-82392712D01*
X140559628Y-82394737D01*
X140559653Y-82394753D01*
X140561445Y-82396746D01*
X140562011Y-82397193D01*
X140561934Y-82397289D01*
X140606379Y-82446699D01*
X140617603Y-82515661D01*
X140589761Y-82579744D01*
X140559665Y-82605826D01*
X140556660Y-82607679D01*
X140556655Y-82607683D01*
X140432684Y-82731654D01*
X140340643Y-82880875D01*
X140340641Y-82880880D01*
X140285494Y-83047302D01*
X140285493Y-83047309D01*
X140275000Y-83150013D01*
X140275000Y-83200000D01*
X142724999Y-83200000D01*
X142724999Y-83150028D01*
X142724998Y-83150013D01*
X142714505Y-83047302D01*
X142659358Y-82880880D01*
X142659356Y-82880875D01*
X142567315Y-82731654D01*
X142443344Y-82607683D01*
X142443341Y-82607681D01*
X142440339Y-82605829D01*
X142438713Y-82604021D01*
X142437677Y-82603202D01*
X142437817Y-82603024D01*
X142393617Y-82553880D01*
X142382397Y-82484917D01*
X142410243Y-82420836D01*
X142440344Y-82394754D01*
X142443656Y-82392712D01*
X142567712Y-82268656D01*
X142659814Y-82119334D01*
X142714999Y-81952797D01*
X142725500Y-81850009D01*
X142725499Y-81825567D01*
X142745181Y-81758531D01*
X142797983Y-81712774D01*
X142867142Y-81702829D01*
X142930698Y-81731851D01*
X142937180Y-81737886D01*
X144102165Y-82902871D01*
X144135650Y-82964194D01*
X144130666Y-83033886D01*
X144088794Y-83089819D01*
X144028372Y-83113772D01*
X144020747Y-83114631D01*
X144020745Y-83114631D01*
X143850476Y-83174211D01*
X143697737Y-83270184D01*
X143570184Y-83397737D01*
X143474211Y-83550476D01*
X143414631Y-83720745D01*
X143414630Y-83720750D01*
X143394435Y-83899996D01*
X143394435Y-83900003D01*
X143414630Y-84079249D01*
X143414631Y-84079254D01*
X143474211Y-84249523D01*
X143570184Y-84402262D01*
X143580664Y-84412742D01*
X143614149Y-84474065D01*
X143613170Y-84516483D01*
X143615861Y-84516838D01*
X143600000Y-84637302D01*
X143600000Y-85187500D01*
X143975500Y-85187500D01*
X144042539Y-85207185D01*
X144088294Y-85259989D01*
X144099500Y-85311500D01*
X144099500Y-85363500D01*
X144079815Y-85430539D01*
X144027011Y-85476294D01*
X143975500Y-85487500D01*
X143600000Y-85487500D01*
X143600000Y-85976000D01*
X143580315Y-86043039D01*
X143527511Y-86088794D01*
X143476000Y-86100000D01*
X142987500Y-86100000D01*
X142987500Y-86475500D01*
X142967815Y-86542539D01*
X142915011Y-86588294D01*
X142863500Y-86599500D01*
X142811500Y-86599500D01*
X142744461Y-86579815D01*
X142698706Y-86527011D01*
X142687500Y-86475500D01*
X142687500Y-86100000D01*
X142137302Y-86100000D01*
X142024895Y-86114800D01*
X142024891Y-86114801D01*
X141885021Y-86172736D01*
X141764905Y-86264905D01*
X141672736Y-86385021D01*
X141614801Y-86524891D01*
X141614800Y-86524896D01*
X141604911Y-86599999D01*
X141604912Y-86600000D01*
X141639365Y-86600000D01*
X141706404Y-86619685D01*
X141752159Y-86672489D01*
X141762103Y-86741647D01*
X141737741Y-86799485D01*
X141712610Y-86832238D01*
X141697840Y-86851486D01*
X141641412Y-86892689D01*
X141605894Y-86898879D01*
X141604911Y-86900000D01*
X141615804Y-86982730D01*
X141612648Y-87030979D01*
X141612224Y-87032563D01*
X141575874Y-87092233D01*
X141513035Y-87122778D01*
X141492441Y-87124500D01*
X140160452Y-87124500D01*
X140093413Y-87104815D01*
X140072771Y-87088181D01*
X139761819Y-86777229D01*
X139728334Y-86715906D01*
X139725500Y-86689548D01*
X139725500Y-84838393D01*
X139725499Y-84838389D01*
X139704768Y-84734166D01*
X139701463Y-84717548D01*
X139686397Y-84681177D01*
X139668215Y-84637279D01*
X139654314Y-84603719D01*
X139654312Y-84603716D01*
X139654312Y-84603715D01*
X139618754Y-84550500D01*
X139585858Y-84501267D01*
X139585856Y-84501264D01*
X139495637Y-84411045D01*
X139495606Y-84411016D01*
X138940198Y-83855608D01*
X138940178Y-83855586D01*
X138848735Y-83764143D01*
X138827547Y-83749986D01*
X140275001Y-83749986D01*
X140285494Y-83852697D01*
X140340641Y-84019119D01*
X140340643Y-84019124D01*
X140432684Y-84168345D01*
X140556654Y-84292315D01*
X140705875Y-84384356D01*
X140705880Y-84384358D01*
X140872302Y-84439505D01*
X140872309Y-84439506D01*
X140975019Y-84449999D01*
X141249999Y-84449999D01*
X141750000Y-84449999D01*
X142024972Y-84449999D01*
X142024986Y-84449998D01*
X142127697Y-84439505D01*
X142294119Y-84384358D01*
X142294124Y-84384356D01*
X142443345Y-84292315D01*
X142567315Y-84168345D01*
X142659356Y-84019124D01*
X142659358Y-84019119D01*
X142714505Y-83852697D01*
X142714506Y-83852690D01*
X142724999Y-83749986D01*
X142725000Y-83749973D01*
X142725000Y-83700000D01*
X141750000Y-83700000D01*
X141750000Y-84449999D01*
X141249999Y-84449999D01*
X141250000Y-84449998D01*
X141250000Y-83700000D01*
X140275001Y-83700000D01*
X140275001Y-83749986D01*
X138827547Y-83749986D01*
X138797359Y-83729815D01*
X138779002Y-83717549D01*
X138779003Y-83717549D01*
X138779001Y-83717547D01*
X138746290Y-83695690D01*
X138746286Y-83695688D01*
X138733995Y-83690597D01*
X138665792Y-83662347D01*
X138632453Y-83648537D01*
X138622427Y-83646543D01*
X138572029Y-83636518D01*
X138511610Y-83624500D01*
X138511607Y-83624500D01*
X138511606Y-83624500D01*
X138473467Y-83624500D01*
X138406428Y-83604815D01*
X138360673Y-83552011D01*
X138357285Y-83543834D01*
X138343796Y-83507669D01*
X138343793Y-83507664D01*
X138257547Y-83392455D01*
X138257544Y-83392452D01*
X138142335Y-83306206D01*
X138142328Y-83306202D01*
X138007482Y-83255908D01*
X138007483Y-83255908D01*
X137947883Y-83249501D01*
X137947881Y-83249500D01*
X137947873Y-83249500D01*
X137947864Y-83249500D01*
X136052129Y-83249500D01*
X136052123Y-83249501D01*
X135992516Y-83255908D01*
X135857671Y-83306202D01*
X135857664Y-83306206D01*
X135742455Y-83392452D01*
X135742452Y-83392455D01*
X135656206Y-83507664D01*
X135656202Y-83507671D01*
X135605908Y-83642517D01*
X135604126Y-83650062D01*
X135601853Y-83649525D01*
X135579571Y-83703312D01*
X135522177Y-83743157D01*
X135483024Y-83749500D01*
X134981058Y-83749500D01*
X134914019Y-83729815D01*
X134875519Y-83690597D01*
X134858095Y-83662348D01*
X134792712Y-83556344D01*
X134668656Y-83432288D01*
X134519334Y-83340186D01*
X134352797Y-83285001D01*
X134352795Y-83285000D01*
X134250010Y-83274500D01*
X133649998Y-83274500D01*
X133649980Y-83274501D01*
X133547203Y-83285000D01*
X133547200Y-83285001D01*
X133380668Y-83340185D01*
X133380663Y-83340187D01*
X133231342Y-83432289D01*
X133107285Y-83556346D01*
X133105537Y-83559182D01*
X133103829Y-83560717D01*
X133102807Y-83562011D01*
X133102585Y-83561836D01*
X133053589Y-83605905D01*
X132984626Y-83617126D01*
X132920544Y-83589282D01*
X132894463Y-83559182D01*
X132892714Y-83556346D01*
X132768657Y-83432289D01*
X132768656Y-83432288D01*
X132619334Y-83340186D01*
X132452797Y-83285001D01*
X132452795Y-83285000D01*
X132350010Y-83274500D01*
X131749998Y-83274500D01*
X131749980Y-83274501D01*
X131647203Y-83285000D01*
X131647200Y-83285001D01*
X131480668Y-83340185D01*
X131480663Y-83340187D01*
X131331342Y-83432289D01*
X131207289Y-83556342D01*
X131115187Y-83705663D01*
X131115185Y-83705668D01*
X131107184Y-83729815D01*
X131060001Y-83872203D01*
X131060001Y-83872204D01*
X131060000Y-83872204D01*
X131049500Y-83974983D01*
X131049500Y-85025001D01*
X131049501Y-85025019D01*
X131060000Y-85127796D01*
X131060001Y-85127799D01*
X131115185Y-85294331D01*
X131115187Y-85294336D01*
X131125774Y-85311500D01*
X131207288Y-85443656D01*
X131331344Y-85567712D01*
X131455775Y-85644461D01*
X131502499Y-85696409D01*
X131513722Y-85765372D01*
X131485878Y-85829454D01*
X131455775Y-85855539D01*
X131331342Y-85932289D01*
X131207289Y-86056342D01*
X131115187Y-86205663D01*
X131115185Y-86205668D01*
X131102763Y-86243157D01*
X131060001Y-86372203D01*
X131060001Y-86372204D01*
X131060000Y-86372204D01*
X131049500Y-86474983D01*
X131049500Y-87525001D01*
X131049501Y-87525019D01*
X131060000Y-87627796D01*
X131060001Y-87627799D01*
X131115185Y-87794331D01*
X131115187Y-87794336D01*
X131129528Y-87817587D01*
X131207288Y-87943656D01*
X131331344Y-88067712D01*
X131444142Y-88137286D01*
X131455775Y-88144461D01*
X131502499Y-88196409D01*
X131513722Y-88265372D01*
X131485878Y-88329454D01*
X131455775Y-88355538D01*
X131444121Y-88362727D01*
X131331342Y-88432289D01*
X131207289Y-88556342D01*
X131193160Y-88579249D01*
X131134588Y-88674211D01*
X131124481Y-88690597D01*
X131072533Y-88737321D01*
X131018942Y-88749500D01*
X130899972Y-88749500D01*
X130859017Y-88742542D01*
X130779254Y-88714631D01*
X130779249Y-88714630D01*
X130600004Y-88694435D01*
X130599996Y-88694435D01*
X130420750Y-88714630D01*
X130420745Y-88714631D01*
X130250476Y-88774211D01*
X130097737Y-88870184D01*
X129970184Y-88997737D01*
X129874211Y-89150476D01*
X129814631Y-89320745D01*
X129814630Y-89320750D01*
X129794435Y-89499996D01*
X129794435Y-89500003D01*
X129814630Y-89679249D01*
X129814631Y-89679254D01*
X129874211Y-89849523D01*
X129950008Y-89970152D01*
X129970184Y-90002262D01*
X130097738Y-90129816D01*
X130186148Y-90185368D01*
X130246868Y-90223521D01*
X130250478Y-90225789D01*
X130420745Y-90285368D01*
X130420750Y-90285369D01*
X130599996Y-90305565D01*
X130600000Y-90305565D01*
X130600004Y-90305565D01*
X130779249Y-90285369D01*
X130779252Y-90285368D01*
X130779255Y-90285368D01*
X130859017Y-90257457D01*
X130899972Y-90250500D01*
X131018942Y-90250500D01*
X131085981Y-90270185D01*
X131124479Y-90309401D01*
X131207288Y-90443656D01*
X131331344Y-90567712D01*
X131480666Y-90659814D01*
X131647203Y-90714999D01*
X131749991Y-90725500D01*
X132350008Y-90725499D01*
X132350016Y-90725498D01*
X132350019Y-90725498D01*
X132406302Y-90719748D01*
X132452797Y-90714999D01*
X132619334Y-90659814D01*
X132768656Y-90567712D01*
X132892712Y-90443656D01*
X132894461Y-90440819D01*
X132896169Y-90439283D01*
X132897193Y-90437989D01*
X132897414Y-90438163D01*
X132946406Y-90394096D01*
X133015368Y-90382872D01*
X133079451Y-90410713D01*
X133105537Y-90440817D01*
X133107288Y-90443656D01*
X133231344Y-90567712D01*
X133380666Y-90659814D01*
X133547203Y-90714999D01*
X133649991Y-90725500D01*
X134250008Y-90725499D01*
X134250016Y-90725498D01*
X134250019Y-90725498D01*
X134306302Y-90719748D01*
X134352797Y-90714999D01*
X134519334Y-90659814D01*
X134668656Y-90567712D01*
X134792712Y-90443656D01*
X134875519Y-90309402D01*
X134927467Y-90262679D01*
X134981058Y-90250500D01*
X135875501Y-90250500D01*
X135942540Y-90270185D01*
X135988295Y-90322989D01*
X135999501Y-90374500D01*
X135999501Y-90697876D01*
X136005908Y-90757483D01*
X136056202Y-90892328D01*
X136056206Y-90892335D01*
X136142452Y-91007544D01*
X136142455Y-91007547D01*
X136257664Y-91093793D01*
X136257671Y-91093797D01*
X136392517Y-91144091D01*
X136392516Y-91144091D01*
X136399444Y-91144835D01*
X136452127Y-91150500D01*
X138947872Y-91150499D01*
X139007483Y-91144091D01*
X139142331Y-91093796D01*
X139257546Y-91007546D01*
X139257548Y-91007542D01*
X139262819Y-91002273D01*
X139324142Y-90968788D01*
X139393834Y-90973772D01*
X139449767Y-91015644D01*
X139474184Y-91081108D01*
X139474500Y-91089954D01*
X139474500Y-91589546D01*
X139454815Y-91656585D01*
X139438181Y-91677227D01*
X139247387Y-91868021D01*
X139186064Y-91901506D01*
X139116373Y-91896522D01*
X139007482Y-91855908D01*
X139007483Y-91855908D01*
X138947883Y-91849501D01*
X138947881Y-91849500D01*
X138947873Y-91849500D01*
X138947864Y-91849500D01*
X136452129Y-91849500D01*
X136452123Y-91849501D01*
X136392516Y-91855908D01*
X136257671Y-91906202D01*
X136257664Y-91906206D01*
X136142455Y-91992452D01*
X136142452Y-91992455D01*
X136056206Y-92107664D01*
X136056202Y-92107671D01*
X136005908Y-92242517D01*
X135999501Y-92302116D01*
X135999500Y-92302135D01*
X135999500Y-92625500D01*
X135979815Y-92692539D01*
X135927011Y-92738294D01*
X135875500Y-92749500D01*
X134981058Y-92749500D01*
X134914019Y-92729815D01*
X134875519Y-92690597D01*
X134871508Y-92684094D01*
X134792712Y-92556344D01*
X134668656Y-92432288D01*
X134538880Y-92352242D01*
X134519336Y-92340187D01*
X134519331Y-92340185D01*
X134478711Y-92326725D01*
X134352797Y-92285001D01*
X134352795Y-92285000D01*
X134250010Y-92274500D01*
X133649998Y-92274500D01*
X133649980Y-92274501D01*
X133547203Y-92285000D01*
X133547200Y-92285001D01*
X133380668Y-92340185D01*
X133380663Y-92340187D01*
X133231342Y-92432289D01*
X133107285Y-92556346D01*
X133105537Y-92559182D01*
X133103829Y-92560717D01*
X133102807Y-92562011D01*
X133102585Y-92561836D01*
X133053589Y-92605905D01*
X132984626Y-92617126D01*
X132920544Y-92589282D01*
X132894463Y-92559182D01*
X132892714Y-92556346D01*
X132768657Y-92432289D01*
X132768656Y-92432288D01*
X132638880Y-92352242D01*
X132619336Y-92340187D01*
X132619331Y-92340185D01*
X132578711Y-92326725D01*
X132452797Y-92285001D01*
X132452795Y-92285000D01*
X132350010Y-92274500D01*
X131749998Y-92274500D01*
X131749980Y-92274501D01*
X131647203Y-92285000D01*
X131647200Y-92285001D01*
X131480668Y-92340185D01*
X131480663Y-92340187D01*
X131331342Y-92432289D01*
X131207289Y-92556342D01*
X131203343Y-92562740D01*
X131131477Y-92679255D01*
X131124481Y-92690597D01*
X131072533Y-92737321D01*
X131018942Y-92749500D01*
X130899972Y-92749500D01*
X130859017Y-92742542D01*
X130779254Y-92714631D01*
X130779249Y-92714630D01*
X130600004Y-92694435D01*
X130599996Y-92694435D01*
X130420750Y-92714630D01*
X130420745Y-92714631D01*
X130250476Y-92774211D01*
X130097737Y-92870184D01*
X129970184Y-92997737D01*
X129874211Y-93150476D01*
X129814631Y-93320745D01*
X129814630Y-93320750D01*
X129794435Y-93499996D01*
X129794435Y-93500003D01*
X129814630Y-93679249D01*
X129814631Y-93679254D01*
X129874211Y-93849523D01*
X129903496Y-93896129D01*
X129970184Y-94002262D01*
X130097738Y-94129816D01*
X130188080Y-94186582D01*
X130225211Y-94209913D01*
X130250478Y-94225789D01*
X130420745Y-94285368D01*
X130420750Y-94285369D01*
X130599996Y-94305565D01*
X130600000Y-94305565D01*
X130600004Y-94305565D01*
X130779249Y-94285369D01*
X130779252Y-94285368D01*
X130779255Y-94285368D01*
X130859017Y-94257457D01*
X130899972Y-94250500D01*
X131018942Y-94250500D01*
X131085981Y-94270185D01*
X131124479Y-94309401D01*
X131207288Y-94443656D01*
X131331344Y-94567712D01*
X131480666Y-94659814D01*
X131647203Y-94714999D01*
X131749991Y-94725500D01*
X132350008Y-94725499D01*
X132350016Y-94725498D01*
X132350019Y-94725498D01*
X132406302Y-94719748D01*
X132452797Y-94714999D01*
X132619334Y-94659814D01*
X132768656Y-94567712D01*
X132892712Y-94443656D01*
X132894461Y-94440819D01*
X132896169Y-94439283D01*
X132897193Y-94437989D01*
X132897414Y-94438163D01*
X132946406Y-94394096D01*
X133015368Y-94382872D01*
X133079451Y-94410713D01*
X133105537Y-94440817D01*
X133107288Y-94443656D01*
X133231344Y-94567712D01*
X133380666Y-94659814D01*
X133547203Y-94714999D01*
X133649991Y-94725500D01*
X134250008Y-94725499D01*
X134250016Y-94725498D01*
X134250019Y-94725498D01*
X134306302Y-94719748D01*
X134352797Y-94714999D01*
X134519334Y-94659814D01*
X134668656Y-94567712D01*
X134792712Y-94443656D01*
X134875519Y-94309402D01*
X134927467Y-94262679D01*
X134981058Y-94250500D01*
X135875501Y-94250500D01*
X135942540Y-94270185D01*
X135988295Y-94322989D01*
X135999501Y-94374500D01*
X135999501Y-94397876D01*
X136005908Y-94457483D01*
X136056202Y-94592328D01*
X136056206Y-94592335D01*
X136142452Y-94707544D01*
X136142455Y-94707547D01*
X136257664Y-94793793D01*
X136257671Y-94793797D01*
X136392517Y-94844091D01*
X136392516Y-94844091D01*
X136399444Y-94844835D01*
X136452127Y-94850500D01*
X138947872Y-94850499D01*
X139007483Y-94844091D01*
X139142331Y-94793796D01*
X139257546Y-94707546D01*
X139343796Y-94592331D01*
X139394091Y-94457483D01*
X139400500Y-94397873D01*
X139400499Y-93535450D01*
X139420183Y-93468412D01*
X139436813Y-93447775D01*
X140301240Y-92583349D01*
X140362562Y-92549865D01*
X140432254Y-92554849D01*
X140488187Y-92596721D01*
X140512140Y-92657146D01*
X140514630Y-92679250D01*
X140514631Y-92679254D01*
X140574211Y-92849523D01*
X140655005Y-92978105D01*
X140670184Y-93002262D01*
X140797738Y-93129816D01*
X140888080Y-93186582D01*
X140930813Y-93213433D01*
X140950478Y-93225789D01*
X141078635Y-93270633D01*
X141120745Y-93285368D01*
X141120750Y-93285369D01*
X141299996Y-93305565D01*
X141300000Y-93305565D01*
X141300004Y-93305565D01*
X141479249Y-93285369D01*
X141479252Y-93285368D01*
X141479255Y-93285368D01*
X141649522Y-93225789D01*
X141802262Y-93129816D01*
X141929816Y-93002262D01*
X141962404Y-92950397D01*
X142014738Y-92904106D01*
X142083581Y-92893430D01*
X142137280Y-92900500D01*
X142137287Y-92900500D01*
X143475500Y-92900500D01*
X143542539Y-92920185D01*
X143588294Y-92972989D01*
X143599500Y-93024500D01*
X143599500Y-94362727D01*
X143614313Y-94475235D01*
X143614313Y-94475236D01*
X143672052Y-94614631D01*
X143672302Y-94615233D01*
X143764549Y-94735451D01*
X143884767Y-94827698D01*
X144024764Y-94885687D01*
X144024772Y-94885688D01*
X144032590Y-94887783D01*
X144092252Y-94924147D01*
X144122783Y-94986993D01*
X144124500Y-95007559D01*
X144124500Y-95039547D01*
X144104815Y-95106586D01*
X144088181Y-95127228D01*
X143562180Y-95653229D01*
X143500857Y-95686714D01*
X143431165Y-95681730D01*
X143375232Y-95639858D01*
X143350815Y-95574394D01*
X143350499Y-95565548D01*
X143350499Y-95474998D01*
X143350498Y-95474981D01*
X143339999Y-95372203D01*
X143339998Y-95372200D01*
X143289812Y-95220750D01*
X143284814Y-95205666D01*
X143192712Y-95056344D01*
X143141728Y-95005360D01*
X143108243Y-94944037D01*
X143113227Y-94874345D01*
X143124418Y-94851703D01*
X143125789Y-94849522D01*
X143185368Y-94679255D01*
X143185369Y-94679249D01*
X143205565Y-94500003D01*
X143205565Y-94499996D01*
X143185369Y-94320750D01*
X143185368Y-94320745D01*
X143176126Y-94294334D01*
X143125789Y-94150478D01*
X143029816Y-93997738D01*
X142902262Y-93870184D01*
X142810459Y-93812500D01*
X142749523Y-93774211D01*
X142579254Y-93714631D01*
X142579249Y-93714630D01*
X142400004Y-93694435D01*
X142399996Y-93694435D01*
X142220750Y-93714630D01*
X142220745Y-93714631D01*
X142050476Y-93774211D01*
X141897737Y-93870184D01*
X141770184Y-93997737D01*
X141674211Y-94150476D01*
X141614631Y-94320745D01*
X141614630Y-94320750D01*
X141594435Y-94499996D01*
X141594435Y-94500000D01*
X141598481Y-94535913D01*
X141598720Y-94538029D01*
X141599500Y-94551914D01*
X141599500Y-94912770D01*
X141579815Y-94979809D01*
X141563181Y-95000451D01*
X141507288Y-95056343D01*
X141507283Y-95056349D01*
X141505241Y-95059661D01*
X141503247Y-95061453D01*
X141502807Y-95062011D01*
X141502711Y-95061935D01*
X141453291Y-95106383D01*
X141384328Y-95117602D01*
X141320247Y-95089755D01*
X141294168Y-95059656D01*
X141292319Y-95056659D01*
X141292316Y-95056655D01*
X141168345Y-94932684D01*
X141019124Y-94840643D01*
X141019119Y-94840641D01*
X140852697Y-94785494D01*
X140852690Y-94785493D01*
X140749986Y-94775000D01*
X140700000Y-94775000D01*
X140700000Y-97224999D01*
X140749972Y-97224999D01*
X140749986Y-97224998D01*
X140852697Y-97214505D01*
X141019119Y-97159358D01*
X141019124Y-97159356D01*
X141168345Y-97067315D01*
X141292318Y-96943342D01*
X141294165Y-96940348D01*
X141295969Y-96938724D01*
X141296798Y-96937677D01*
X141296976Y-96937818D01*
X141346110Y-96893621D01*
X141415073Y-96882396D01*
X141479156Y-96910236D01*
X141505243Y-96940341D01*
X141507288Y-96943656D01*
X141631344Y-97067712D01*
X141780666Y-97159814D01*
X141796340Y-97165008D01*
X141853784Y-97204781D01*
X141880606Y-97269297D01*
X141868290Y-97338072D01*
X141845017Y-97370392D01*
X141777227Y-97438182D01*
X141715907Y-97471666D01*
X141689548Y-97474500D01*
X134238389Y-97474500D01*
X134177971Y-97486518D01*
X134140259Y-97494019D01*
X134117550Y-97498536D01*
X134117548Y-97498537D01*
X134084207Y-97512347D01*
X134003718Y-97545685D01*
X134003709Y-97545690D01*
X133961027Y-97574211D01*
X133961026Y-97574212D01*
X133901268Y-97614140D01*
X133857705Y-97657703D01*
X133814142Y-97701267D01*
X133814139Y-97701270D01*
X132266069Y-99249339D01*
X132204746Y-99282824D01*
X132135054Y-99277840D01*
X132090707Y-99249339D01*
X131258421Y-98417052D01*
X131258414Y-98417046D01*
X131175441Y-98361606D01*
X131175440Y-98361606D01*
X131135501Y-98334919D01*
X131135488Y-98334912D01*
X130998917Y-98278343D01*
X130998907Y-98278340D01*
X130853920Y-98249500D01*
X130853918Y-98249500D01*
X124206978Y-98249500D01*
X124139939Y-98229815D01*
X124128313Y-98221353D01*
X124058539Y-98164090D01*
X124058532Y-98164086D01*
X123884733Y-98071188D01*
X123884727Y-98071186D01*
X123696132Y-98013976D01*
X123696129Y-98013975D01*
X123500000Y-97994659D01*
X123303870Y-98013975D01*
X123115266Y-98071188D01*
X122941467Y-98164086D01*
X122941460Y-98164090D01*
X122789116Y-98289116D01*
X122664090Y-98441460D01*
X122664086Y-98441467D01*
X122571188Y-98615266D01*
X122513975Y-98803870D01*
X122494659Y-99000000D01*
X119000500Y-99000000D01*
X119000500Y-85799983D01*
X121574500Y-85799983D01*
X121574500Y-86800001D01*
X121574501Y-86800019D01*
X121585000Y-86902796D01*
X121585001Y-86902799D01*
X121622746Y-87016705D01*
X121640186Y-87069334D01*
X121732288Y-87218656D01*
X121856344Y-87342712D01*
X121923096Y-87383884D01*
X121969821Y-87435831D01*
X121982000Y-87489423D01*
X121982000Y-88153482D01*
X121962315Y-88220521D01*
X121923099Y-88259019D01*
X121873998Y-88289305D01*
X121750971Y-88412333D01*
X121659642Y-88560399D01*
X121659637Y-88560410D01*
X121604913Y-88725556D01*
X121594500Y-88827477D01*
X121594500Y-89839188D01*
X121604913Y-89941109D01*
X121659637Y-90106255D01*
X121659642Y-90106266D01*
X121750971Y-90254332D01*
X121750974Y-90254336D01*
X121873996Y-90377358D01*
X121874000Y-90377361D01*
X122022066Y-90468690D01*
X122022069Y-90468691D01*
X122022075Y-90468695D01*
X122187225Y-90523420D01*
X122289152Y-90533833D01*
X122289157Y-90533833D01*
X122875843Y-90533833D01*
X122875848Y-90533833D01*
X122977775Y-90523420D01*
X123142925Y-90468695D01*
X123291003Y-90377359D01*
X123414026Y-90254336D01*
X123414458Y-90253634D01*
X123414881Y-90253254D01*
X123418507Y-90248669D01*
X123419290Y-90249288D01*
X123466402Y-90206908D01*
X123535364Y-90195682D01*
X123599448Y-90223521D01*
X123621342Y-90248788D01*
X123621493Y-90248669D01*
X123624143Y-90252020D01*
X123625540Y-90253632D01*
X123625972Y-90254332D01*
X123625975Y-90254337D01*
X123699948Y-90328310D01*
X123733433Y-90389633D01*
X123728449Y-90459325D01*
X123717261Y-90481962D01*
X123674212Y-90550474D01*
X123614631Y-90720745D01*
X123614630Y-90720750D01*
X123594435Y-90899996D01*
X123594435Y-90900000D01*
X123614630Y-91079249D01*
X123614631Y-91079254D01*
X123669620Y-91236402D01*
X123673181Y-91306181D01*
X123640260Y-91365037D01*
X123587682Y-91417616D01*
X123526359Y-91451102D01*
X123456668Y-91446118D01*
X123412319Y-91417617D01*
X123318657Y-91323955D01*
X123318656Y-91323954D01*
X123199532Y-91250478D01*
X123169336Y-91231853D01*
X123169331Y-91231851D01*
X123127172Y-91217881D01*
X123002797Y-91176667D01*
X123002795Y-91176666D01*
X122900010Y-91166166D01*
X122274998Y-91166166D01*
X122274980Y-91166167D01*
X122172203Y-91176666D01*
X122172200Y-91176667D01*
X122005668Y-91231851D01*
X122005663Y-91231853D01*
X121856342Y-91323955D01*
X121732289Y-91448008D01*
X121640187Y-91597329D01*
X121640185Y-91597334D01*
X121625746Y-91640909D01*
X121585001Y-91763869D01*
X121585001Y-91763870D01*
X121585000Y-91763870D01*
X121574500Y-91866649D01*
X121574500Y-92866667D01*
X121574501Y-92866685D01*
X121585000Y-92969462D01*
X121585001Y-92969465D01*
X121603238Y-93024500D01*
X121640186Y-93136000D01*
X121732288Y-93285322D01*
X121856344Y-93409378D01*
X121923096Y-93450550D01*
X121969821Y-93502497D01*
X121982000Y-93556089D01*
X121982000Y-94220149D01*
X121962315Y-94287188D01*
X121923099Y-94325686D01*
X121873998Y-94355972D01*
X121750971Y-94479000D01*
X121659642Y-94627066D01*
X121659637Y-94627077D01*
X121604913Y-94792223D01*
X121594500Y-94894144D01*
X121594500Y-95905855D01*
X121604913Y-96007776D01*
X121659637Y-96172922D01*
X121659642Y-96172933D01*
X121750971Y-96320999D01*
X121750974Y-96321003D01*
X121873996Y-96444025D01*
X121874000Y-96444028D01*
X122022066Y-96535357D01*
X122022069Y-96535358D01*
X122022075Y-96535362D01*
X122187225Y-96590087D01*
X122289152Y-96600500D01*
X122289157Y-96600500D01*
X122875843Y-96600500D01*
X122875848Y-96600500D01*
X122977775Y-96590087D01*
X123142925Y-96535362D01*
X123291003Y-96444026D01*
X123414026Y-96321003D01*
X123414458Y-96320301D01*
X123414881Y-96319921D01*
X123418507Y-96315336D01*
X123419290Y-96315955D01*
X123466402Y-96273575D01*
X123535364Y-96262349D01*
X123599448Y-96290188D01*
X123621342Y-96315455D01*
X123621493Y-96315336D01*
X123624143Y-96318687D01*
X123625540Y-96320299D01*
X123625972Y-96320999D01*
X123625975Y-96321004D01*
X123748996Y-96444025D01*
X123749000Y-96444028D01*
X123897066Y-96535357D01*
X123897069Y-96535358D01*
X123897075Y-96535362D01*
X124062225Y-96590087D01*
X124164152Y-96600500D01*
X124164157Y-96600500D01*
X124750843Y-96600500D01*
X124750848Y-96600500D01*
X124852775Y-96590087D01*
X125017925Y-96535362D01*
X125034747Y-96524986D01*
X139450001Y-96524986D01*
X139460494Y-96627697D01*
X139515641Y-96794119D01*
X139515643Y-96794124D01*
X139607684Y-96943345D01*
X139731654Y-97067315D01*
X139880875Y-97159356D01*
X139880880Y-97159358D01*
X140047302Y-97214505D01*
X140047309Y-97214506D01*
X140150019Y-97224999D01*
X140199999Y-97224998D01*
X140200000Y-97224998D01*
X140200000Y-96250000D01*
X139450001Y-96250000D01*
X139450001Y-96524986D01*
X125034747Y-96524986D01*
X125166003Y-96444026D01*
X125289026Y-96321003D01*
X125380362Y-96172925D01*
X125409333Y-96085496D01*
X125449106Y-96028051D01*
X125513622Y-96001228D01*
X125527039Y-96000500D01*
X128017588Y-96000500D01*
X128084627Y-96020185D01*
X128094903Y-96027555D01*
X128097736Y-96029814D01*
X128097738Y-96029816D01*
X128186352Y-96085496D01*
X128239870Y-96119124D01*
X128250478Y-96125789D01*
X128385185Y-96172925D01*
X128420745Y-96185368D01*
X128420750Y-96185369D01*
X128599996Y-96205565D01*
X128600000Y-96205565D01*
X128600004Y-96205565D01*
X128779249Y-96185369D01*
X128779252Y-96185368D01*
X128779255Y-96185368D01*
X128949522Y-96125789D01*
X129102262Y-96029816D01*
X129229816Y-95902262D01*
X129325789Y-95749522D01*
X129385368Y-95579255D01*
X129385916Y-95574394D01*
X129397113Y-95475013D01*
X139450000Y-95475013D01*
X139450000Y-95750000D01*
X140200000Y-95750000D01*
X140200000Y-94775000D01*
X140199999Y-94774999D01*
X140150029Y-94775000D01*
X140150011Y-94775001D01*
X140047302Y-94785494D01*
X139880880Y-94840641D01*
X139880875Y-94840643D01*
X139731654Y-94932684D01*
X139607684Y-95056654D01*
X139515643Y-95205875D01*
X139515641Y-95205880D01*
X139460494Y-95372302D01*
X139460493Y-95372309D01*
X139450000Y-95475013D01*
X129397113Y-95475013D01*
X129405565Y-95400003D01*
X129405565Y-95399996D01*
X129385369Y-95220750D01*
X129385368Y-95220745D01*
X129325789Y-95050478D01*
X129297439Y-95005360D01*
X129271534Y-94964132D01*
X129229816Y-94897738D01*
X129102262Y-94770184D01*
X129046985Y-94735451D01*
X128949523Y-94674211D01*
X128779254Y-94614631D01*
X128779249Y-94614630D01*
X128600004Y-94594435D01*
X128599996Y-94594435D01*
X128420750Y-94614630D01*
X128420745Y-94614631D01*
X128250476Y-94674211D01*
X128097736Y-94770185D01*
X128094903Y-94772445D01*
X128092724Y-94773334D01*
X128091842Y-94773889D01*
X128091744Y-94773734D01*
X128030217Y-94798855D01*
X128017588Y-94799500D01*
X125527039Y-94799500D01*
X125460000Y-94779815D01*
X125414245Y-94727011D01*
X125409333Y-94714504D01*
X125406296Y-94705340D01*
X125380362Y-94627075D01*
X125380358Y-94627069D01*
X125380357Y-94627066D01*
X125289028Y-94479000D01*
X125289025Y-94478996D01*
X125166003Y-94355974D01*
X125165999Y-94355971D01*
X125017933Y-94264642D01*
X125017927Y-94264639D01*
X125017925Y-94264638D01*
X124969239Y-94248505D01*
X124852776Y-94209913D01*
X124750855Y-94199500D01*
X124750848Y-94199500D01*
X124164152Y-94199500D01*
X124164144Y-94199500D01*
X124062223Y-94209913D01*
X123897077Y-94264637D01*
X123897066Y-94264642D01*
X123749000Y-94355971D01*
X123748996Y-94355974D01*
X123625974Y-94478996D01*
X123625971Y-94479000D01*
X123625538Y-94479703D01*
X123625114Y-94480083D01*
X123621493Y-94484664D01*
X123620710Y-94484045D01*
X123573590Y-94526428D01*
X123504628Y-94537649D01*
X123440546Y-94509806D01*
X123418657Y-94484544D01*
X123418507Y-94484664D01*
X123415859Y-94481315D01*
X123414462Y-94479703D01*
X123414028Y-94479000D01*
X123414027Y-94478999D01*
X123414026Y-94478997D01*
X123291003Y-94355974D01*
X123291002Y-94355973D01*
X123291001Y-94355972D01*
X123241901Y-94325686D01*
X123195178Y-94273738D01*
X123183000Y-94220149D01*
X123183000Y-93562257D01*
X123202685Y-93495218D01*
X123241903Y-93456718D01*
X123318656Y-93409378D01*
X123412319Y-93315715D01*
X123473642Y-93282230D01*
X123543334Y-93287214D01*
X123587681Y-93315715D01*
X123681344Y-93409378D01*
X123830666Y-93501480D01*
X123997203Y-93556665D01*
X124099991Y-93567166D01*
X124725008Y-93567165D01*
X124725016Y-93567164D01*
X124725019Y-93567164D01*
X124781302Y-93561414D01*
X124827797Y-93556665D01*
X124994334Y-93501480D01*
X125143656Y-93409378D01*
X125267712Y-93285322D01*
X125359814Y-93136000D01*
X125414999Y-92969463D01*
X125425500Y-92866675D01*
X125425499Y-91866658D01*
X125425097Y-91862727D01*
X125414999Y-91763869D01*
X125414998Y-91763866D01*
X125390521Y-91689999D01*
X125359814Y-91597332D01*
X125267712Y-91448010D01*
X125166220Y-91346518D01*
X125132735Y-91285195D01*
X125136859Y-91217883D01*
X125180281Y-91093793D01*
X125185367Y-91079259D01*
X125185369Y-91079249D01*
X125205565Y-90900000D01*
X125205565Y-90899996D01*
X125185369Y-90720750D01*
X125185368Y-90720745D01*
X125183357Y-90714998D01*
X125125789Y-90550478D01*
X125125788Y-90550476D01*
X125125149Y-90549459D01*
X125124935Y-90548703D01*
X125122769Y-90544205D01*
X125123557Y-90543825D01*
X125106149Y-90482222D01*
X125126517Y-90415387D01*
X125160645Y-90382224D01*
X125160339Y-90381837D01*
X125164126Y-90378842D01*
X125165045Y-90377949D01*
X125166003Y-90377359D01*
X125289026Y-90254336D01*
X125380362Y-90106258D01*
X125409333Y-90018829D01*
X125449106Y-89961384D01*
X125513622Y-89934561D01*
X125527039Y-89933833D01*
X127950393Y-89933833D01*
X128017432Y-89953518D01*
X128038074Y-89970152D01*
X128097738Y-90029816D01*
X128149091Y-90062083D01*
X128219394Y-90106258D01*
X128250478Y-90125789D01*
X128420745Y-90185368D01*
X128420750Y-90185369D01*
X128599996Y-90205565D01*
X128600000Y-90205565D01*
X128600004Y-90205565D01*
X128779249Y-90185369D01*
X128779252Y-90185368D01*
X128779255Y-90185368D01*
X128949522Y-90125789D01*
X129102262Y-90029816D01*
X129229816Y-89902262D01*
X129325789Y-89749522D01*
X129385368Y-89579255D01*
X129391508Y-89524764D01*
X129405565Y-89400003D01*
X129405565Y-89399996D01*
X129385369Y-89220750D01*
X129385368Y-89220745D01*
X129366672Y-89167315D01*
X129325789Y-89050478D01*
X129321614Y-89043834D01*
X129239292Y-88912819D01*
X129229816Y-88897738D01*
X129102262Y-88770184D01*
X129058270Y-88742542D01*
X128949523Y-88674211D01*
X128779254Y-88614631D01*
X128779249Y-88614630D01*
X128600004Y-88594435D01*
X128599996Y-88594435D01*
X128420750Y-88614630D01*
X128420745Y-88614631D01*
X128250475Y-88674211D01*
X128187431Y-88713826D01*
X128121458Y-88732833D01*
X125527039Y-88732833D01*
X125460000Y-88713148D01*
X125414245Y-88660344D01*
X125409333Y-88647837D01*
X125398330Y-88614632D01*
X125380362Y-88560408D01*
X125380358Y-88560402D01*
X125380357Y-88560399D01*
X125289028Y-88412333D01*
X125289025Y-88412329D01*
X125166003Y-88289307D01*
X125165999Y-88289304D01*
X125017933Y-88197975D01*
X125017927Y-88197972D01*
X125017925Y-88197971D01*
X124995880Y-88190666D01*
X124852776Y-88143246D01*
X124750855Y-88132833D01*
X124750848Y-88132833D01*
X124164152Y-88132833D01*
X124164144Y-88132833D01*
X124062223Y-88143246D01*
X123897077Y-88197970D01*
X123897066Y-88197975D01*
X123749000Y-88289304D01*
X123748996Y-88289307D01*
X123625974Y-88412329D01*
X123625971Y-88412333D01*
X123625538Y-88413036D01*
X123625114Y-88413416D01*
X123621493Y-88417997D01*
X123620710Y-88417378D01*
X123573590Y-88459761D01*
X123504628Y-88470982D01*
X123440546Y-88443139D01*
X123418657Y-88417877D01*
X123418507Y-88417997D01*
X123415859Y-88414648D01*
X123414462Y-88413036D01*
X123414028Y-88412333D01*
X123414027Y-88412332D01*
X123414026Y-88412330D01*
X123291003Y-88289307D01*
X123291002Y-88289306D01*
X123291001Y-88289305D01*
X123241901Y-88259019D01*
X123195178Y-88207071D01*
X123183000Y-88153482D01*
X123183000Y-87495591D01*
X123202685Y-87428552D01*
X123241903Y-87390052D01*
X123318656Y-87342712D01*
X123412319Y-87249049D01*
X123473642Y-87215564D01*
X123543334Y-87220548D01*
X123587681Y-87249049D01*
X123681344Y-87342712D01*
X123830666Y-87434814D01*
X123997203Y-87489999D01*
X124099991Y-87500500D01*
X124725008Y-87500499D01*
X124725016Y-87500498D01*
X124725019Y-87500498D01*
X124781302Y-87494748D01*
X124827797Y-87489999D01*
X124994334Y-87434814D01*
X125143656Y-87342712D01*
X125267712Y-87218656D01*
X125359814Y-87069334D01*
X125414999Y-86902797D01*
X125425500Y-86800009D01*
X125425499Y-85799992D01*
X125417889Y-85725499D01*
X125414999Y-85697203D01*
X125414998Y-85697200D01*
X125397522Y-85644461D01*
X125359814Y-85530666D01*
X125267712Y-85381344D01*
X125143656Y-85257288D01*
X125143655Y-85257287D01*
X125143111Y-85256952D01*
X125142816Y-85256624D01*
X125137992Y-85252810D01*
X125138643Y-85251985D01*
X125096387Y-85205003D01*
X125085167Y-85136041D01*
X125103215Y-85085447D01*
X125125789Y-85049522D01*
X125185368Y-84879255D01*
X125189972Y-84838393D01*
X125205565Y-84700003D01*
X125205565Y-84699996D01*
X125185369Y-84520750D01*
X125185368Y-84520745D01*
X125160613Y-84449999D01*
X125125789Y-84350478D01*
X125029816Y-84197738D01*
X124902262Y-84070184D01*
X124820993Y-84019119D01*
X124749523Y-83974211D01*
X124579254Y-83914631D01*
X124579249Y-83914630D01*
X124400004Y-83894435D01*
X124399996Y-83894435D01*
X124220750Y-83914630D01*
X124220745Y-83914631D01*
X124050476Y-83974211D01*
X123897737Y-84070184D01*
X123770184Y-84197737D01*
X123674211Y-84350476D01*
X123614631Y-84520745D01*
X123614630Y-84520750D01*
X123594435Y-84699996D01*
X123594435Y-84700003D01*
X123614630Y-84879249D01*
X123614631Y-84879254D01*
X123674211Y-85049523D01*
X123704591Y-85097872D01*
X123723591Y-85165109D01*
X123703223Y-85231944D01*
X123685537Y-85251269D01*
X123686450Y-85252182D01*
X123587680Y-85350951D01*
X123526356Y-85384435D01*
X123456665Y-85379451D01*
X123412318Y-85350950D01*
X123318657Y-85257289D01*
X123318656Y-85257288D01*
X123215720Y-85193797D01*
X123169336Y-85165187D01*
X123169331Y-85165185D01*
X123167862Y-85164698D01*
X123002797Y-85110001D01*
X123002795Y-85110000D01*
X122900010Y-85099500D01*
X122274998Y-85099500D01*
X122274980Y-85099501D01*
X122172203Y-85110000D01*
X122172200Y-85110001D01*
X122005668Y-85165185D01*
X122005663Y-85165187D01*
X121856342Y-85257289D01*
X121732289Y-85381342D01*
X121640187Y-85530663D01*
X121640186Y-85530666D01*
X121585001Y-85697203D01*
X121585001Y-85697204D01*
X121585000Y-85697204D01*
X121574500Y-85799983D01*
X119000500Y-85799983D01*
X119000500Y-75000013D01*
X132075000Y-75000013D01*
X132075000Y-75250000D01*
X132837500Y-75250000D01*
X132837500Y-74300000D01*
X132837499Y-74299999D01*
X132775028Y-74300000D01*
X132775011Y-74300001D01*
X132672302Y-74310494D01*
X132505880Y-74365641D01*
X132505875Y-74365643D01*
X132356654Y-74457684D01*
X132232684Y-74581654D01*
X132140643Y-74730875D01*
X132140641Y-74730880D01*
X132085494Y-74897302D01*
X132085493Y-74897309D01*
X132075000Y-75000013D01*
X119000500Y-75000013D01*
X119000500Y-70249999D01*
X119994696Y-70249999D01*
X119994696Y-70250000D01*
X120013898Y-70616405D01*
X120027140Y-70700009D01*
X120071295Y-70978794D01*
X120131495Y-71203464D01*
X120166260Y-71333206D01*
X120297746Y-71675739D01*
X120464320Y-72002656D01*
X120664147Y-72310364D01*
X120664149Y-72310366D01*
X120895051Y-72595506D01*
X121154494Y-72854949D01*
X121246946Y-72929815D01*
X121439635Y-73085852D01*
X121746450Y-73285099D01*
X121747348Y-73285682D01*
X122074264Y-73452255D01*
X122416801Y-73583742D01*
X122771206Y-73678705D01*
X123133596Y-73736102D01*
X123479734Y-73754241D01*
X123499999Y-73755304D01*
X123500000Y-73755304D01*
X123500001Y-73755304D01*
X123519203Y-73754297D01*
X123866404Y-73736102D01*
X124228794Y-73678705D01*
X124583199Y-73583742D01*
X124925736Y-73452255D01*
X125252652Y-73285682D01*
X125560366Y-73085851D01*
X125845506Y-72854949D01*
X126104949Y-72595506D01*
X126335851Y-72310366D01*
X126535682Y-72002652D01*
X126702255Y-71675736D01*
X126833742Y-71333199D01*
X126928705Y-70978794D01*
X126986102Y-70616404D01*
X127005304Y-70250000D01*
X126986102Y-69883596D01*
X126928705Y-69521206D01*
X126833742Y-69166801D01*
X126825024Y-69144091D01*
X126810562Y-69106415D01*
X126702255Y-68824264D01*
X126535682Y-68497348D01*
X126423175Y-68324102D01*
X126335852Y-68189635D01*
X126126144Y-67930668D01*
X126104949Y-67904494D01*
X125845506Y-67645051D01*
X125709498Y-67534914D01*
X125560364Y-67414147D01*
X125252656Y-67214320D01*
X124925739Y-67047746D01*
X124583206Y-66916260D01*
X124583199Y-66916258D01*
X124228794Y-66821295D01*
X124228790Y-66821294D01*
X124228789Y-66821294D01*
X123866405Y-66763898D01*
X123500001Y-66744696D01*
X123499999Y-66744696D01*
X123133594Y-66763898D01*
X122771211Y-66821294D01*
X122771209Y-66821294D01*
X122416793Y-66916260D01*
X122074260Y-67047746D01*
X121747343Y-67214320D01*
X121439635Y-67414147D01*
X121154498Y-67645047D01*
X121154490Y-67645054D01*
X120895054Y-67904490D01*
X120895047Y-67904498D01*
X120664147Y-68189635D01*
X120464320Y-68497343D01*
X120297746Y-68824260D01*
X120166260Y-69166793D01*
X120071294Y-69521209D01*
X120071294Y-69521211D01*
X120013898Y-69883594D01*
X119994696Y-70249999D01*
X119000500Y-70249999D01*
X119000500Y-65874500D01*
X119020185Y-65807461D01*
X119072989Y-65761706D01*
X119124500Y-65750500D01*
X174875500Y-65750500D01*
X174942539Y-65770185D01*
G37*
%TD.AperFunction*%
%TD*%
M02*
