M48
; DRILL file {KiCad 8.0.2-1} date 2024-07-15T21:16:40-0700
; FORMAT={-:-/ absolute / inch / decimal}
; #@! TF.CreationDate,2024-07-15T21:16:40-07:00
; #@! TF.GenerationSoftware,Kicad,Pcbnew,8.0.2-1
; #@! TF.FileFunction,Plated,1,2,PTH
FMAT,2
INCH
; #@! TA.AperFunction,Plated,PTH,ViaDrill
T1C0.0118
; #@! TA.AperFunction,Plated,PTH,ComponentDrill
T2C0.0236
; #@! TA.AperFunction,Plated,PTH,ComponentDrill
T3C0.0256
; #@! TA.AperFunction,Plated,PTH,ComponentDrill
T4C0.0394
%
G90
G05
T1
X4.8976Y-3.3346
X4.8976Y-3.5787
X4.9921Y-3.9921
X4.9921Y-4.0866
X5.063Y-3.5197
X5.063Y-3.7559
X5.1417Y-3.5236
X5.1417Y-3.6811
X5.185Y-2.685
X5.185Y-2.8465
X5.2126Y-4.1772
X5.2402Y-3.1339
X5.3228Y-4.1102
X5.3268Y-4.0591
X5.3307Y-4.0118
X5.3661Y-4.5945
X5.374Y-2.9094
X5.4134Y-4.2205
X5.4921Y-2.9094
X5.5Y-4.0551
X5.5118Y-4.5079
X5.563Y-3.6102
X5.563Y-3.6417
X5.5669Y-3.5512
X5.5709Y-3.1614
X5.5709Y-3.9488
X5.5709Y-4.3661
X5.5866Y-3.061
X5.6063Y-3.7205
X5.6063Y-3.9488
X5.6614Y-2.9213
X5.6772Y-3.3031
X5.689Y-4.1102
X5.6929Y-4.2441
X5.7047Y-3.937
X5.7598Y-3.4803
X5.7874Y-3.0315
X5.7874Y-4.4173
X5.7992Y-3.8701
X5.8219Y-3.7638
X5.8819Y-3.4213
X5.9134Y-2.9213
X5.9646Y-4.5433
X5.9902Y-2.9862
X6.0276Y-3.8346
X6.0709Y-2.7913
X6.0709Y-3.185
X6.2598Y-3.0433
X6.2874Y-4.4685
X6.3937Y-2.685
X6.3937Y-2.8465
X6.4764Y-3.6063
X6.5315Y-3.4803
T3
X6.6951Y-3.0185
X6.6951Y-3.0685
X6.6951Y-3.1185
X6.6951Y-3.1685
X6.6951Y-3.2185
X6.7451Y-3.0185
X6.7451Y-3.0685
X6.7451Y-3.1185
X6.7451Y-3.1685
X6.7451Y-3.2185
T4
X5.7372Y-4.5177
X5.8372Y-4.5177
X6.7195Y-3.9437
X6.7195Y-4.0437
X6.7195Y-4.1437
X6.7215Y-3.5197
X6.7215Y-3.6197
T2
G00X5.6174Y-2.6973
M15
G01X5.6174Y-2.6737
M16
G05
G00X5.6174Y-2.8717
M15
G01X5.6174Y-2.8284
M16
G05
G00X5.9574Y-2.6973
M15
G01X5.9574Y-2.6737
M16
G05
G00X5.9574Y-2.8717
M15
G01X5.9574Y-2.8284
M16
G05
M30
