%TF.GenerationSoftware,KiCad,Pcbnew,8.0.2-1*%
%TF.CreationDate,2024-07-15T21:16:38-07:00*%
%TF.ProjectId,TEMP_LOGGER,54454d50-5f4c-44f4-9747-45522e6b6963,rev?*%
%TF.SameCoordinates,Original*%
%TF.FileFunction,Soldermask,Top*%
%TF.FilePolarity,Negative*%
%FSLAX46Y46*%
G04 Gerber Fmt 4.6, Leading zero omitted, Abs format (unit mm)*
G04 Created by KiCad (PCBNEW 8.0.2-1) date 2024-07-15 21:16:38*
%MOMM*%
%LPD*%
G01*
G04 APERTURE LIST*
G04 Aperture macros list*
%AMRoundRect*
0 Rectangle with rounded corners*
0 $1 Rounding radius*
0 $2 $3 $4 $5 $6 $7 $8 $9 X,Y pos of 4 corners*
0 Add a 4 corners polygon primitive as box body*
4,1,4,$2,$3,$4,$5,$6,$7,$8,$9,$2,$3,0*
0 Add four circle primitives for the rounded corners*
1,1,$1+$1,$2,$3*
1,1,$1+$1,$4,$5*
1,1,$1+$1,$6,$7*
1,1,$1+$1,$8,$9*
0 Add four rect primitives between the rounded corners*
20,1,$1+$1,$2,$3,$4,$5,0*
20,1,$1+$1,$4,$5,$6,$7,0*
20,1,$1+$1,$6,$7,$8,$9,0*
20,1,$1+$1,$8,$9,$2,$3,0*%
G04 Aperture macros list end*
%ADD10R,2.400000X2.000000*%
%ADD11C,1.000000*%
%ADD12RoundRect,0.150000X-0.512500X-0.150000X0.512500X-0.150000X0.512500X0.150000X-0.512500X0.150000X0*%
%ADD13RoundRect,0.075000X-0.662500X-0.075000X0.662500X-0.075000X0.662500X0.075000X-0.662500X0.075000X0*%
%ADD14RoundRect,0.075000X-0.075000X-0.662500X0.075000X-0.662500X0.075000X0.662500X-0.075000X0.662500X0*%
%ADD15RoundRect,0.250000X-0.450000X0.262500X-0.450000X-0.262500X0.450000X-0.262500X0.450000X0.262500X0*%
%ADD16RoundRect,0.150000X0.512500X0.150000X-0.512500X0.150000X-0.512500X-0.150000X0.512500X-0.150000X0*%
%ADD17RoundRect,0.250000X-0.475000X0.250000X-0.475000X-0.250000X0.475000X-0.250000X0.475000X0.250000X0*%
%ADD18R,1.700000X1.700000*%
%ADD19O,1.700000X1.700000*%
%ADD20RoundRect,0.250000X0.262500X0.450000X-0.262500X0.450000X-0.262500X-0.450000X0.262500X-0.450000X0*%
%ADD21C,0.650000*%
%ADD22RoundRect,0.070000X-0.150000X-0.500000X0.150000X-0.500000X0.150000X0.500000X-0.150000X0.500000X0*%
%ADD23RoundRect,0.070000X0.150000X0.500000X-0.150000X0.500000X-0.150000X-0.500000X0.150000X-0.500000X0*%
%ADD24RoundRect,0.070000X-0.300000X-0.500000X0.300000X-0.500000X0.300000X0.500000X-0.300000X0.500000X0*%
%ADD25RoundRect,0.070000X0.300000X0.500000X-0.300000X0.500000X-0.300000X-0.500000X0.300000X-0.500000X0*%
%ADD26O,1.000000X1.600000*%
%ADD27O,1.000000X2.100000*%
%ADD28RoundRect,0.250000X0.250000X0.475000X-0.250000X0.475000X-0.250000X-0.475000X0.250000X-0.475000X0*%
%ADD29RoundRect,0.250000X0.450000X-0.262500X0.450000X0.262500X-0.450000X0.262500X-0.450000X-0.262500X0*%
%ADD30R,1.800000X1.000000*%
%ADD31RoundRect,0.250000X0.475000X-0.250000X0.475000X0.250000X-0.475000X0.250000X-0.475000X-0.250000X0*%
%ADD32RoundRect,0.250000X-0.262500X-0.450000X0.262500X-0.450000X0.262500X0.450000X-0.262500X0.450000X0*%
%ADD33RoundRect,0.101600X-0.500000X0.450000X-0.500000X-0.450000X0.500000X-0.450000X0.500000X0.450000X0*%
%ADD34RoundRect,0.250000X-0.250000X-0.475000X0.250000X-0.475000X0.250000X0.475000X-0.250000X0.475000X0*%
%ADD35RoundRect,0.150000X-0.675000X-0.150000X0.675000X-0.150000X0.675000X0.150000X-0.675000X0.150000X0*%
%ADD36R,1.000000X1.000000*%
%ADD37O,1.000000X1.000000*%
%ADD38RoundRect,0.243750X-0.243750X-0.456250X0.243750X-0.456250X0.243750X0.456250X-0.243750X0.456250X0*%
%ADD39RoundRect,0.150000X-0.150000X0.512500X-0.150000X-0.512500X0.150000X-0.512500X0.150000X0.512500X0*%
%ADD40RoundRect,0.101600X0.500000X-0.450000X0.500000X0.450000X-0.500000X0.450000X-0.500000X-0.450000X0*%
%ADD41RoundRect,0.101600X0.400000X0.450000X-0.400000X0.450000X-0.400000X-0.450000X0.400000X-0.450000X0*%
G04 APERTURE END LIST*
D10*
%TO.C,Y1*%
X137700000Y-93350000D03*
X137700000Y-89650000D03*
%TD*%
D11*
%TO.C,TP7*%
X123500000Y-103750000D03*
%TD*%
D12*
%TO.C,U4*%
X155862500Y-113550000D03*
X155862500Y-114500000D03*
X155862500Y-115450000D03*
X158137500Y-115450000D03*
X158137500Y-113550000D03*
%TD*%
D11*
%TO.C,TP10*%
X165500000Y-100200000D03*
%TD*%
D13*
%TO.C,U1*%
X142837500Y-86750000D03*
X142837500Y-87250000D03*
X142837500Y-87750000D03*
X142837500Y-88250000D03*
X142837500Y-88750000D03*
X142837500Y-89250000D03*
X142837500Y-89750000D03*
X142837500Y-90250000D03*
X142837500Y-90750000D03*
X142837500Y-91250000D03*
X142837500Y-91750000D03*
X142837500Y-92250000D03*
D14*
X144250000Y-93662500D03*
X144750000Y-93662500D03*
X145250000Y-93662500D03*
X145750000Y-93662500D03*
X146250000Y-93662500D03*
X146750000Y-93662500D03*
X147250000Y-93662500D03*
X147750000Y-93662500D03*
X148250000Y-93662500D03*
X148750000Y-93662500D03*
X149250000Y-93662500D03*
X149750000Y-93662500D03*
D13*
X151162500Y-92250000D03*
X151162500Y-91750000D03*
X151162500Y-91250000D03*
X151162500Y-90750000D03*
X151162500Y-90250000D03*
X151162500Y-89750000D03*
X151162500Y-89250000D03*
X151162500Y-88750000D03*
X151162500Y-88250000D03*
X151162500Y-87750000D03*
X151162500Y-87250000D03*
X151162500Y-86750000D03*
D14*
X149750000Y-85337500D03*
X149250000Y-85337500D03*
X148750000Y-85337500D03*
X148250000Y-85337500D03*
X147750000Y-85337500D03*
X147250000Y-85337500D03*
X146750000Y-85337500D03*
X146250000Y-85337500D03*
X145750000Y-85337500D03*
X145250000Y-85337500D03*
X144750000Y-85337500D03*
X144250000Y-85337500D03*
%TD*%
D15*
%TO.C,R1*%
X141500000Y-113587500D03*
X141500000Y-115412500D03*
%TD*%
D11*
%TO.C,TP12*%
X154500000Y-93700000D03*
%TD*%
D16*
%TO.C,U3*%
X138637500Y-115450000D03*
X138637500Y-114500000D03*
X138637500Y-113550000D03*
X136362500Y-113550000D03*
X136362500Y-115450000D03*
%TD*%
D17*
%TO.C,C1*%
X156000000Y-69050000D03*
X156000000Y-70950000D03*
%TD*%
%TO.C,C2*%
X143550000Y-75850000D03*
X143550000Y-77750000D03*
%TD*%
D18*
%TO.C,J3*%
X170675000Y-105250000D03*
D19*
X170675000Y-102710000D03*
X170675000Y-100170000D03*
%TD*%
D20*
%TO.C,R10*%
X134912500Y-78000000D03*
X133087500Y-78000000D03*
%TD*%
D21*
%TO.C,J6*%
X149890000Y-71861250D03*
X144110000Y-71861250D03*
D22*
X148250000Y-72966250D03*
X147250000Y-72966250D03*
D23*
X146750000Y-72966250D03*
X145750000Y-72966250D03*
X145250000Y-72966250D03*
X146250000Y-72966250D03*
D22*
X147750000Y-72966250D03*
X148750000Y-72966250D03*
D24*
X150225000Y-72966250D03*
D25*
X143775000Y-72966250D03*
D26*
X151318000Y-68211250D03*
D27*
X151318000Y-72391250D03*
X142682000Y-72391250D03*
D26*
X142682000Y-68211250D03*
D24*
X149450000Y-72966250D03*
D25*
X144550000Y-72966250D03*
%TD*%
D17*
%TO.C,C7*%
X151400000Y-95550000D03*
X151400000Y-97450000D03*
%TD*%
D28*
%TO.C,C12*%
X133950000Y-87000000D03*
X132050000Y-87000000D03*
%TD*%
D11*
%TO.C,TP9*%
X123500000Y-108500000D03*
%TD*%
D29*
%TO.C,R6*%
X165900000Y-91612500D03*
X165900000Y-89787500D03*
%TD*%
D11*
%TO.C,TP6*%
X123500000Y-101375000D03*
%TD*%
%TO.C,TP5*%
X123500000Y-99000000D03*
%TD*%
D30*
%TO.C,Y2*%
X137000000Y-84250000D03*
X137000000Y-86750000D03*
%TD*%
D28*
%TO.C,C11*%
X133950000Y-84500000D03*
X132050000Y-84500000D03*
%TD*%
D11*
%TO.C,TP8*%
X123500000Y-106125000D03*
%TD*%
D28*
%TO.C,C9*%
X133950000Y-89500000D03*
X132050000Y-89500000D03*
%TD*%
D31*
%TO.C,C5*%
X152500000Y-82850000D03*
X152500000Y-80950000D03*
%TD*%
D32*
%TO.C,R11*%
X133087500Y-75500000D03*
X134912500Y-75500000D03*
%TD*%
D31*
%TO.C,C3*%
X150550000Y-77750000D03*
X150550000Y-75850000D03*
%TD*%
D33*
%TO.C,SW1*%
X160800000Y-68200000D03*
X160800000Y-72300000D03*
X159200000Y-68200000D03*
X159200000Y-72300000D03*
%TD*%
D11*
%TO.C,TP11*%
X165500000Y-102700000D03*
%TD*%
D20*
%TO.C,R9*%
X124412500Y-92366666D03*
X122587500Y-92366666D03*
%TD*%
D15*
%TO.C,R2*%
X153000000Y-113587500D03*
X153000000Y-115412500D03*
%TD*%
D20*
%TO.C,R5*%
X147912500Y-100000000D03*
X146087500Y-100000000D03*
%TD*%
D29*
%TO.C,R3*%
X143000000Y-104412500D03*
X143000000Y-102587500D03*
%TD*%
D34*
%TO.C,C6*%
X140450000Y-96000000D03*
X142350000Y-96000000D03*
%TD*%
D35*
%TO.C,U2*%
X132375000Y-100595000D03*
X132375000Y-101865000D03*
X132375000Y-103135000D03*
X132375000Y-104405000D03*
X137625000Y-104405000D03*
X137625000Y-103135000D03*
X137625000Y-101865000D03*
X137625000Y-100595000D03*
%TD*%
D29*
%TO.C,R4*%
X151000000Y-104412500D03*
X151000000Y-102587500D03*
%TD*%
D36*
%TO.C,J1*%
X171325000Y-81750000D03*
D37*
X170055000Y-81750000D03*
X171325000Y-80480000D03*
X170055000Y-80480000D03*
X171325000Y-79210000D03*
X170055000Y-79210000D03*
X171325000Y-77940000D03*
X170055000Y-77940000D03*
X171325000Y-76670000D03*
X170055000Y-76670000D03*
%TD*%
D28*
%TO.C,C10*%
X133950000Y-93500000D03*
X132050000Y-93500000D03*
%TD*%
D38*
%TO.C,D2*%
X122582500Y-95400000D03*
X124457500Y-95400000D03*
%TD*%
D39*
%TO.C,U6*%
X147950000Y-75862500D03*
X147000000Y-75862500D03*
X146050000Y-75862500D03*
X146050000Y-78137500D03*
X147950000Y-78137500D03*
%TD*%
D11*
%TO.C,TP3*%
X137500000Y-110500000D03*
%TD*%
D40*
%TO.C,SW2*%
X133200000Y-72300000D03*
X133200000Y-68200000D03*
X134800000Y-72300000D03*
X134800000Y-68200000D03*
%TD*%
D41*
%TO.C,Q1*%
X147950000Y-102500000D03*
X146050000Y-102500000D03*
X147000000Y-104600000D03*
%TD*%
D11*
%TO.C,TP4*%
X157000000Y-110500000D03*
%TD*%
D17*
%TO.C,C8*%
X138000000Y-68500000D03*
X138000000Y-70400000D03*
%TD*%
D11*
%TO.C,TP1*%
X147000000Y-110500000D03*
%TD*%
D31*
%TO.C,C4*%
X141500000Y-83450000D03*
X141500000Y-81550000D03*
%TD*%
D18*
%TO.C,J2*%
X145725000Y-114750000D03*
D19*
X148265000Y-114750000D03*
%TD*%
D20*
%TO.C,R8*%
X124412500Y-86300000D03*
X122587500Y-86300000D03*
%TD*%
D38*
%TO.C,D1*%
X122582500Y-89333333D03*
X124457500Y-89333333D03*
%TD*%
D18*
%TO.C,J5*%
X170725000Y-89400000D03*
D19*
X170725000Y-91940000D03*
%TD*%
M02*
